M48
; DRILL file {KiCad (5.1.5-0-10_14)} date Monday, 19 October 2020 at 01:07:13 pm
; FORMAT={-:-/ absolute / metric / decimal}
; #@! TF.CreationDate,2020-10-19T13:07:13+11:00
; #@! TF.GenerationSoftware,Kicad,Pcbnew,(5.1.5-0-10_14)
; #@! TF.FileFunction,Plated,1,2,PTH
FMAT,2
METRIC
T1C0.400
T2C0.800
T3C1.000
T4C3.200
T5C4.300
%
G90
G05
T1
X65.532Y-56.007
X66.484Y-54.038
X66.802Y-52.514
X67.564Y-54.038
X70.421Y-58.674
X71.12Y-49.212
X72.453Y-51.498
X73.596Y-58.737
X74.739Y-48.061
X92.011Y-57.34
X95.123Y-52.324
T2
X79.184Y-45.466
X94.424Y-45.466
X79.248Y-57.531
X94.488Y-57.531
X79.184Y-49.911
X94.424Y-49.911
X79.248Y-62.357
X94.488Y-62.357
X79.883Y-53.721
X82.423Y-53.721
X84.963Y-53.721
X87.503Y-53.721
X90.043Y-53.721
T3
X98.933Y-47.371
X98.933Y-49.911
X98.933Y-52.451
X98.933Y-54.991
X98.933Y-57.531
X98.933Y-60.071
X57.612Y-49.391
X57.612Y-52.161
X57.612Y-54.931
X57.612Y-57.701
X60.452Y-48.006
X60.452Y-50.776
X60.452Y-53.546
X60.452Y-56.316
X60.452Y-59.086
T4
X60.152Y-41.046
X60.152Y-66.046
T5
X107.442Y-58.547
X107.442Y-48.768
T0
M30
