G04 #@! TF.GenerationSoftware,KiCad,Pcbnew,(5.1.5-0-10_14)*
G04 #@! TF.CreationDate,2020-10-19T13:07:16+11:00*
G04 #@! TF.ProjectId,Atari-Tandy Joystick Adapter,41746172-692d-4546-916e-6479204a6f79,rev?*
G04 #@! TF.SameCoordinates,Original*
G04 #@! TF.FileFunction,Copper,L1,Top*
G04 #@! TF.FilePolarity,Positive*
%FSLAX46Y46*%
G04 Gerber Fmt 4.6, Leading zero omitted, Abs format (unit mm)*
G04 Created by KiCad (PCBNEW (5.1.5-0-10_14)) date 2020-10-19 13:07:16*
%MOMM*%
%LPD*%
G04 APERTURE LIST*
%ADD10O,1.600000X1.600000*%
%ADD11R,1.600000X1.600000*%
%ADD12O,1.450000X0.599999*%
%ADD13C,7.500000*%
%ADD14C,1.600000*%
%ADD15C,4.000000*%
%ADD16O,1.700000X1.700000*%
%ADD17R,1.700000X1.700000*%
%ADD18C,0.800000*%
%ADD19C,0.250000*%
%ADD20C,0.254000*%
G04 APERTURE END LIST*
D10*
X79883000Y-53721000D03*
X82423000Y-53721000D03*
X84963000Y-53721000D03*
X87503000Y-53721000D03*
D11*
X90043000Y-53721000D03*
D12*
X74733998Y-49276000D03*
X74733998Y-50546000D03*
X74733998Y-51816000D03*
X74733998Y-53086000D03*
X74733998Y-54356000D03*
X74733998Y-55626000D03*
X74733998Y-56896000D03*
X69283999Y-56896000D03*
X69283999Y-55626000D03*
X69283999Y-54356000D03*
X69283999Y-53086000D03*
X69283999Y-51816000D03*
X69283999Y-50546000D03*
X69283999Y-49276000D03*
D13*
X107442000Y-58547000D03*
X107442000Y-48768000D03*
D10*
X94488000Y-62357000D03*
D14*
X79248000Y-62357000D03*
D10*
X94488000Y-57531000D03*
D14*
X79248000Y-57531000D03*
D10*
X94424500Y-49911000D03*
D14*
X79184500Y-49911000D03*
D10*
X94424500Y-45466000D03*
D14*
X79184500Y-45466000D03*
D15*
X60152000Y-66046000D03*
X60152000Y-41046000D03*
D14*
X57612000Y-57701000D03*
X57612000Y-54931000D03*
X57612000Y-52161000D03*
X57612000Y-49391000D03*
X60452000Y-59086000D03*
X60452000Y-56316000D03*
X60452000Y-53546000D03*
X60452000Y-50776000D03*
D11*
X60452000Y-48006000D03*
D16*
X98933000Y-60071000D03*
X98933000Y-57531000D03*
X98933000Y-54991000D03*
X98933000Y-52451000D03*
X98933000Y-49911000D03*
D17*
X98933000Y-47371000D03*
D18*
X74739500Y-48060999D03*
X70421500Y-58674000D03*
X71120000Y-49212500D03*
X92011500Y-57340500D03*
X95123000Y-52324000D03*
X65532000Y-56007000D03*
X66484500Y-54038500D03*
X73596500Y-58737500D03*
X66802000Y-52514500D03*
X67564000Y-54038500D03*
X72453500Y-51498500D03*
D19*
X57612000Y-58832370D02*
X57612000Y-57701000D01*
X67183000Y-64198500D02*
X64008000Y-61023500D01*
X98083001Y-61682999D02*
X95567500Y-64198500D01*
X59690000Y-61023500D02*
X59626500Y-60960000D01*
X98933000Y-60071000D02*
X98083001Y-60920999D01*
X64008000Y-61023500D02*
X59690000Y-61023500D01*
X59626500Y-60960000D02*
X57612000Y-58832370D01*
X95567500Y-64198500D02*
X67183000Y-64198500D01*
X98083001Y-60920999D02*
X98083001Y-61682999D01*
X59700629Y-60920999D02*
X59626500Y-60960000D01*
X90043000Y-49847500D02*
X90043000Y-53721000D01*
X94424500Y-45466000D02*
X90043000Y-49847500D01*
X97730919Y-57531000D02*
X94488000Y-57531000D01*
X98933000Y-57531000D02*
X97730919Y-57531000D01*
X90678000Y-53721000D02*
X90043000Y-53721000D01*
X94488000Y-57531000D02*
X90678000Y-53721000D01*
X75708997Y-49276000D02*
X77740997Y-51308000D01*
X74733998Y-49276000D02*
X75708997Y-49276000D01*
X77740997Y-51308000D02*
X80835500Y-51308000D01*
X82296000Y-49847500D02*
X90043000Y-49847500D01*
X80835500Y-51308000D02*
X82296000Y-49847500D01*
X74733998Y-48066501D02*
X74739500Y-48060999D01*
X74733998Y-49276000D02*
X74733998Y-48066501D01*
X55372000Y-51631000D02*
X57612000Y-49391000D01*
X63119000Y-62674500D02*
X58737500Y-62674500D01*
X98425000Y-64897000D02*
X65341500Y-64897000D01*
X101409500Y-61912500D02*
X98425000Y-64897000D01*
X101409500Y-55118000D02*
X101409500Y-61912500D01*
X58737500Y-62674500D02*
X55372000Y-59309000D01*
X65341500Y-64897000D02*
X63119000Y-62674500D01*
X101282500Y-54991000D02*
X101409500Y-55118000D01*
X55372000Y-59309000D02*
X55372000Y-51631000D01*
X98933000Y-54991000D02*
X101282500Y-54991000D01*
X69283999Y-57536499D02*
X69283999Y-56896000D01*
X70421500Y-58674000D02*
X69283999Y-57536499D01*
X58743370Y-54931000D02*
X57612000Y-54931000D01*
X66344000Y-54931000D02*
X58743370Y-54931000D01*
X68309000Y-56896000D02*
X66344000Y-54931000D01*
X69283999Y-56896000D02*
X68309000Y-56896000D01*
X70258998Y-50546000D02*
X69283999Y-50546000D01*
X70720001Y-49612499D02*
X70720001Y-50084997D01*
X70720001Y-50084997D02*
X70258998Y-50546000D01*
X71120000Y-49212500D02*
X70720001Y-49612499D01*
X69283999Y-50546000D02*
X69283999Y-51816000D01*
X74733998Y-54356000D02*
X74733998Y-55626000D01*
X98933000Y-47948315D02*
X98933000Y-47371000D01*
X95123000Y-51758315D02*
X98933000Y-47948315D01*
X95123000Y-52324000D02*
X95123000Y-51758315D01*
X90233500Y-59118500D02*
X92011500Y-57340500D01*
X78549500Y-59118500D02*
X90233500Y-59118500D01*
X77597000Y-58166000D02*
X78549500Y-59118500D01*
X77597000Y-56832500D02*
X77597000Y-58166000D01*
X75120500Y-54356000D02*
X77597000Y-56832500D01*
X74733998Y-54356000D02*
X75120500Y-54356000D01*
X65223000Y-56316000D02*
X65532000Y-56007000D01*
X60452000Y-56316000D02*
X65223000Y-56316000D01*
X68072000Y-55626000D02*
X69283999Y-55626000D01*
X66484500Y-54038500D02*
X68072000Y-55626000D01*
X70485000Y-55626000D02*
X73596500Y-58737500D01*
X69283999Y-55626000D02*
X70485000Y-55626000D01*
X65903998Y-53546000D02*
X66136499Y-53313499D01*
X60452000Y-53546000D02*
X65903998Y-53546000D01*
X73758999Y-51816000D02*
X74733998Y-51816000D01*
X73722090Y-51816000D02*
X73758999Y-51816000D01*
X71827081Y-53711009D02*
X73722090Y-51816000D01*
X68600112Y-53711009D02*
X71827081Y-53711009D01*
X68202602Y-53313499D02*
X68600112Y-53711009D01*
X66136499Y-53313499D02*
X68202602Y-53313499D01*
X81153000Y-52451000D02*
X81623001Y-52921001D01*
X74733998Y-51816000D02*
X76342587Y-51816000D01*
X81623001Y-52921001D02*
X82423000Y-53721000D01*
X76977587Y-52451000D02*
X81153000Y-52451000D01*
X76342587Y-51816000D02*
X76977587Y-52451000D01*
X65063500Y-50776000D02*
X66802000Y-52514500D01*
X60452000Y-50776000D02*
X65063500Y-50776000D01*
X67881500Y-54356000D02*
X69283999Y-54356000D01*
X67564000Y-54038500D02*
X67881500Y-54356000D01*
X79883000Y-53721000D02*
X79565500Y-53403500D01*
X73777009Y-52460991D02*
X71882000Y-54356000D01*
X71882000Y-54356000D02*
X69283999Y-54356000D01*
X79565500Y-53403500D02*
X76390500Y-53403500D01*
X76390500Y-53403500D02*
X75447991Y-52460991D01*
X75447991Y-52460991D02*
X73777009Y-52460991D01*
X69283999Y-48726001D02*
X69283999Y-49276000D01*
X72544000Y-45466000D02*
X69283999Y-48726001D01*
X79184500Y-45466000D02*
X72544000Y-45466000D01*
X72072500Y-48069500D02*
X72072500Y-50673000D01*
X72072500Y-50673000D02*
X69659500Y-53086000D01*
X72898000Y-47244000D02*
X72072500Y-48069500D01*
X76517500Y-47244000D02*
X72898000Y-47244000D01*
X69659500Y-53086000D02*
X69283999Y-53086000D01*
X79184500Y-49911000D02*
X76517500Y-47244000D01*
X74803000Y-53086000D02*
X74733998Y-53086000D01*
X79248000Y-57531000D02*
X74803000Y-53086000D01*
X74733998Y-57842998D02*
X74733998Y-56896000D01*
X79248000Y-62357000D02*
X74733998Y-57842998D01*
X73406000Y-50546000D02*
X74733998Y-50546000D01*
X72453500Y-51498500D02*
X73406000Y-50546000D01*
X74733998Y-50546000D02*
X75708997Y-50546000D01*
X75708997Y-50546000D02*
X77163986Y-52000989D01*
X77163986Y-52000989D02*
X81339400Y-52000989D01*
X85792981Y-52010981D02*
X86703001Y-52921001D01*
X81349392Y-52010981D02*
X85792981Y-52010981D01*
X81339400Y-52000989D02*
X81349392Y-52010981D01*
X86703001Y-52921001D02*
X87503000Y-53721000D01*
D20*
G36*
X112243001Y-72873000D02*
G01*
X52857000Y-72873000D01*
X52857000Y-51631000D01*
X54608324Y-51631000D01*
X54612001Y-51668332D01*
X54612000Y-59271678D01*
X54608324Y-59309000D01*
X54612000Y-59346322D01*
X54612000Y-59346332D01*
X54622997Y-59457985D01*
X54648718Y-59542776D01*
X54666454Y-59601246D01*
X54737026Y-59733276D01*
X54763658Y-59765727D01*
X54831999Y-59849001D01*
X54861003Y-59872804D01*
X58173700Y-63185502D01*
X58197499Y-63214501D01*
X58313224Y-63309474D01*
X58445253Y-63380046D01*
X58588514Y-63423503D01*
X58700167Y-63434500D01*
X58700175Y-63434500D01*
X58737500Y-63438176D01*
X58774825Y-63434500D01*
X59774332Y-63434500D01*
X59383399Y-63512261D01*
X58903859Y-63710893D01*
X58472285Y-63999262D01*
X58105262Y-64366285D01*
X57816893Y-64797859D01*
X57618261Y-65277399D01*
X57517000Y-65786475D01*
X57517000Y-66305525D01*
X57618261Y-66814601D01*
X57816893Y-67294141D01*
X58105262Y-67725715D01*
X58472285Y-68092738D01*
X58903859Y-68381107D01*
X59383399Y-68579739D01*
X59892475Y-68681000D01*
X60411525Y-68681000D01*
X60920601Y-68579739D01*
X61400141Y-68381107D01*
X61831715Y-68092738D01*
X62198738Y-67725715D01*
X62487107Y-67294141D01*
X62685739Y-66814601D01*
X62787000Y-66305525D01*
X62787000Y-65786475D01*
X62685739Y-65277399D01*
X62487107Y-64797859D01*
X62198738Y-64366285D01*
X61831715Y-63999262D01*
X61400141Y-63710893D01*
X60920601Y-63512261D01*
X60529668Y-63434500D01*
X62804199Y-63434500D01*
X64777701Y-65408003D01*
X64801499Y-65437001D01*
X64917224Y-65531974D01*
X65049253Y-65602546D01*
X65192514Y-65646003D01*
X65304167Y-65657000D01*
X65304175Y-65657000D01*
X65341500Y-65660676D01*
X65378825Y-65657000D01*
X98387678Y-65657000D01*
X98425000Y-65660676D01*
X98462322Y-65657000D01*
X98462333Y-65657000D01*
X98573986Y-65646003D01*
X98717247Y-65602546D01*
X98849276Y-65531974D01*
X98965001Y-65437001D01*
X98988804Y-65407997D01*
X101920508Y-62476295D01*
X101949501Y-62452501D01*
X101973295Y-62423508D01*
X101973299Y-62423504D01*
X102044473Y-62336777D01*
X102044474Y-62336776D01*
X102115046Y-62204747D01*
X102158503Y-62061486D01*
X102169500Y-61949833D01*
X102169500Y-61949824D01*
X102173176Y-61912501D01*
X102169500Y-61875178D01*
X102169500Y-61638872D01*
X104529733Y-61638872D01*
X104955912Y-62184872D01*
X105713395Y-62599983D01*
X106537307Y-62859339D01*
X107395986Y-62952976D01*
X108256434Y-62877293D01*
X109085583Y-62635199D01*
X109851570Y-62235999D01*
X109928088Y-62184872D01*
X110354267Y-61638872D01*
X107442000Y-58726605D01*
X104529733Y-61638872D01*
X102169500Y-61638872D01*
X102169500Y-58500986D01*
X103036024Y-58500986D01*
X103111707Y-59361434D01*
X103353801Y-60190583D01*
X103753001Y-60956570D01*
X103804128Y-61033088D01*
X104350128Y-61459267D01*
X107262395Y-58547000D01*
X107621605Y-58547000D01*
X110533872Y-61459267D01*
X111079872Y-61033088D01*
X111494983Y-60275605D01*
X111754339Y-59451693D01*
X111847976Y-58593014D01*
X111772293Y-57732566D01*
X111530199Y-56903417D01*
X111130999Y-56137430D01*
X111079872Y-56060912D01*
X110533872Y-55634733D01*
X107621605Y-58547000D01*
X107262395Y-58547000D01*
X104350128Y-55634733D01*
X103804128Y-56060912D01*
X103389017Y-56818395D01*
X103129661Y-57642307D01*
X103036024Y-58500986D01*
X102169500Y-58500986D01*
X102169500Y-55455128D01*
X104529733Y-55455128D01*
X107442000Y-58367395D01*
X110354267Y-55455128D01*
X109928088Y-54909128D01*
X109170605Y-54494017D01*
X108346693Y-54234661D01*
X107488014Y-54141024D01*
X106627566Y-54216707D01*
X105798417Y-54458801D01*
X105032430Y-54858001D01*
X104955912Y-54909128D01*
X104529733Y-55455128D01*
X102169500Y-55455128D01*
X102169500Y-55155322D01*
X102173176Y-55117999D01*
X102169500Y-55080677D01*
X102169500Y-55080667D01*
X102158503Y-54969014D01*
X102115046Y-54825753D01*
X102044474Y-54693724D01*
X101949501Y-54577999D01*
X101920498Y-54554197D01*
X101846304Y-54480003D01*
X101822501Y-54450999D01*
X101706776Y-54356026D01*
X101574747Y-54285454D01*
X101431486Y-54241997D01*
X101319833Y-54231000D01*
X101319822Y-54231000D01*
X101282500Y-54227324D01*
X101245178Y-54231000D01*
X100211178Y-54231000D01*
X100086475Y-54044368D01*
X99879632Y-53837525D01*
X99697466Y-53715805D01*
X99814355Y-53646178D01*
X100030588Y-53451269D01*
X100204641Y-53217920D01*
X100329825Y-52955099D01*
X100374476Y-52807890D01*
X100253155Y-52578000D01*
X99060000Y-52578000D01*
X99060000Y-52598000D01*
X98806000Y-52598000D01*
X98806000Y-52578000D01*
X97612845Y-52578000D01*
X97491524Y-52807890D01*
X97536175Y-52955099D01*
X97661359Y-53217920D01*
X97835412Y-53451269D01*
X98051645Y-53646178D01*
X98168534Y-53715805D01*
X97986368Y-53837525D01*
X97779525Y-54044368D01*
X97617010Y-54287589D01*
X97505068Y-54557842D01*
X97448000Y-54844740D01*
X97448000Y-55137260D01*
X97505068Y-55424158D01*
X97617010Y-55694411D01*
X97779525Y-55937632D01*
X97986368Y-56144475D01*
X98160760Y-56261000D01*
X97986368Y-56377525D01*
X97779525Y-56584368D01*
X97654822Y-56771000D01*
X95706043Y-56771000D01*
X95602637Y-56616241D01*
X95402759Y-56416363D01*
X95167727Y-56259320D01*
X94906574Y-56151147D01*
X94629335Y-56096000D01*
X94346665Y-56096000D01*
X94164114Y-56132312D01*
X91481072Y-53449271D01*
X91481072Y-52921000D01*
X91468812Y-52796518D01*
X91432502Y-52676820D01*
X91373537Y-52566506D01*
X91294185Y-52469815D01*
X91197494Y-52390463D01*
X91087180Y-52331498D01*
X90967482Y-52295188D01*
X90843000Y-52282928D01*
X90803000Y-52282928D01*
X90803000Y-52222061D01*
X94088000Y-52222061D01*
X94088000Y-52425939D01*
X94127774Y-52625898D01*
X94205795Y-52814256D01*
X94319063Y-52983774D01*
X94463226Y-53127937D01*
X94632744Y-53241205D01*
X94821102Y-53319226D01*
X95021061Y-53359000D01*
X95224939Y-53359000D01*
X95424898Y-53319226D01*
X95613256Y-53241205D01*
X95782774Y-53127937D01*
X95926937Y-52983774D01*
X96040205Y-52814256D01*
X96118226Y-52625898D01*
X96158000Y-52425939D01*
X96158000Y-52222061D01*
X96118226Y-52022102D01*
X96064271Y-51891845D01*
X97536375Y-50419741D01*
X97617010Y-50614411D01*
X97779525Y-50857632D01*
X97986368Y-51064475D01*
X98168534Y-51186195D01*
X98051645Y-51255822D01*
X97835412Y-51450731D01*
X97661359Y-51684080D01*
X97536175Y-51946901D01*
X97491524Y-52094110D01*
X97612845Y-52324000D01*
X98806000Y-52324000D01*
X98806000Y-52304000D01*
X99060000Y-52304000D01*
X99060000Y-52324000D01*
X100253155Y-52324000D01*
X100374476Y-52094110D01*
X100329825Y-51946901D01*
X100288373Y-51859872D01*
X104529733Y-51859872D01*
X104955912Y-52405872D01*
X105713395Y-52820983D01*
X106537307Y-53080339D01*
X107395986Y-53173976D01*
X108256434Y-53098293D01*
X109085583Y-52856199D01*
X109851570Y-52456999D01*
X109928088Y-52405872D01*
X110354267Y-51859872D01*
X107442000Y-48947605D01*
X104529733Y-51859872D01*
X100288373Y-51859872D01*
X100204641Y-51684080D01*
X100030588Y-51450731D01*
X99814355Y-51255822D01*
X99697466Y-51186195D01*
X99879632Y-51064475D01*
X100086475Y-50857632D01*
X100248990Y-50614411D01*
X100360932Y-50344158D01*
X100418000Y-50057260D01*
X100418000Y-49764740D01*
X100360932Y-49477842D01*
X100248990Y-49207589D01*
X100086475Y-48964368D01*
X99954620Y-48832513D01*
X100027180Y-48810502D01*
X100137494Y-48751537D01*
X100173502Y-48721986D01*
X103036024Y-48721986D01*
X103111707Y-49582434D01*
X103353801Y-50411583D01*
X103753001Y-51177570D01*
X103804128Y-51254088D01*
X104350128Y-51680267D01*
X107262395Y-48768000D01*
X107621605Y-48768000D01*
X110533872Y-51680267D01*
X111079872Y-51254088D01*
X111494983Y-50496605D01*
X111754339Y-49672693D01*
X111847976Y-48814014D01*
X111772293Y-47953566D01*
X111530199Y-47124417D01*
X111130999Y-46358430D01*
X111079872Y-46281912D01*
X110533872Y-45855733D01*
X107621605Y-48768000D01*
X107262395Y-48768000D01*
X104350128Y-45855733D01*
X103804128Y-46281912D01*
X103389017Y-47039395D01*
X103129661Y-47863307D01*
X103036024Y-48721986D01*
X100173502Y-48721986D01*
X100234185Y-48672185D01*
X100313537Y-48575494D01*
X100372502Y-48465180D01*
X100408812Y-48345482D01*
X100421072Y-48221000D01*
X100421072Y-46521000D01*
X100408812Y-46396518D01*
X100372502Y-46276820D01*
X100313537Y-46166506D01*
X100234185Y-46069815D01*
X100137494Y-45990463D01*
X100027180Y-45931498D01*
X99907482Y-45895188D01*
X99783000Y-45882928D01*
X98083000Y-45882928D01*
X97958518Y-45895188D01*
X97838820Y-45931498D01*
X97728506Y-45990463D01*
X97631815Y-46069815D01*
X97552463Y-46166506D01*
X97493498Y-46276820D01*
X97457188Y-46396518D01*
X97444928Y-46521000D01*
X97444928Y-48221000D01*
X97457188Y-48345482D01*
X97458082Y-48348431D01*
X95720690Y-50085824D01*
X95694415Y-50038000D01*
X94551500Y-50038000D01*
X94551500Y-51181624D01*
X94597254Y-51206616D01*
X94583000Y-51218314D01*
X94559202Y-51247312D01*
X94559201Y-51247313D01*
X94488026Y-51334039D01*
X94442037Y-51420079D01*
X94417454Y-51466068D01*
X94374013Y-51609276D01*
X94319063Y-51664226D01*
X94205795Y-51833744D01*
X94127774Y-52022102D01*
X94088000Y-52222061D01*
X90803000Y-52222061D01*
X90803000Y-50260039D01*
X93032596Y-50260039D01*
X93073254Y-50394087D01*
X93193463Y-50648420D01*
X93360981Y-50874414D01*
X93569369Y-51063385D01*
X93810619Y-51208070D01*
X94075460Y-51302909D01*
X94297500Y-51181624D01*
X94297500Y-50038000D01*
X93154585Y-50038000D01*
X93032596Y-50260039D01*
X90803000Y-50260039D01*
X90803000Y-50162301D01*
X91403340Y-49561961D01*
X93032596Y-49561961D01*
X93154585Y-49784000D01*
X94297500Y-49784000D01*
X94297500Y-48640376D01*
X94551500Y-48640376D01*
X94551500Y-49784000D01*
X95694415Y-49784000D01*
X95816404Y-49561961D01*
X95775746Y-49427913D01*
X95655537Y-49173580D01*
X95488019Y-48947586D01*
X95279631Y-48758615D01*
X95038381Y-48613930D01*
X94773540Y-48519091D01*
X94551500Y-48640376D01*
X94297500Y-48640376D01*
X94075460Y-48519091D01*
X93810619Y-48613930D01*
X93569369Y-48758615D01*
X93360981Y-48947586D01*
X93193463Y-49173580D01*
X93073254Y-49427913D01*
X93032596Y-49561961D01*
X91403340Y-49561961D01*
X94100614Y-46864688D01*
X94283165Y-46901000D01*
X94565835Y-46901000D01*
X94843074Y-46845853D01*
X95104227Y-46737680D01*
X95339259Y-46580637D01*
X95539137Y-46380759D01*
X95696180Y-46145727D01*
X95804353Y-45884574D01*
X95845816Y-45676128D01*
X104529733Y-45676128D01*
X107442000Y-48588395D01*
X110354267Y-45676128D01*
X109928088Y-45130128D01*
X109170605Y-44715017D01*
X108346693Y-44455661D01*
X107488014Y-44362024D01*
X106627566Y-44437707D01*
X105798417Y-44679801D01*
X105032430Y-45079001D01*
X104955912Y-45130128D01*
X104529733Y-45676128D01*
X95845816Y-45676128D01*
X95859500Y-45607335D01*
X95859500Y-45324665D01*
X95804353Y-45047426D01*
X95696180Y-44786273D01*
X95539137Y-44551241D01*
X95339259Y-44351363D01*
X95104227Y-44194320D01*
X94843074Y-44086147D01*
X94565835Y-44031000D01*
X94283165Y-44031000D01*
X94005926Y-44086147D01*
X93744773Y-44194320D01*
X93509741Y-44351363D01*
X93309863Y-44551241D01*
X93152820Y-44786273D01*
X93044647Y-45047426D01*
X92989500Y-45324665D01*
X92989500Y-45607335D01*
X93025812Y-45789886D01*
X89728199Y-49087500D01*
X82333323Y-49087500D01*
X82296000Y-49083824D01*
X82258677Y-49087500D01*
X82258667Y-49087500D01*
X82147014Y-49098497D01*
X82003753Y-49141954D01*
X81871723Y-49212526D01*
X81806563Y-49266002D01*
X81755999Y-49307499D01*
X81732201Y-49336497D01*
X80520699Y-50548000D01*
X80473878Y-50548000D01*
X80564353Y-50329574D01*
X80619500Y-50052335D01*
X80619500Y-49769665D01*
X80564353Y-49492426D01*
X80456180Y-49231273D01*
X80299137Y-48996241D01*
X80099259Y-48796363D01*
X79864227Y-48639320D01*
X79603074Y-48531147D01*
X79325835Y-48476000D01*
X79043165Y-48476000D01*
X78860614Y-48512312D01*
X77081304Y-46733003D01*
X77057501Y-46703999D01*
X76941776Y-46609026D01*
X76809747Y-46538454D01*
X76666486Y-46494997D01*
X76554833Y-46484000D01*
X76554822Y-46484000D01*
X76517500Y-46480324D01*
X76480178Y-46484000D01*
X72935322Y-46484000D01*
X72897999Y-46480324D01*
X72860676Y-46484000D01*
X72860667Y-46484000D01*
X72749014Y-46494997D01*
X72605753Y-46538454D01*
X72478132Y-46606670D01*
X72858802Y-46226000D01*
X77966457Y-46226000D01*
X78069863Y-46380759D01*
X78269741Y-46580637D01*
X78504773Y-46737680D01*
X78765926Y-46845853D01*
X79043165Y-46901000D01*
X79325835Y-46901000D01*
X79603074Y-46845853D01*
X79864227Y-46737680D01*
X80099259Y-46580637D01*
X80299137Y-46380759D01*
X80456180Y-46145727D01*
X80564353Y-45884574D01*
X80619500Y-45607335D01*
X80619500Y-45324665D01*
X80564353Y-45047426D01*
X80456180Y-44786273D01*
X80299137Y-44551241D01*
X80099259Y-44351363D01*
X79864227Y-44194320D01*
X79603074Y-44086147D01*
X79325835Y-44031000D01*
X79043165Y-44031000D01*
X78765926Y-44086147D01*
X78504773Y-44194320D01*
X78269741Y-44351363D01*
X78069863Y-44551241D01*
X77966457Y-44706000D01*
X72581333Y-44706000D01*
X72544000Y-44702323D01*
X72506667Y-44706000D01*
X72395014Y-44716997D01*
X72251753Y-44760454D01*
X72119724Y-44831026D01*
X72003999Y-44925999D01*
X71980201Y-44954997D01*
X68773002Y-48162197D01*
X68743998Y-48186000D01*
X68699221Y-48240562D01*
X68649025Y-48301725D01*
X68610174Y-48374409D01*
X68499458Y-48407994D01*
X68337027Y-48494815D01*
X68194655Y-48611657D01*
X68077813Y-48754029D01*
X67990992Y-48916460D01*
X67937528Y-49092708D01*
X67919475Y-49276000D01*
X67937528Y-49459292D01*
X67990992Y-49635540D01*
X68077813Y-49797971D01*
X68170574Y-49911000D01*
X68077813Y-50024029D01*
X67990992Y-50186460D01*
X67937528Y-50362708D01*
X67919475Y-50546000D01*
X67937528Y-50729292D01*
X67990992Y-50905540D01*
X68077813Y-51067971D01*
X68170574Y-51181000D01*
X68077813Y-51294029D01*
X67990992Y-51456460D01*
X67937528Y-51632708D01*
X67919475Y-51816000D01*
X67937528Y-51999292D01*
X67990992Y-52175540D01*
X68077813Y-52337971D01*
X68170574Y-52451000D01*
X68086455Y-52553499D01*
X67837000Y-52553499D01*
X67837000Y-52412561D01*
X67797226Y-52212602D01*
X67719205Y-52024244D01*
X67605937Y-51854726D01*
X67461774Y-51710563D01*
X67292256Y-51597295D01*
X67103898Y-51519274D01*
X66903939Y-51479500D01*
X66841802Y-51479500D01*
X65627304Y-50265003D01*
X65603501Y-50235999D01*
X65487776Y-50141026D01*
X65355747Y-50070454D01*
X65212486Y-50026997D01*
X65100833Y-50016000D01*
X65100822Y-50016000D01*
X65063500Y-50012324D01*
X65026178Y-50016000D01*
X61670043Y-50016000D01*
X61566637Y-49861241D01*
X61366759Y-49661363D01*
X61131727Y-49504320D01*
X60986275Y-49444072D01*
X61252000Y-49444072D01*
X61376482Y-49431812D01*
X61496180Y-49395502D01*
X61606494Y-49336537D01*
X61703185Y-49257185D01*
X61782537Y-49160494D01*
X61841502Y-49050180D01*
X61877812Y-48930482D01*
X61890072Y-48806000D01*
X61890072Y-47206000D01*
X61877812Y-47081518D01*
X61841502Y-46961820D01*
X61782537Y-46851506D01*
X61703185Y-46754815D01*
X61606494Y-46675463D01*
X61496180Y-46616498D01*
X61376482Y-46580188D01*
X61252000Y-46567928D01*
X59652000Y-46567928D01*
X59527518Y-46580188D01*
X59407820Y-46616498D01*
X59297506Y-46675463D01*
X59200815Y-46754815D01*
X59121463Y-46851506D01*
X59062498Y-46961820D01*
X59026188Y-47081518D01*
X59013928Y-47206000D01*
X59013928Y-48806000D01*
X59026188Y-48930482D01*
X59062498Y-49050180D01*
X59121463Y-49160494D01*
X59200815Y-49257185D01*
X59297506Y-49336537D01*
X59407820Y-49395502D01*
X59527518Y-49431812D01*
X59652000Y-49444072D01*
X59917725Y-49444072D01*
X59772273Y-49504320D01*
X59537241Y-49661363D01*
X59337363Y-49861241D01*
X59180320Y-50096273D01*
X59072147Y-50357426D01*
X59017000Y-50634665D01*
X59017000Y-50917335D01*
X59072147Y-51194574D01*
X59180320Y-51455727D01*
X59337363Y-51690759D01*
X59537241Y-51890637D01*
X59772273Y-52047680D01*
X60033426Y-52155853D01*
X60059301Y-52161000D01*
X60033426Y-52166147D01*
X59772273Y-52274320D01*
X59537241Y-52431363D01*
X59337363Y-52631241D01*
X59180320Y-52866273D01*
X59072147Y-53127426D01*
X59017000Y-53404665D01*
X59017000Y-53687335D01*
X59072147Y-53964574D01*
X59180320Y-54225727D01*
X59337363Y-54460759D01*
X59537241Y-54660637D01*
X59772273Y-54817680D01*
X60033426Y-54925853D01*
X60059301Y-54931000D01*
X60033426Y-54936147D01*
X59772273Y-55044320D01*
X59537241Y-55201363D01*
X59337363Y-55401241D01*
X59180320Y-55636273D01*
X59072147Y-55897426D01*
X59017000Y-56174665D01*
X59017000Y-56457335D01*
X59072147Y-56734574D01*
X59180320Y-56995727D01*
X59337363Y-57230759D01*
X59537241Y-57430637D01*
X59772273Y-57587680D01*
X60033426Y-57695853D01*
X60059301Y-57701000D01*
X60033426Y-57706147D01*
X59772273Y-57814320D01*
X59537241Y-57971363D01*
X59337363Y-58171241D01*
X59180320Y-58406273D01*
X59072147Y-58667426D01*
X59017000Y-58944665D01*
X59017000Y-59210878D01*
X58586351Y-58756045D01*
X58726637Y-58615759D01*
X58883680Y-58380727D01*
X58991853Y-58119574D01*
X59047000Y-57842335D01*
X59047000Y-57559665D01*
X58991853Y-57282426D01*
X58883680Y-57021273D01*
X58726637Y-56786241D01*
X58526759Y-56586363D01*
X58291727Y-56429320D01*
X58030574Y-56321147D01*
X58002118Y-56315487D01*
X58228292Y-56234603D01*
X58353514Y-56167671D01*
X58425097Y-55923702D01*
X57612000Y-55110605D01*
X56798903Y-55923702D01*
X56870486Y-56167671D01*
X57125996Y-56288571D01*
X57228289Y-56314212D01*
X57193426Y-56321147D01*
X56932273Y-56429320D01*
X56697241Y-56586363D01*
X56497363Y-56786241D01*
X56340320Y-57021273D01*
X56232147Y-57282426D01*
X56177000Y-57559665D01*
X56177000Y-57842335D01*
X56232147Y-58119574D01*
X56340320Y-58380727D01*
X56497363Y-58615759D01*
X56697241Y-58815637D01*
X56856452Y-58922018D01*
X56859209Y-58960851D01*
X56861971Y-58970941D01*
X56862997Y-58981355D01*
X56881713Y-59043054D01*
X56898738Y-59105244D01*
X56903417Y-59114603D01*
X56906454Y-59124616D01*
X56936858Y-59181496D01*
X56965680Y-59239151D01*
X56972092Y-59247414D01*
X56977026Y-59256645D01*
X57017939Y-59306498D01*
X57034460Y-59327789D01*
X57041604Y-59335334D01*
X57071999Y-59372371D01*
X57092956Y-59389570D01*
X59028636Y-61433955D01*
X59033011Y-61440596D01*
X59061119Y-61469075D01*
X59062701Y-61471002D01*
X59081739Y-61490040D01*
X59100294Y-61509637D01*
X59106272Y-61514822D01*
X59128690Y-61537536D01*
X59149999Y-61563501D01*
X59265724Y-61658474D01*
X59397753Y-61729046D01*
X59541014Y-61772503D01*
X59652667Y-61783500D01*
X59690000Y-61787177D01*
X59727333Y-61783500D01*
X63693199Y-61783500D01*
X66046698Y-64137000D01*
X65656302Y-64137000D01*
X63682804Y-62163503D01*
X63659001Y-62134499D01*
X63543276Y-62039526D01*
X63411247Y-61968954D01*
X63267986Y-61925497D01*
X63156333Y-61914500D01*
X63156322Y-61914500D01*
X63119000Y-61910824D01*
X63081678Y-61914500D01*
X59052302Y-61914500D01*
X56132000Y-58994199D01*
X56132000Y-55001512D01*
X56171783Y-55001512D01*
X56213213Y-55281130D01*
X56308397Y-55547292D01*
X56375329Y-55672514D01*
X56619298Y-55744097D01*
X57432395Y-54931000D01*
X57791605Y-54931000D01*
X58604702Y-55744097D01*
X58848671Y-55672514D01*
X58969571Y-55417004D01*
X59038300Y-55142816D01*
X59052217Y-54860488D01*
X59010787Y-54580870D01*
X58915603Y-54314708D01*
X58848671Y-54189486D01*
X58604702Y-54117903D01*
X57791605Y-54931000D01*
X57432395Y-54931000D01*
X56619298Y-54117903D01*
X56375329Y-54189486D01*
X56254429Y-54444996D01*
X56185700Y-54719184D01*
X56171783Y-55001512D01*
X56132000Y-55001512D01*
X56132000Y-51945801D01*
X56206515Y-51871287D01*
X56177000Y-52019665D01*
X56177000Y-52302335D01*
X56232147Y-52579574D01*
X56340320Y-52840727D01*
X56497363Y-53075759D01*
X56697241Y-53275637D01*
X56932273Y-53432680D01*
X57193426Y-53540853D01*
X57221882Y-53546513D01*
X56995708Y-53627397D01*
X56870486Y-53694329D01*
X56798903Y-53938298D01*
X57612000Y-54751395D01*
X58425097Y-53938298D01*
X58353514Y-53694329D01*
X58098004Y-53573429D01*
X57995711Y-53547788D01*
X58030574Y-53540853D01*
X58291727Y-53432680D01*
X58526759Y-53275637D01*
X58726637Y-53075759D01*
X58883680Y-52840727D01*
X58991853Y-52579574D01*
X59047000Y-52302335D01*
X59047000Y-52019665D01*
X58991853Y-51742426D01*
X58883680Y-51481273D01*
X58726637Y-51246241D01*
X58526759Y-51046363D01*
X58291727Y-50889320D01*
X58030574Y-50781147D01*
X58004699Y-50776000D01*
X58030574Y-50770853D01*
X58291727Y-50662680D01*
X58526759Y-50505637D01*
X58726637Y-50305759D01*
X58883680Y-50070727D01*
X58991853Y-49809574D01*
X59047000Y-49532335D01*
X59047000Y-49249665D01*
X58991853Y-48972426D01*
X58883680Y-48711273D01*
X58726637Y-48476241D01*
X58526759Y-48276363D01*
X58291727Y-48119320D01*
X58030574Y-48011147D01*
X57753335Y-47956000D01*
X57470665Y-47956000D01*
X57193426Y-48011147D01*
X56932273Y-48119320D01*
X56697241Y-48276363D01*
X56497363Y-48476241D01*
X56340320Y-48711273D01*
X56232147Y-48972426D01*
X56177000Y-49249665D01*
X56177000Y-49532335D01*
X56213312Y-49714886D01*
X54860998Y-51067201D01*
X54832000Y-51090999D01*
X54808202Y-51119997D01*
X54808201Y-51119998D01*
X54737026Y-51206724D01*
X54666454Y-51338754D01*
X54641202Y-51422003D01*
X54622998Y-51482014D01*
X54618887Y-51523753D01*
X54608324Y-51631000D01*
X52857000Y-51631000D01*
X52857000Y-40786475D01*
X57517000Y-40786475D01*
X57517000Y-41305525D01*
X57618261Y-41814601D01*
X57816893Y-42294141D01*
X58105262Y-42725715D01*
X58472285Y-43092738D01*
X58903859Y-43381107D01*
X59383399Y-43579739D01*
X59892475Y-43681000D01*
X60411525Y-43681000D01*
X60920601Y-43579739D01*
X61400141Y-43381107D01*
X61831715Y-43092738D01*
X62198738Y-42725715D01*
X62487107Y-42294141D01*
X62685739Y-41814601D01*
X62787000Y-41305525D01*
X62787000Y-40786475D01*
X62685739Y-40277399D01*
X62487107Y-39797859D01*
X62198738Y-39366285D01*
X61831715Y-38999262D01*
X61400141Y-38710893D01*
X60920601Y-38512261D01*
X60411525Y-38411000D01*
X59892475Y-38411000D01*
X59383399Y-38512261D01*
X58903859Y-38710893D01*
X58472285Y-38999262D01*
X58105262Y-39366285D01*
X57816893Y-39797859D01*
X57618261Y-40277399D01*
X57517000Y-40786475D01*
X52857000Y-40786475D01*
X52857000Y-34569000D01*
X112243000Y-34569000D01*
X112243001Y-72873000D01*
G37*
X112243001Y-72873000D02*
X52857000Y-72873000D01*
X52857000Y-51631000D01*
X54608324Y-51631000D01*
X54612001Y-51668332D01*
X54612000Y-59271678D01*
X54608324Y-59309000D01*
X54612000Y-59346322D01*
X54612000Y-59346332D01*
X54622997Y-59457985D01*
X54648718Y-59542776D01*
X54666454Y-59601246D01*
X54737026Y-59733276D01*
X54763658Y-59765727D01*
X54831999Y-59849001D01*
X54861003Y-59872804D01*
X58173700Y-63185502D01*
X58197499Y-63214501D01*
X58313224Y-63309474D01*
X58445253Y-63380046D01*
X58588514Y-63423503D01*
X58700167Y-63434500D01*
X58700175Y-63434500D01*
X58737500Y-63438176D01*
X58774825Y-63434500D01*
X59774332Y-63434500D01*
X59383399Y-63512261D01*
X58903859Y-63710893D01*
X58472285Y-63999262D01*
X58105262Y-64366285D01*
X57816893Y-64797859D01*
X57618261Y-65277399D01*
X57517000Y-65786475D01*
X57517000Y-66305525D01*
X57618261Y-66814601D01*
X57816893Y-67294141D01*
X58105262Y-67725715D01*
X58472285Y-68092738D01*
X58903859Y-68381107D01*
X59383399Y-68579739D01*
X59892475Y-68681000D01*
X60411525Y-68681000D01*
X60920601Y-68579739D01*
X61400141Y-68381107D01*
X61831715Y-68092738D01*
X62198738Y-67725715D01*
X62487107Y-67294141D01*
X62685739Y-66814601D01*
X62787000Y-66305525D01*
X62787000Y-65786475D01*
X62685739Y-65277399D01*
X62487107Y-64797859D01*
X62198738Y-64366285D01*
X61831715Y-63999262D01*
X61400141Y-63710893D01*
X60920601Y-63512261D01*
X60529668Y-63434500D01*
X62804199Y-63434500D01*
X64777701Y-65408003D01*
X64801499Y-65437001D01*
X64917224Y-65531974D01*
X65049253Y-65602546D01*
X65192514Y-65646003D01*
X65304167Y-65657000D01*
X65304175Y-65657000D01*
X65341500Y-65660676D01*
X65378825Y-65657000D01*
X98387678Y-65657000D01*
X98425000Y-65660676D01*
X98462322Y-65657000D01*
X98462333Y-65657000D01*
X98573986Y-65646003D01*
X98717247Y-65602546D01*
X98849276Y-65531974D01*
X98965001Y-65437001D01*
X98988804Y-65407997D01*
X101920508Y-62476295D01*
X101949501Y-62452501D01*
X101973295Y-62423508D01*
X101973299Y-62423504D01*
X102044473Y-62336777D01*
X102044474Y-62336776D01*
X102115046Y-62204747D01*
X102158503Y-62061486D01*
X102169500Y-61949833D01*
X102169500Y-61949824D01*
X102173176Y-61912501D01*
X102169500Y-61875178D01*
X102169500Y-61638872D01*
X104529733Y-61638872D01*
X104955912Y-62184872D01*
X105713395Y-62599983D01*
X106537307Y-62859339D01*
X107395986Y-62952976D01*
X108256434Y-62877293D01*
X109085583Y-62635199D01*
X109851570Y-62235999D01*
X109928088Y-62184872D01*
X110354267Y-61638872D01*
X107442000Y-58726605D01*
X104529733Y-61638872D01*
X102169500Y-61638872D01*
X102169500Y-58500986D01*
X103036024Y-58500986D01*
X103111707Y-59361434D01*
X103353801Y-60190583D01*
X103753001Y-60956570D01*
X103804128Y-61033088D01*
X104350128Y-61459267D01*
X107262395Y-58547000D01*
X107621605Y-58547000D01*
X110533872Y-61459267D01*
X111079872Y-61033088D01*
X111494983Y-60275605D01*
X111754339Y-59451693D01*
X111847976Y-58593014D01*
X111772293Y-57732566D01*
X111530199Y-56903417D01*
X111130999Y-56137430D01*
X111079872Y-56060912D01*
X110533872Y-55634733D01*
X107621605Y-58547000D01*
X107262395Y-58547000D01*
X104350128Y-55634733D01*
X103804128Y-56060912D01*
X103389017Y-56818395D01*
X103129661Y-57642307D01*
X103036024Y-58500986D01*
X102169500Y-58500986D01*
X102169500Y-55455128D01*
X104529733Y-55455128D01*
X107442000Y-58367395D01*
X110354267Y-55455128D01*
X109928088Y-54909128D01*
X109170605Y-54494017D01*
X108346693Y-54234661D01*
X107488014Y-54141024D01*
X106627566Y-54216707D01*
X105798417Y-54458801D01*
X105032430Y-54858001D01*
X104955912Y-54909128D01*
X104529733Y-55455128D01*
X102169500Y-55455128D01*
X102169500Y-55155322D01*
X102173176Y-55117999D01*
X102169500Y-55080677D01*
X102169500Y-55080667D01*
X102158503Y-54969014D01*
X102115046Y-54825753D01*
X102044474Y-54693724D01*
X101949501Y-54577999D01*
X101920498Y-54554197D01*
X101846304Y-54480003D01*
X101822501Y-54450999D01*
X101706776Y-54356026D01*
X101574747Y-54285454D01*
X101431486Y-54241997D01*
X101319833Y-54231000D01*
X101319822Y-54231000D01*
X101282500Y-54227324D01*
X101245178Y-54231000D01*
X100211178Y-54231000D01*
X100086475Y-54044368D01*
X99879632Y-53837525D01*
X99697466Y-53715805D01*
X99814355Y-53646178D01*
X100030588Y-53451269D01*
X100204641Y-53217920D01*
X100329825Y-52955099D01*
X100374476Y-52807890D01*
X100253155Y-52578000D01*
X99060000Y-52578000D01*
X99060000Y-52598000D01*
X98806000Y-52598000D01*
X98806000Y-52578000D01*
X97612845Y-52578000D01*
X97491524Y-52807890D01*
X97536175Y-52955099D01*
X97661359Y-53217920D01*
X97835412Y-53451269D01*
X98051645Y-53646178D01*
X98168534Y-53715805D01*
X97986368Y-53837525D01*
X97779525Y-54044368D01*
X97617010Y-54287589D01*
X97505068Y-54557842D01*
X97448000Y-54844740D01*
X97448000Y-55137260D01*
X97505068Y-55424158D01*
X97617010Y-55694411D01*
X97779525Y-55937632D01*
X97986368Y-56144475D01*
X98160760Y-56261000D01*
X97986368Y-56377525D01*
X97779525Y-56584368D01*
X97654822Y-56771000D01*
X95706043Y-56771000D01*
X95602637Y-56616241D01*
X95402759Y-56416363D01*
X95167727Y-56259320D01*
X94906574Y-56151147D01*
X94629335Y-56096000D01*
X94346665Y-56096000D01*
X94164114Y-56132312D01*
X91481072Y-53449271D01*
X91481072Y-52921000D01*
X91468812Y-52796518D01*
X91432502Y-52676820D01*
X91373537Y-52566506D01*
X91294185Y-52469815D01*
X91197494Y-52390463D01*
X91087180Y-52331498D01*
X90967482Y-52295188D01*
X90843000Y-52282928D01*
X90803000Y-52282928D01*
X90803000Y-52222061D01*
X94088000Y-52222061D01*
X94088000Y-52425939D01*
X94127774Y-52625898D01*
X94205795Y-52814256D01*
X94319063Y-52983774D01*
X94463226Y-53127937D01*
X94632744Y-53241205D01*
X94821102Y-53319226D01*
X95021061Y-53359000D01*
X95224939Y-53359000D01*
X95424898Y-53319226D01*
X95613256Y-53241205D01*
X95782774Y-53127937D01*
X95926937Y-52983774D01*
X96040205Y-52814256D01*
X96118226Y-52625898D01*
X96158000Y-52425939D01*
X96158000Y-52222061D01*
X96118226Y-52022102D01*
X96064271Y-51891845D01*
X97536375Y-50419741D01*
X97617010Y-50614411D01*
X97779525Y-50857632D01*
X97986368Y-51064475D01*
X98168534Y-51186195D01*
X98051645Y-51255822D01*
X97835412Y-51450731D01*
X97661359Y-51684080D01*
X97536175Y-51946901D01*
X97491524Y-52094110D01*
X97612845Y-52324000D01*
X98806000Y-52324000D01*
X98806000Y-52304000D01*
X99060000Y-52304000D01*
X99060000Y-52324000D01*
X100253155Y-52324000D01*
X100374476Y-52094110D01*
X100329825Y-51946901D01*
X100288373Y-51859872D01*
X104529733Y-51859872D01*
X104955912Y-52405872D01*
X105713395Y-52820983D01*
X106537307Y-53080339D01*
X107395986Y-53173976D01*
X108256434Y-53098293D01*
X109085583Y-52856199D01*
X109851570Y-52456999D01*
X109928088Y-52405872D01*
X110354267Y-51859872D01*
X107442000Y-48947605D01*
X104529733Y-51859872D01*
X100288373Y-51859872D01*
X100204641Y-51684080D01*
X100030588Y-51450731D01*
X99814355Y-51255822D01*
X99697466Y-51186195D01*
X99879632Y-51064475D01*
X100086475Y-50857632D01*
X100248990Y-50614411D01*
X100360932Y-50344158D01*
X100418000Y-50057260D01*
X100418000Y-49764740D01*
X100360932Y-49477842D01*
X100248990Y-49207589D01*
X100086475Y-48964368D01*
X99954620Y-48832513D01*
X100027180Y-48810502D01*
X100137494Y-48751537D01*
X100173502Y-48721986D01*
X103036024Y-48721986D01*
X103111707Y-49582434D01*
X103353801Y-50411583D01*
X103753001Y-51177570D01*
X103804128Y-51254088D01*
X104350128Y-51680267D01*
X107262395Y-48768000D01*
X107621605Y-48768000D01*
X110533872Y-51680267D01*
X111079872Y-51254088D01*
X111494983Y-50496605D01*
X111754339Y-49672693D01*
X111847976Y-48814014D01*
X111772293Y-47953566D01*
X111530199Y-47124417D01*
X111130999Y-46358430D01*
X111079872Y-46281912D01*
X110533872Y-45855733D01*
X107621605Y-48768000D01*
X107262395Y-48768000D01*
X104350128Y-45855733D01*
X103804128Y-46281912D01*
X103389017Y-47039395D01*
X103129661Y-47863307D01*
X103036024Y-48721986D01*
X100173502Y-48721986D01*
X100234185Y-48672185D01*
X100313537Y-48575494D01*
X100372502Y-48465180D01*
X100408812Y-48345482D01*
X100421072Y-48221000D01*
X100421072Y-46521000D01*
X100408812Y-46396518D01*
X100372502Y-46276820D01*
X100313537Y-46166506D01*
X100234185Y-46069815D01*
X100137494Y-45990463D01*
X100027180Y-45931498D01*
X99907482Y-45895188D01*
X99783000Y-45882928D01*
X98083000Y-45882928D01*
X97958518Y-45895188D01*
X97838820Y-45931498D01*
X97728506Y-45990463D01*
X97631815Y-46069815D01*
X97552463Y-46166506D01*
X97493498Y-46276820D01*
X97457188Y-46396518D01*
X97444928Y-46521000D01*
X97444928Y-48221000D01*
X97457188Y-48345482D01*
X97458082Y-48348431D01*
X95720690Y-50085824D01*
X95694415Y-50038000D01*
X94551500Y-50038000D01*
X94551500Y-51181624D01*
X94597254Y-51206616D01*
X94583000Y-51218314D01*
X94559202Y-51247312D01*
X94559201Y-51247313D01*
X94488026Y-51334039D01*
X94442037Y-51420079D01*
X94417454Y-51466068D01*
X94374013Y-51609276D01*
X94319063Y-51664226D01*
X94205795Y-51833744D01*
X94127774Y-52022102D01*
X94088000Y-52222061D01*
X90803000Y-52222061D01*
X90803000Y-50260039D01*
X93032596Y-50260039D01*
X93073254Y-50394087D01*
X93193463Y-50648420D01*
X93360981Y-50874414D01*
X93569369Y-51063385D01*
X93810619Y-51208070D01*
X94075460Y-51302909D01*
X94297500Y-51181624D01*
X94297500Y-50038000D01*
X93154585Y-50038000D01*
X93032596Y-50260039D01*
X90803000Y-50260039D01*
X90803000Y-50162301D01*
X91403340Y-49561961D01*
X93032596Y-49561961D01*
X93154585Y-49784000D01*
X94297500Y-49784000D01*
X94297500Y-48640376D01*
X94551500Y-48640376D01*
X94551500Y-49784000D01*
X95694415Y-49784000D01*
X95816404Y-49561961D01*
X95775746Y-49427913D01*
X95655537Y-49173580D01*
X95488019Y-48947586D01*
X95279631Y-48758615D01*
X95038381Y-48613930D01*
X94773540Y-48519091D01*
X94551500Y-48640376D01*
X94297500Y-48640376D01*
X94075460Y-48519091D01*
X93810619Y-48613930D01*
X93569369Y-48758615D01*
X93360981Y-48947586D01*
X93193463Y-49173580D01*
X93073254Y-49427913D01*
X93032596Y-49561961D01*
X91403340Y-49561961D01*
X94100614Y-46864688D01*
X94283165Y-46901000D01*
X94565835Y-46901000D01*
X94843074Y-46845853D01*
X95104227Y-46737680D01*
X95339259Y-46580637D01*
X95539137Y-46380759D01*
X95696180Y-46145727D01*
X95804353Y-45884574D01*
X95845816Y-45676128D01*
X104529733Y-45676128D01*
X107442000Y-48588395D01*
X110354267Y-45676128D01*
X109928088Y-45130128D01*
X109170605Y-44715017D01*
X108346693Y-44455661D01*
X107488014Y-44362024D01*
X106627566Y-44437707D01*
X105798417Y-44679801D01*
X105032430Y-45079001D01*
X104955912Y-45130128D01*
X104529733Y-45676128D01*
X95845816Y-45676128D01*
X95859500Y-45607335D01*
X95859500Y-45324665D01*
X95804353Y-45047426D01*
X95696180Y-44786273D01*
X95539137Y-44551241D01*
X95339259Y-44351363D01*
X95104227Y-44194320D01*
X94843074Y-44086147D01*
X94565835Y-44031000D01*
X94283165Y-44031000D01*
X94005926Y-44086147D01*
X93744773Y-44194320D01*
X93509741Y-44351363D01*
X93309863Y-44551241D01*
X93152820Y-44786273D01*
X93044647Y-45047426D01*
X92989500Y-45324665D01*
X92989500Y-45607335D01*
X93025812Y-45789886D01*
X89728199Y-49087500D01*
X82333323Y-49087500D01*
X82296000Y-49083824D01*
X82258677Y-49087500D01*
X82258667Y-49087500D01*
X82147014Y-49098497D01*
X82003753Y-49141954D01*
X81871723Y-49212526D01*
X81806563Y-49266002D01*
X81755999Y-49307499D01*
X81732201Y-49336497D01*
X80520699Y-50548000D01*
X80473878Y-50548000D01*
X80564353Y-50329574D01*
X80619500Y-50052335D01*
X80619500Y-49769665D01*
X80564353Y-49492426D01*
X80456180Y-49231273D01*
X80299137Y-48996241D01*
X80099259Y-48796363D01*
X79864227Y-48639320D01*
X79603074Y-48531147D01*
X79325835Y-48476000D01*
X79043165Y-48476000D01*
X78860614Y-48512312D01*
X77081304Y-46733003D01*
X77057501Y-46703999D01*
X76941776Y-46609026D01*
X76809747Y-46538454D01*
X76666486Y-46494997D01*
X76554833Y-46484000D01*
X76554822Y-46484000D01*
X76517500Y-46480324D01*
X76480178Y-46484000D01*
X72935322Y-46484000D01*
X72897999Y-46480324D01*
X72860676Y-46484000D01*
X72860667Y-46484000D01*
X72749014Y-46494997D01*
X72605753Y-46538454D01*
X72478132Y-46606670D01*
X72858802Y-46226000D01*
X77966457Y-46226000D01*
X78069863Y-46380759D01*
X78269741Y-46580637D01*
X78504773Y-46737680D01*
X78765926Y-46845853D01*
X79043165Y-46901000D01*
X79325835Y-46901000D01*
X79603074Y-46845853D01*
X79864227Y-46737680D01*
X80099259Y-46580637D01*
X80299137Y-46380759D01*
X80456180Y-46145727D01*
X80564353Y-45884574D01*
X80619500Y-45607335D01*
X80619500Y-45324665D01*
X80564353Y-45047426D01*
X80456180Y-44786273D01*
X80299137Y-44551241D01*
X80099259Y-44351363D01*
X79864227Y-44194320D01*
X79603074Y-44086147D01*
X79325835Y-44031000D01*
X79043165Y-44031000D01*
X78765926Y-44086147D01*
X78504773Y-44194320D01*
X78269741Y-44351363D01*
X78069863Y-44551241D01*
X77966457Y-44706000D01*
X72581333Y-44706000D01*
X72544000Y-44702323D01*
X72506667Y-44706000D01*
X72395014Y-44716997D01*
X72251753Y-44760454D01*
X72119724Y-44831026D01*
X72003999Y-44925999D01*
X71980201Y-44954997D01*
X68773002Y-48162197D01*
X68743998Y-48186000D01*
X68699221Y-48240562D01*
X68649025Y-48301725D01*
X68610174Y-48374409D01*
X68499458Y-48407994D01*
X68337027Y-48494815D01*
X68194655Y-48611657D01*
X68077813Y-48754029D01*
X67990992Y-48916460D01*
X67937528Y-49092708D01*
X67919475Y-49276000D01*
X67937528Y-49459292D01*
X67990992Y-49635540D01*
X68077813Y-49797971D01*
X68170574Y-49911000D01*
X68077813Y-50024029D01*
X67990992Y-50186460D01*
X67937528Y-50362708D01*
X67919475Y-50546000D01*
X67937528Y-50729292D01*
X67990992Y-50905540D01*
X68077813Y-51067971D01*
X68170574Y-51181000D01*
X68077813Y-51294029D01*
X67990992Y-51456460D01*
X67937528Y-51632708D01*
X67919475Y-51816000D01*
X67937528Y-51999292D01*
X67990992Y-52175540D01*
X68077813Y-52337971D01*
X68170574Y-52451000D01*
X68086455Y-52553499D01*
X67837000Y-52553499D01*
X67837000Y-52412561D01*
X67797226Y-52212602D01*
X67719205Y-52024244D01*
X67605937Y-51854726D01*
X67461774Y-51710563D01*
X67292256Y-51597295D01*
X67103898Y-51519274D01*
X66903939Y-51479500D01*
X66841802Y-51479500D01*
X65627304Y-50265003D01*
X65603501Y-50235999D01*
X65487776Y-50141026D01*
X65355747Y-50070454D01*
X65212486Y-50026997D01*
X65100833Y-50016000D01*
X65100822Y-50016000D01*
X65063500Y-50012324D01*
X65026178Y-50016000D01*
X61670043Y-50016000D01*
X61566637Y-49861241D01*
X61366759Y-49661363D01*
X61131727Y-49504320D01*
X60986275Y-49444072D01*
X61252000Y-49444072D01*
X61376482Y-49431812D01*
X61496180Y-49395502D01*
X61606494Y-49336537D01*
X61703185Y-49257185D01*
X61782537Y-49160494D01*
X61841502Y-49050180D01*
X61877812Y-48930482D01*
X61890072Y-48806000D01*
X61890072Y-47206000D01*
X61877812Y-47081518D01*
X61841502Y-46961820D01*
X61782537Y-46851506D01*
X61703185Y-46754815D01*
X61606494Y-46675463D01*
X61496180Y-46616498D01*
X61376482Y-46580188D01*
X61252000Y-46567928D01*
X59652000Y-46567928D01*
X59527518Y-46580188D01*
X59407820Y-46616498D01*
X59297506Y-46675463D01*
X59200815Y-46754815D01*
X59121463Y-46851506D01*
X59062498Y-46961820D01*
X59026188Y-47081518D01*
X59013928Y-47206000D01*
X59013928Y-48806000D01*
X59026188Y-48930482D01*
X59062498Y-49050180D01*
X59121463Y-49160494D01*
X59200815Y-49257185D01*
X59297506Y-49336537D01*
X59407820Y-49395502D01*
X59527518Y-49431812D01*
X59652000Y-49444072D01*
X59917725Y-49444072D01*
X59772273Y-49504320D01*
X59537241Y-49661363D01*
X59337363Y-49861241D01*
X59180320Y-50096273D01*
X59072147Y-50357426D01*
X59017000Y-50634665D01*
X59017000Y-50917335D01*
X59072147Y-51194574D01*
X59180320Y-51455727D01*
X59337363Y-51690759D01*
X59537241Y-51890637D01*
X59772273Y-52047680D01*
X60033426Y-52155853D01*
X60059301Y-52161000D01*
X60033426Y-52166147D01*
X59772273Y-52274320D01*
X59537241Y-52431363D01*
X59337363Y-52631241D01*
X59180320Y-52866273D01*
X59072147Y-53127426D01*
X59017000Y-53404665D01*
X59017000Y-53687335D01*
X59072147Y-53964574D01*
X59180320Y-54225727D01*
X59337363Y-54460759D01*
X59537241Y-54660637D01*
X59772273Y-54817680D01*
X60033426Y-54925853D01*
X60059301Y-54931000D01*
X60033426Y-54936147D01*
X59772273Y-55044320D01*
X59537241Y-55201363D01*
X59337363Y-55401241D01*
X59180320Y-55636273D01*
X59072147Y-55897426D01*
X59017000Y-56174665D01*
X59017000Y-56457335D01*
X59072147Y-56734574D01*
X59180320Y-56995727D01*
X59337363Y-57230759D01*
X59537241Y-57430637D01*
X59772273Y-57587680D01*
X60033426Y-57695853D01*
X60059301Y-57701000D01*
X60033426Y-57706147D01*
X59772273Y-57814320D01*
X59537241Y-57971363D01*
X59337363Y-58171241D01*
X59180320Y-58406273D01*
X59072147Y-58667426D01*
X59017000Y-58944665D01*
X59017000Y-59210878D01*
X58586351Y-58756045D01*
X58726637Y-58615759D01*
X58883680Y-58380727D01*
X58991853Y-58119574D01*
X59047000Y-57842335D01*
X59047000Y-57559665D01*
X58991853Y-57282426D01*
X58883680Y-57021273D01*
X58726637Y-56786241D01*
X58526759Y-56586363D01*
X58291727Y-56429320D01*
X58030574Y-56321147D01*
X58002118Y-56315487D01*
X58228292Y-56234603D01*
X58353514Y-56167671D01*
X58425097Y-55923702D01*
X57612000Y-55110605D01*
X56798903Y-55923702D01*
X56870486Y-56167671D01*
X57125996Y-56288571D01*
X57228289Y-56314212D01*
X57193426Y-56321147D01*
X56932273Y-56429320D01*
X56697241Y-56586363D01*
X56497363Y-56786241D01*
X56340320Y-57021273D01*
X56232147Y-57282426D01*
X56177000Y-57559665D01*
X56177000Y-57842335D01*
X56232147Y-58119574D01*
X56340320Y-58380727D01*
X56497363Y-58615759D01*
X56697241Y-58815637D01*
X56856452Y-58922018D01*
X56859209Y-58960851D01*
X56861971Y-58970941D01*
X56862997Y-58981355D01*
X56881713Y-59043054D01*
X56898738Y-59105244D01*
X56903417Y-59114603D01*
X56906454Y-59124616D01*
X56936858Y-59181496D01*
X56965680Y-59239151D01*
X56972092Y-59247414D01*
X56977026Y-59256645D01*
X57017939Y-59306498D01*
X57034460Y-59327789D01*
X57041604Y-59335334D01*
X57071999Y-59372371D01*
X57092956Y-59389570D01*
X59028636Y-61433955D01*
X59033011Y-61440596D01*
X59061119Y-61469075D01*
X59062701Y-61471002D01*
X59081739Y-61490040D01*
X59100294Y-61509637D01*
X59106272Y-61514822D01*
X59128690Y-61537536D01*
X59149999Y-61563501D01*
X59265724Y-61658474D01*
X59397753Y-61729046D01*
X59541014Y-61772503D01*
X59652667Y-61783500D01*
X59690000Y-61787177D01*
X59727333Y-61783500D01*
X63693199Y-61783500D01*
X66046698Y-64137000D01*
X65656302Y-64137000D01*
X63682804Y-62163503D01*
X63659001Y-62134499D01*
X63543276Y-62039526D01*
X63411247Y-61968954D01*
X63267986Y-61925497D01*
X63156333Y-61914500D01*
X63156322Y-61914500D01*
X63119000Y-61910824D01*
X63081678Y-61914500D01*
X59052302Y-61914500D01*
X56132000Y-58994199D01*
X56132000Y-55001512D01*
X56171783Y-55001512D01*
X56213213Y-55281130D01*
X56308397Y-55547292D01*
X56375329Y-55672514D01*
X56619298Y-55744097D01*
X57432395Y-54931000D01*
X57791605Y-54931000D01*
X58604702Y-55744097D01*
X58848671Y-55672514D01*
X58969571Y-55417004D01*
X59038300Y-55142816D01*
X59052217Y-54860488D01*
X59010787Y-54580870D01*
X58915603Y-54314708D01*
X58848671Y-54189486D01*
X58604702Y-54117903D01*
X57791605Y-54931000D01*
X57432395Y-54931000D01*
X56619298Y-54117903D01*
X56375329Y-54189486D01*
X56254429Y-54444996D01*
X56185700Y-54719184D01*
X56171783Y-55001512D01*
X56132000Y-55001512D01*
X56132000Y-51945801D01*
X56206515Y-51871287D01*
X56177000Y-52019665D01*
X56177000Y-52302335D01*
X56232147Y-52579574D01*
X56340320Y-52840727D01*
X56497363Y-53075759D01*
X56697241Y-53275637D01*
X56932273Y-53432680D01*
X57193426Y-53540853D01*
X57221882Y-53546513D01*
X56995708Y-53627397D01*
X56870486Y-53694329D01*
X56798903Y-53938298D01*
X57612000Y-54751395D01*
X58425097Y-53938298D01*
X58353514Y-53694329D01*
X58098004Y-53573429D01*
X57995711Y-53547788D01*
X58030574Y-53540853D01*
X58291727Y-53432680D01*
X58526759Y-53275637D01*
X58726637Y-53075759D01*
X58883680Y-52840727D01*
X58991853Y-52579574D01*
X59047000Y-52302335D01*
X59047000Y-52019665D01*
X58991853Y-51742426D01*
X58883680Y-51481273D01*
X58726637Y-51246241D01*
X58526759Y-51046363D01*
X58291727Y-50889320D01*
X58030574Y-50781147D01*
X58004699Y-50776000D01*
X58030574Y-50770853D01*
X58291727Y-50662680D01*
X58526759Y-50505637D01*
X58726637Y-50305759D01*
X58883680Y-50070727D01*
X58991853Y-49809574D01*
X59047000Y-49532335D01*
X59047000Y-49249665D01*
X58991853Y-48972426D01*
X58883680Y-48711273D01*
X58726637Y-48476241D01*
X58526759Y-48276363D01*
X58291727Y-48119320D01*
X58030574Y-48011147D01*
X57753335Y-47956000D01*
X57470665Y-47956000D01*
X57193426Y-48011147D01*
X56932273Y-48119320D01*
X56697241Y-48276363D01*
X56497363Y-48476241D01*
X56340320Y-48711273D01*
X56232147Y-48972426D01*
X56177000Y-49249665D01*
X56177000Y-49532335D01*
X56213312Y-49714886D01*
X54860998Y-51067201D01*
X54832000Y-51090999D01*
X54808202Y-51119997D01*
X54808201Y-51119998D01*
X54737026Y-51206724D01*
X54666454Y-51338754D01*
X54641202Y-51422003D01*
X54622998Y-51482014D01*
X54618887Y-51523753D01*
X54608324Y-51631000D01*
X52857000Y-51631000D01*
X52857000Y-40786475D01*
X57517000Y-40786475D01*
X57517000Y-41305525D01*
X57618261Y-41814601D01*
X57816893Y-42294141D01*
X58105262Y-42725715D01*
X58472285Y-43092738D01*
X58903859Y-43381107D01*
X59383399Y-43579739D01*
X59892475Y-43681000D01*
X60411525Y-43681000D01*
X60920601Y-43579739D01*
X61400141Y-43381107D01*
X61831715Y-43092738D01*
X62198738Y-42725715D01*
X62487107Y-42294141D01*
X62685739Y-41814601D01*
X62787000Y-41305525D01*
X62787000Y-40786475D01*
X62685739Y-40277399D01*
X62487107Y-39797859D01*
X62198738Y-39366285D01*
X61831715Y-38999262D01*
X61400141Y-38710893D01*
X60920601Y-38512261D01*
X60411525Y-38411000D01*
X59892475Y-38411000D01*
X59383399Y-38512261D01*
X58903859Y-38710893D01*
X58472285Y-38999262D01*
X58105262Y-39366285D01*
X57816893Y-39797859D01*
X57618261Y-40277399D01*
X57517000Y-40786475D01*
X52857000Y-40786475D01*
X52857000Y-34569000D01*
X112243000Y-34569000D01*
X112243001Y-72873000D01*
G36*
X65489274Y-54340398D02*
G01*
X65567295Y-54528756D01*
X65680563Y-54698274D01*
X65824726Y-54842437D01*
X65994244Y-54955705D01*
X66182602Y-55033726D01*
X66382561Y-55073500D01*
X66444699Y-55073500D01*
X67508200Y-56137002D01*
X67531999Y-56166001D01*
X67560997Y-56189799D01*
X67647723Y-56260974D01*
X67737382Y-56308898D01*
X67779753Y-56331546D01*
X67923014Y-56375003D01*
X68034667Y-56386000D01*
X68034676Y-56386000D01*
X68068219Y-56389304D01*
X68011018Y-56482138D01*
X67963936Y-56625653D01*
X68093209Y-56769000D01*
X69156999Y-56769000D01*
X69156999Y-56749000D01*
X69410999Y-56749000D01*
X69410999Y-56769000D01*
X70474789Y-56769000D01*
X70511970Y-56727771D01*
X72561500Y-58777303D01*
X72561500Y-58839439D01*
X72601274Y-59039398D01*
X72679295Y-59227756D01*
X72792563Y-59397274D01*
X72936726Y-59541437D01*
X73106244Y-59654705D01*
X73294602Y-59732726D01*
X73494561Y-59772500D01*
X73698439Y-59772500D01*
X73898398Y-59732726D01*
X74086756Y-59654705D01*
X74256274Y-59541437D01*
X74400437Y-59397274D01*
X74513705Y-59227756D01*
X74591726Y-59039398D01*
X74631500Y-58839439D01*
X74631500Y-58815301D01*
X77849312Y-62033114D01*
X77813000Y-62215665D01*
X77813000Y-62498335D01*
X77868147Y-62775574D01*
X77976320Y-63036727D01*
X78133363Y-63271759D01*
X78300104Y-63438500D01*
X67497802Y-63438500D01*
X64571804Y-60512503D01*
X64548001Y-60483499D01*
X64432276Y-60388526D01*
X64300247Y-60317954D01*
X64156986Y-60274497D01*
X64045333Y-60263500D01*
X64045322Y-60263500D01*
X64008000Y-60259824D01*
X63970678Y-60263500D01*
X61272678Y-60263500D01*
X61366759Y-60200637D01*
X61566637Y-60000759D01*
X61723680Y-59765727D01*
X61831853Y-59504574D01*
X61887000Y-59227335D01*
X61887000Y-58944665D01*
X61831853Y-58667426D01*
X61723680Y-58406273D01*
X61566637Y-58171241D01*
X61366759Y-57971363D01*
X61131727Y-57814320D01*
X60870574Y-57706147D01*
X60844699Y-57701000D01*
X60870574Y-57695853D01*
X61131727Y-57587680D01*
X61366759Y-57430637D01*
X61566637Y-57230759D01*
X61609675Y-57166347D01*
X67963936Y-57166347D01*
X68011018Y-57309862D01*
X68108052Y-57467342D01*
X68233944Y-57602866D01*
X68383857Y-57711226D01*
X68552029Y-57788257D01*
X68731998Y-57830999D01*
X69156999Y-57830999D01*
X69156999Y-57023000D01*
X69410999Y-57023000D01*
X69410999Y-57830999D01*
X69836000Y-57830999D01*
X70015969Y-57788257D01*
X70184141Y-57711226D01*
X70334054Y-57602866D01*
X70459946Y-57467342D01*
X70556980Y-57309862D01*
X70604062Y-57166347D01*
X70474789Y-57023000D01*
X69410999Y-57023000D01*
X69156999Y-57023000D01*
X68093209Y-57023000D01*
X67963936Y-57166347D01*
X61609675Y-57166347D01*
X61670043Y-57076000D01*
X65185678Y-57076000D01*
X65223000Y-57079676D01*
X65260322Y-57076000D01*
X65260333Y-57076000D01*
X65371986Y-57065003D01*
X65447818Y-57042000D01*
X65633939Y-57042000D01*
X65833898Y-57002226D01*
X66022256Y-56924205D01*
X66191774Y-56810937D01*
X66335937Y-56666774D01*
X66449205Y-56497256D01*
X66527226Y-56308898D01*
X66567000Y-56108939D01*
X66567000Y-55905061D01*
X66527226Y-55705102D01*
X66449205Y-55516744D01*
X66335937Y-55347226D01*
X66191774Y-55203063D01*
X66022256Y-55089795D01*
X65833898Y-55011774D01*
X65633939Y-54972000D01*
X65430061Y-54972000D01*
X65230102Y-55011774D01*
X65041744Y-55089795D01*
X64872226Y-55203063D01*
X64728063Y-55347226D01*
X64614795Y-55516744D01*
X64598535Y-55556000D01*
X61670043Y-55556000D01*
X61566637Y-55401241D01*
X61366759Y-55201363D01*
X61131727Y-55044320D01*
X60870574Y-54936147D01*
X60844699Y-54931000D01*
X60870574Y-54925853D01*
X61131727Y-54817680D01*
X61366759Y-54660637D01*
X61566637Y-54460759D01*
X61670043Y-54306000D01*
X65482432Y-54306000D01*
X65489274Y-54340398D01*
G37*
X65489274Y-54340398D02*
X65567295Y-54528756D01*
X65680563Y-54698274D01*
X65824726Y-54842437D01*
X65994244Y-54955705D01*
X66182602Y-55033726D01*
X66382561Y-55073500D01*
X66444699Y-55073500D01*
X67508200Y-56137002D01*
X67531999Y-56166001D01*
X67560997Y-56189799D01*
X67647723Y-56260974D01*
X67737382Y-56308898D01*
X67779753Y-56331546D01*
X67923014Y-56375003D01*
X68034667Y-56386000D01*
X68034676Y-56386000D01*
X68068219Y-56389304D01*
X68011018Y-56482138D01*
X67963936Y-56625653D01*
X68093209Y-56769000D01*
X69156999Y-56769000D01*
X69156999Y-56749000D01*
X69410999Y-56749000D01*
X69410999Y-56769000D01*
X70474789Y-56769000D01*
X70511970Y-56727771D01*
X72561500Y-58777303D01*
X72561500Y-58839439D01*
X72601274Y-59039398D01*
X72679295Y-59227756D01*
X72792563Y-59397274D01*
X72936726Y-59541437D01*
X73106244Y-59654705D01*
X73294602Y-59732726D01*
X73494561Y-59772500D01*
X73698439Y-59772500D01*
X73898398Y-59732726D01*
X74086756Y-59654705D01*
X74256274Y-59541437D01*
X74400437Y-59397274D01*
X74513705Y-59227756D01*
X74591726Y-59039398D01*
X74631500Y-58839439D01*
X74631500Y-58815301D01*
X77849312Y-62033114D01*
X77813000Y-62215665D01*
X77813000Y-62498335D01*
X77868147Y-62775574D01*
X77976320Y-63036727D01*
X78133363Y-63271759D01*
X78300104Y-63438500D01*
X67497802Y-63438500D01*
X64571804Y-60512503D01*
X64548001Y-60483499D01*
X64432276Y-60388526D01*
X64300247Y-60317954D01*
X64156986Y-60274497D01*
X64045333Y-60263500D01*
X64045322Y-60263500D01*
X64008000Y-60259824D01*
X63970678Y-60263500D01*
X61272678Y-60263500D01*
X61366759Y-60200637D01*
X61566637Y-60000759D01*
X61723680Y-59765727D01*
X61831853Y-59504574D01*
X61887000Y-59227335D01*
X61887000Y-58944665D01*
X61831853Y-58667426D01*
X61723680Y-58406273D01*
X61566637Y-58171241D01*
X61366759Y-57971363D01*
X61131727Y-57814320D01*
X60870574Y-57706147D01*
X60844699Y-57701000D01*
X60870574Y-57695853D01*
X61131727Y-57587680D01*
X61366759Y-57430637D01*
X61566637Y-57230759D01*
X61609675Y-57166347D01*
X67963936Y-57166347D01*
X68011018Y-57309862D01*
X68108052Y-57467342D01*
X68233944Y-57602866D01*
X68383857Y-57711226D01*
X68552029Y-57788257D01*
X68731998Y-57830999D01*
X69156999Y-57830999D01*
X69156999Y-57023000D01*
X69410999Y-57023000D01*
X69410999Y-57830999D01*
X69836000Y-57830999D01*
X70015969Y-57788257D01*
X70184141Y-57711226D01*
X70334054Y-57602866D01*
X70459946Y-57467342D01*
X70556980Y-57309862D01*
X70604062Y-57166347D01*
X70474789Y-57023000D01*
X69410999Y-57023000D01*
X69156999Y-57023000D01*
X68093209Y-57023000D01*
X67963936Y-57166347D01*
X61609675Y-57166347D01*
X61670043Y-57076000D01*
X65185678Y-57076000D01*
X65223000Y-57079676D01*
X65260322Y-57076000D01*
X65260333Y-57076000D01*
X65371986Y-57065003D01*
X65447818Y-57042000D01*
X65633939Y-57042000D01*
X65833898Y-57002226D01*
X66022256Y-56924205D01*
X66191774Y-56810937D01*
X66335937Y-56666774D01*
X66449205Y-56497256D01*
X66527226Y-56308898D01*
X66567000Y-56108939D01*
X66567000Y-55905061D01*
X66527226Y-55705102D01*
X66449205Y-55516744D01*
X66335937Y-55347226D01*
X66191774Y-55203063D01*
X66022256Y-55089795D01*
X65833898Y-55011774D01*
X65633939Y-54972000D01*
X65430061Y-54972000D01*
X65230102Y-55011774D01*
X65041744Y-55089795D01*
X64872226Y-55203063D01*
X64728063Y-55347226D01*
X64614795Y-55516744D01*
X64598535Y-55556000D01*
X61670043Y-55556000D01*
X61566637Y-55401241D01*
X61366759Y-55201363D01*
X61131727Y-55044320D01*
X60870574Y-54936147D01*
X60844699Y-54931000D01*
X60870574Y-54925853D01*
X61131727Y-54817680D01*
X61366759Y-54660637D01*
X61566637Y-54460759D01*
X61670043Y-54306000D01*
X65482432Y-54306000D01*
X65489274Y-54340398D01*
G36*
X76837000Y-57147302D02*
G01*
X76837001Y-58128668D01*
X76833324Y-58166000D01*
X76837001Y-58203333D01*
X76844553Y-58280003D01*
X76847998Y-58314985D01*
X76891454Y-58458246D01*
X76962026Y-58590276D01*
X77057000Y-58706001D01*
X77085998Y-58729799D01*
X77985705Y-59629508D01*
X78009499Y-59658501D01*
X78038492Y-59682295D01*
X78038496Y-59682299D01*
X78099942Y-59732726D01*
X78125224Y-59753474D01*
X78257253Y-59824046D01*
X78400514Y-59867503D01*
X78512167Y-59878500D01*
X78512176Y-59878500D01*
X78549499Y-59882176D01*
X78586822Y-59878500D01*
X90196178Y-59878500D01*
X90233500Y-59882176D01*
X90270822Y-59878500D01*
X90270833Y-59878500D01*
X90382486Y-59867503D01*
X90525747Y-59824046D01*
X90657776Y-59753474D01*
X90773501Y-59658501D01*
X90797304Y-59629497D01*
X92051302Y-58375500D01*
X92113439Y-58375500D01*
X92313398Y-58335726D01*
X92501756Y-58257705D01*
X92671274Y-58144437D01*
X92815437Y-58000274D01*
X92928705Y-57830756D01*
X93006726Y-57642398D01*
X93046500Y-57442439D01*
X93046500Y-57238561D01*
X93028061Y-57145863D01*
X93089312Y-57207114D01*
X93053000Y-57389665D01*
X93053000Y-57672335D01*
X93108147Y-57949574D01*
X93216320Y-58210727D01*
X93373363Y-58445759D01*
X93573241Y-58645637D01*
X93808273Y-58802680D01*
X94069426Y-58910853D01*
X94346665Y-58966000D01*
X94629335Y-58966000D01*
X94906574Y-58910853D01*
X95167727Y-58802680D01*
X95402759Y-58645637D01*
X95602637Y-58445759D01*
X95706043Y-58291000D01*
X97654822Y-58291000D01*
X97779525Y-58477632D01*
X97986368Y-58684475D01*
X98160760Y-58801000D01*
X97986368Y-58917525D01*
X97779525Y-59124368D01*
X97617010Y-59367589D01*
X97505068Y-59637842D01*
X97448000Y-59924740D01*
X97448000Y-60217260D01*
X97492749Y-60442229D01*
X97448027Y-60496723D01*
X97417830Y-60553217D01*
X97377455Y-60628753D01*
X97333998Y-60772014D01*
X97323001Y-60883667D01*
X97323001Y-60883677D01*
X97319325Y-60920999D01*
X97323001Y-60958321D01*
X97323001Y-61368197D01*
X95828611Y-62862587D01*
X95839246Y-62840087D01*
X95879904Y-62706039D01*
X95757915Y-62484000D01*
X94615000Y-62484000D01*
X94615000Y-62504000D01*
X94361000Y-62504000D01*
X94361000Y-62484000D01*
X93218085Y-62484000D01*
X93096096Y-62706039D01*
X93136754Y-62840087D01*
X93256963Y-63094420D01*
X93424481Y-63320414D01*
X93554700Y-63438500D01*
X80195896Y-63438500D01*
X80362637Y-63271759D01*
X80519680Y-63036727D01*
X80627853Y-62775574D01*
X80683000Y-62498335D01*
X80683000Y-62215665D01*
X80641685Y-62007961D01*
X93096096Y-62007961D01*
X93218085Y-62230000D01*
X94361000Y-62230000D01*
X94361000Y-61086376D01*
X94615000Y-61086376D01*
X94615000Y-62230000D01*
X95757915Y-62230000D01*
X95879904Y-62007961D01*
X95839246Y-61873913D01*
X95719037Y-61619580D01*
X95551519Y-61393586D01*
X95343131Y-61204615D01*
X95101881Y-61059930D01*
X94837040Y-60965091D01*
X94615000Y-61086376D01*
X94361000Y-61086376D01*
X94138960Y-60965091D01*
X93874119Y-61059930D01*
X93632869Y-61204615D01*
X93424481Y-61393586D01*
X93256963Y-61619580D01*
X93136754Y-61873913D01*
X93096096Y-62007961D01*
X80641685Y-62007961D01*
X80627853Y-61938426D01*
X80519680Y-61677273D01*
X80362637Y-61442241D01*
X80162759Y-61242363D01*
X79927727Y-61085320D01*
X79666574Y-60977147D01*
X79389335Y-60922000D01*
X79106665Y-60922000D01*
X78924114Y-60958312D01*
X75656217Y-57690416D01*
X75680970Y-57677185D01*
X75823342Y-57560343D01*
X75940184Y-57417971D01*
X76027005Y-57255540D01*
X76080469Y-57079292D01*
X76098522Y-56896000D01*
X76080469Y-56712708D01*
X76027005Y-56536460D01*
X75940184Y-56374029D01*
X75847423Y-56261000D01*
X75893975Y-56204277D01*
X76837000Y-57147302D01*
G37*
X76837000Y-57147302D02*
X76837001Y-58128668D01*
X76833324Y-58166000D01*
X76837001Y-58203333D01*
X76844553Y-58280003D01*
X76847998Y-58314985D01*
X76891454Y-58458246D01*
X76962026Y-58590276D01*
X77057000Y-58706001D01*
X77085998Y-58729799D01*
X77985705Y-59629508D01*
X78009499Y-59658501D01*
X78038492Y-59682295D01*
X78038496Y-59682299D01*
X78099942Y-59732726D01*
X78125224Y-59753474D01*
X78257253Y-59824046D01*
X78400514Y-59867503D01*
X78512167Y-59878500D01*
X78512176Y-59878500D01*
X78549499Y-59882176D01*
X78586822Y-59878500D01*
X90196178Y-59878500D01*
X90233500Y-59882176D01*
X90270822Y-59878500D01*
X90270833Y-59878500D01*
X90382486Y-59867503D01*
X90525747Y-59824046D01*
X90657776Y-59753474D01*
X90773501Y-59658501D01*
X90797304Y-59629497D01*
X92051302Y-58375500D01*
X92113439Y-58375500D01*
X92313398Y-58335726D01*
X92501756Y-58257705D01*
X92671274Y-58144437D01*
X92815437Y-58000274D01*
X92928705Y-57830756D01*
X93006726Y-57642398D01*
X93046500Y-57442439D01*
X93046500Y-57238561D01*
X93028061Y-57145863D01*
X93089312Y-57207114D01*
X93053000Y-57389665D01*
X93053000Y-57672335D01*
X93108147Y-57949574D01*
X93216320Y-58210727D01*
X93373363Y-58445759D01*
X93573241Y-58645637D01*
X93808273Y-58802680D01*
X94069426Y-58910853D01*
X94346665Y-58966000D01*
X94629335Y-58966000D01*
X94906574Y-58910853D01*
X95167727Y-58802680D01*
X95402759Y-58645637D01*
X95602637Y-58445759D01*
X95706043Y-58291000D01*
X97654822Y-58291000D01*
X97779525Y-58477632D01*
X97986368Y-58684475D01*
X98160760Y-58801000D01*
X97986368Y-58917525D01*
X97779525Y-59124368D01*
X97617010Y-59367589D01*
X97505068Y-59637842D01*
X97448000Y-59924740D01*
X97448000Y-60217260D01*
X97492749Y-60442229D01*
X97448027Y-60496723D01*
X97417830Y-60553217D01*
X97377455Y-60628753D01*
X97333998Y-60772014D01*
X97323001Y-60883667D01*
X97323001Y-60883677D01*
X97319325Y-60920999D01*
X97323001Y-60958321D01*
X97323001Y-61368197D01*
X95828611Y-62862587D01*
X95839246Y-62840087D01*
X95879904Y-62706039D01*
X95757915Y-62484000D01*
X94615000Y-62484000D01*
X94615000Y-62504000D01*
X94361000Y-62504000D01*
X94361000Y-62484000D01*
X93218085Y-62484000D01*
X93096096Y-62706039D01*
X93136754Y-62840087D01*
X93256963Y-63094420D01*
X93424481Y-63320414D01*
X93554700Y-63438500D01*
X80195896Y-63438500D01*
X80362637Y-63271759D01*
X80519680Y-63036727D01*
X80627853Y-62775574D01*
X80683000Y-62498335D01*
X80683000Y-62215665D01*
X80641685Y-62007961D01*
X93096096Y-62007961D01*
X93218085Y-62230000D01*
X94361000Y-62230000D01*
X94361000Y-61086376D01*
X94615000Y-61086376D01*
X94615000Y-62230000D01*
X95757915Y-62230000D01*
X95879904Y-62007961D01*
X95839246Y-61873913D01*
X95719037Y-61619580D01*
X95551519Y-61393586D01*
X95343131Y-61204615D01*
X95101881Y-61059930D01*
X94837040Y-60965091D01*
X94615000Y-61086376D01*
X94361000Y-61086376D01*
X94138960Y-60965091D01*
X93874119Y-61059930D01*
X93632869Y-61204615D01*
X93424481Y-61393586D01*
X93256963Y-61619580D01*
X93136754Y-61873913D01*
X93096096Y-62007961D01*
X80641685Y-62007961D01*
X80627853Y-61938426D01*
X80519680Y-61677273D01*
X80362637Y-61442241D01*
X80162759Y-61242363D01*
X79927727Y-61085320D01*
X79666574Y-60977147D01*
X79389335Y-60922000D01*
X79106665Y-60922000D01*
X78924114Y-60958312D01*
X75656217Y-57690416D01*
X75680970Y-57677185D01*
X75823342Y-57560343D01*
X75940184Y-57417971D01*
X76027005Y-57255540D01*
X76080469Y-57079292D01*
X76098522Y-56896000D01*
X76080469Y-56712708D01*
X76027005Y-56536460D01*
X75940184Y-56374029D01*
X75847423Y-56261000D01*
X75893975Y-56204277D01*
X76837000Y-57147302D01*
M02*
