%FSLAX45Y45*%
G04 Gerber Fmt 4.5, Leading zero omitted, Abs format (unit mm)*
G04 Created by KiCad (PCBNEW (5.1.5-0-10_14)) date 2020-10-19 13:07:12*
%MOMM*%
%LPD*%
G04 APERTURE LIST*
%TA.AperFunction,Profile*%
%ADD10C,0.050000*%
%TD*%
%ADD11C,0.200000*%
%ADD12C,0.300000*%
G04 APERTURE END LIST*
D10*
X11290300Y-3390900D02*
X11290300Y-7353300D01*
X5219700Y-7353300D02*
X11290300Y-7353300D01*
X5219700Y-3390900D02*
X5219700Y-3403600D01*
X11290300Y-3390900D02*
X5219700Y-3390900D01*
X5219700Y-3403600D02*
X5219700Y-7353300D01*
D11*
D12*
X5503628Y-7821514D02*
X5503628Y-7521514D01*
X5575057Y-7521514D01*
X5617914Y-7535800D01*
X5646486Y-7564371D01*
X5660771Y-7592943D01*
X5675057Y-7650086D01*
X5675057Y-7692943D01*
X5660771Y-7750086D01*
X5646486Y-7778657D01*
X5617914Y-7807229D01*
X5575057Y-7821514D01*
X5503628Y-7821514D01*
X5803628Y-7821514D02*
X5803628Y-7621514D01*
X5803628Y-7678657D02*
X5817914Y-7650086D01*
X5832200Y-7635800D01*
X5860771Y-7621514D01*
X5889343Y-7621514D01*
X5989343Y-7821514D02*
X5989343Y-7621514D01*
X5989343Y-7521514D02*
X5975057Y-7535800D01*
X5989343Y-7550086D01*
X6003628Y-7535800D01*
X5989343Y-7521514D01*
X5989343Y-7550086D01*
X6175057Y-7821514D02*
X6146486Y-7807229D01*
X6132200Y-7778657D01*
X6132200Y-7521514D01*
X6332200Y-7821514D02*
X6303628Y-7807229D01*
X6289343Y-7778657D01*
X6289343Y-7521514D01*
X6675057Y-7821514D02*
X6675057Y-7521514D01*
X6775057Y-7735800D01*
X6875057Y-7521514D01*
X6875057Y-7821514D01*
X7146486Y-7821514D02*
X7146486Y-7664371D01*
X7132200Y-7635800D01*
X7103628Y-7621514D01*
X7046486Y-7621514D01*
X7017914Y-7635800D01*
X7146486Y-7807229D02*
X7117914Y-7821514D01*
X7046486Y-7821514D01*
X7017914Y-7807229D01*
X7003628Y-7778657D01*
X7003628Y-7750086D01*
X7017914Y-7721514D01*
X7046486Y-7707229D01*
X7117914Y-7707229D01*
X7146486Y-7692943D01*
X7289343Y-7621514D02*
X7289343Y-7921514D01*
X7289343Y-7635800D02*
X7317914Y-7621514D01*
X7375057Y-7621514D01*
X7403628Y-7635800D01*
X7417914Y-7650086D01*
X7432200Y-7678657D01*
X7432200Y-7764371D01*
X7417914Y-7792943D01*
X7403628Y-7807229D01*
X7375057Y-7821514D01*
X7317914Y-7821514D01*
X7289343Y-7807229D01*
X7560771Y-7792943D02*
X7575057Y-7807229D01*
X7560771Y-7821514D01*
X7546486Y-7807229D01*
X7560771Y-7792943D01*
X7560771Y-7821514D01*
X7560771Y-7635800D02*
X7575057Y-7650086D01*
X7560771Y-7664371D01*
X7546486Y-7650086D01*
X7560771Y-7635800D01*
X7560771Y-7664371D01*
M02*
