G04 #@! TF.GenerationSoftware,KiCad,Pcbnew,(5.1.5-0-10_14)*
G04 #@! TF.CreationDate,2020-10-19T13:07:17+11:00*
G04 #@! TF.ProjectId,Atari-Tandy Joystick Adapter,41746172-692d-4546-916e-6479204a6f79,rev?*
G04 #@! TF.SameCoordinates,Original*
G04 #@! TF.FileFunction,Legend,Bot*
G04 #@! TF.FilePolarity,Positive*
%FSLAX46Y46*%
G04 Gerber Fmt 4.6, Leading zero omitted, Abs format (unit mm)*
G04 Created by KiCad (PCBNEW (5.1.5-0-10_14)) date 2020-10-19 13:07:17*
%MOMM*%
%LPD*%
G04 APERTURE LIST*
%ADD10C,0.150000*%
G04 APERTURE END LIST*
D10*
X111147190Y-67984666D02*
X110671000Y-67984666D01*
X111242428Y-68270380D02*
X110909095Y-67270380D01*
X110575761Y-68270380D01*
X109813857Y-68270380D02*
X109813857Y-67270380D01*
X109813857Y-68222761D02*
X109909095Y-68270380D01*
X110099571Y-68270380D01*
X110194809Y-68222761D01*
X110242428Y-68175142D01*
X110290047Y-68079904D01*
X110290047Y-67794190D01*
X110242428Y-67698952D01*
X110194809Y-67651333D01*
X110099571Y-67603714D01*
X109909095Y-67603714D01*
X109813857Y-67651333D01*
X108909095Y-68270380D02*
X108909095Y-67746571D01*
X108956714Y-67651333D01*
X109051952Y-67603714D01*
X109242428Y-67603714D01*
X109337666Y-67651333D01*
X108909095Y-68222761D02*
X109004333Y-68270380D01*
X109242428Y-68270380D01*
X109337666Y-68222761D01*
X109385285Y-68127523D01*
X109385285Y-68032285D01*
X109337666Y-67937047D01*
X109242428Y-67889428D01*
X109004333Y-67889428D01*
X108909095Y-67841809D01*
X108432904Y-67603714D02*
X108432904Y-68603714D01*
X108432904Y-67651333D02*
X108337666Y-67603714D01*
X108147190Y-67603714D01*
X108051952Y-67651333D01*
X108004333Y-67698952D01*
X107956714Y-67794190D01*
X107956714Y-68079904D01*
X108004333Y-68175142D01*
X108051952Y-68222761D01*
X108147190Y-68270380D01*
X108337666Y-68270380D01*
X108432904Y-68222761D01*
X107671000Y-67603714D02*
X107290047Y-67603714D01*
X107528142Y-67270380D02*
X107528142Y-68127523D01*
X107480523Y-68222761D01*
X107385285Y-68270380D01*
X107290047Y-68270380D01*
X106575761Y-68222761D02*
X106671000Y-68270380D01*
X106861476Y-68270380D01*
X106956714Y-68222761D01*
X107004333Y-68127523D01*
X107004333Y-67746571D01*
X106956714Y-67651333D01*
X106861476Y-67603714D01*
X106671000Y-67603714D01*
X106575761Y-67651333D01*
X106528142Y-67746571D01*
X106528142Y-67841809D01*
X107004333Y-67937047D01*
X105671000Y-68270380D02*
X105671000Y-67270380D01*
X105671000Y-68222761D02*
X105766238Y-68270380D01*
X105956714Y-68270380D01*
X106051952Y-68222761D01*
X106099571Y-68175142D01*
X106147190Y-68079904D01*
X106147190Y-67794190D01*
X106099571Y-67698952D01*
X106051952Y-67651333D01*
X105956714Y-67603714D01*
X105766238Y-67603714D01*
X105671000Y-67651333D01*
X104575761Y-67603714D02*
X104194809Y-67603714D01*
X104432904Y-68270380D02*
X104432904Y-67413238D01*
X104385285Y-67318000D01*
X104290047Y-67270380D01*
X104194809Y-67270380D01*
X103861476Y-68270380D02*
X103861476Y-67603714D01*
X103861476Y-67794190D02*
X103813857Y-67698952D01*
X103766238Y-67651333D01*
X103671000Y-67603714D01*
X103575761Y-67603714D01*
X103099571Y-68270380D02*
X103194809Y-68222761D01*
X103242428Y-68175142D01*
X103290047Y-68079904D01*
X103290047Y-67794190D01*
X103242428Y-67698952D01*
X103194809Y-67651333D01*
X103099571Y-67603714D01*
X102956714Y-67603714D01*
X102861476Y-67651333D01*
X102813857Y-67698952D01*
X102766238Y-67794190D01*
X102766238Y-68079904D01*
X102813857Y-68175142D01*
X102861476Y-68222761D01*
X102956714Y-68270380D01*
X103099571Y-68270380D01*
X102337666Y-68270380D02*
X102337666Y-67603714D01*
X102337666Y-67698952D02*
X102290047Y-67651333D01*
X102194809Y-67603714D01*
X102051952Y-67603714D01*
X101956714Y-67651333D01*
X101909095Y-67746571D01*
X101909095Y-68270380D01*
X101909095Y-67746571D02*
X101861476Y-67651333D01*
X101766238Y-67603714D01*
X101623380Y-67603714D01*
X101528142Y-67651333D01*
X101480523Y-67746571D01*
X101480523Y-68270380D01*
X100385285Y-67603714D02*
X100004333Y-67603714D01*
X100242428Y-67270380D02*
X100242428Y-68127523D01*
X100194809Y-68222761D01*
X100099571Y-68270380D01*
X100004333Y-68270380D01*
X99671000Y-68270380D02*
X99671000Y-67270380D01*
X99242428Y-68270380D02*
X99242428Y-67746571D01*
X99290047Y-67651333D01*
X99385285Y-67603714D01*
X99528142Y-67603714D01*
X99623380Y-67651333D01*
X99671000Y-67698952D01*
X98385285Y-68222761D02*
X98480523Y-68270380D01*
X98671000Y-68270380D01*
X98766238Y-68222761D01*
X98813857Y-68127523D01*
X98813857Y-67746571D01*
X98766238Y-67651333D01*
X98671000Y-67603714D01*
X98480523Y-67603714D01*
X98385285Y-67651333D01*
X98337666Y-67746571D01*
X98337666Y-67841809D01*
X98813857Y-67937047D01*
X97290047Y-67603714D02*
X96909095Y-67603714D01*
X97147190Y-68270380D02*
X97147190Y-67413238D01*
X97099571Y-67318000D01*
X97004333Y-67270380D01*
X96909095Y-67270380D01*
X96432904Y-68270380D02*
X96528142Y-68222761D01*
X96575761Y-68175142D01*
X96623380Y-68079904D01*
X96623380Y-67794190D01*
X96575761Y-67698952D01*
X96528142Y-67651333D01*
X96432904Y-67603714D01*
X96290047Y-67603714D01*
X96194809Y-67651333D01*
X96147190Y-67698952D01*
X96099571Y-67794190D01*
X96099571Y-68079904D01*
X96147190Y-68175142D01*
X96194809Y-68222761D01*
X96290047Y-68270380D01*
X96432904Y-68270380D01*
X95528142Y-68270380D02*
X95623380Y-68222761D01*
X95671000Y-68127523D01*
X95671000Y-67270380D01*
X95004333Y-68270380D02*
X95099571Y-68222761D01*
X95147190Y-68127523D01*
X95147190Y-67270380D01*
X94480523Y-68270380D02*
X94575761Y-68222761D01*
X94623380Y-68175142D01*
X94671000Y-68079904D01*
X94671000Y-67794190D01*
X94623380Y-67698952D01*
X94575761Y-67651333D01*
X94480523Y-67603714D01*
X94337666Y-67603714D01*
X94242428Y-67651333D01*
X94194809Y-67698952D01*
X94147190Y-67794190D01*
X94147190Y-68079904D01*
X94194809Y-68175142D01*
X94242428Y-68222761D01*
X94337666Y-68270380D01*
X94480523Y-68270380D01*
X93813857Y-67603714D02*
X93623380Y-68270380D01*
X93432904Y-67794190D01*
X93242428Y-68270380D01*
X93051952Y-67603714D01*
X92671000Y-68270380D02*
X92671000Y-67603714D01*
X92671000Y-67270380D02*
X92718619Y-67318000D01*
X92671000Y-67365619D01*
X92623380Y-67318000D01*
X92671000Y-67270380D01*
X92671000Y-67365619D01*
X92194809Y-67603714D02*
X92194809Y-68270380D01*
X92194809Y-67698952D02*
X92147190Y-67651333D01*
X92051952Y-67603714D01*
X91909095Y-67603714D01*
X91813857Y-67651333D01*
X91766238Y-67746571D01*
X91766238Y-68270380D01*
X90861476Y-67603714D02*
X90861476Y-68413238D01*
X90909095Y-68508476D01*
X90956714Y-68556095D01*
X91051952Y-68603714D01*
X91194809Y-68603714D01*
X91290047Y-68556095D01*
X90861476Y-68222761D02*
X90956714Y-68270380D01*
X91147190Y-68270380D01*
X91242428Y-68222761D01*
X91290047Y-68175142D01*
X91337666Y-68079904D01*
X91337666Y-67794190D01*
X91290047Y-67698952D01*
X91242428Y-67651333D01*
X91147190Y-67603714D01*
X90956714Y-67603714D01*
X90861476Y-67651333D01*
X89194809Y-68270380D02*
X89194809Y-67270380D01*
X89194809Y-68222761D02*
X89290047Y-68270380D01*
X89480523Y-68270380D01*
X89575761Y-68222761D01*
X89623380Y-68175142D01*
X89671000Y-68079904D01*
X89671000Y-67794190D01*
X89623380Y-67698952D01*
X89575761Y-67651333D01*
X89480523Y-67603714D01*
X89290047Y-67603714D01*
X89194809Y-67651333D01*
X88337666Y-68222761D02*
X88432904Y-68270380D01*
X88623380Y-68270380D01*
X88718619Y-68222761D01*
X88766238Y-68127523D01*
X88766238Y-67746571D01*
X88718619Y-67651333D01*
X88623380Y-67603714D01*
X88432904Y-67603714D01*
X88337666Y-67651333D01*
X88290047Y-67746571D01*
X88290047Y-67841809D01*
X88766238Y-67937047D01*
X87909095Y-68222761D02*
X87813857Y-68270380D01*
X87623380Y-68270380D01*
X87528142Y-68222761D01*
X87480523Y-68127523D01*
X87480523Y-68079904D01*
X87528142Y-67984666D01*
X87623380Y-67937047D01*
X87766238Y-67937047D01*
X87861476Y-67889428D01*
X87909095Y-67794190D01*
X87909095Y-67746571D01*
X87861476Y-67651333D01*
X87766238Y-67603714D01*
X87623380Y-67603714D01*
X87528142Y-67651333D01*
X87051952Y-68270380D02*
X87051952Y-67603714D01*
X87051952Y-67270380D02*
X87099571Y-67318000D01*
X87051952Y-67365619D01*
X87004333Y-67318000D01*
X87051952Y-67270380D01*
X87051952Y-67365619D01*
X86147190Y-67603714D02*
X86147190Y-68413238D01*
X86194809Y-68508476D01*
X86242428Y-68556095D01*
X86337666Y-68603714D01*
X86480523Y-68603714D01*
X86575761Y-68556095D01*
X86147190Y-68222761D02*
X86242428Y-68270380D01*
X86432904Y-68270380D01*
X86528142Y-68222761D01*
X86575761Y-68175142D01*
X86623380Y-68079904D01*
X86623380Y-67794190D01*
X86575761Y-67698952D01*
X86528142Y-67651333D01*
X86432904Y-67603714D01*
X86242428Y-67603714D01*
X86147190Y-67651333D01*
X85671000Y-67603714D02*
X85671000Y-68270380D01*
X85671000Y-67698952D02*
X85623380Y-67651333D01*
X85528142Y-67603714D01*
X85385285Y-67603714D01*
X85290047Y-67651333D01*
X85242428Y-67746571D01*
X85242428Y-68270380D01*
X111939047Y-72778880D02*
X111939047Y-71778880D01*
X111510476Y-72778880D02*
X111510476Y-72255071D01*
X111558095Y-72159833D01*
X111653333Y-72112214D01*
X111796190Y-72112214D01*
X111891428Y-72159833D01*
X111939047Y-72207452D01*
X111177142Y-72112214D02*
X110796190Y-72112214D01*
X111034285Y-71778880D02*
X111034285Y-72636023D01*
X110986666Y-72731261D01*
X110891428Y-72778880D01*
X110796190Y-72778880D01*
X110605714Y-72112214D02*
X110224761Y-72112214D01*
X110462857Y-71778880D02*
X110462857Y-72636023D01*
X110415238Y-72731261D01*
X110319999Y-72778880D01*
X110224761Y-72778880D01*
X109891428Y-72112214D02*
X109891428Y-73112214D01*
X109891428Y-72159833D02*
X109796190Y-72112214D01*
X109605714Y-72112214D01*
X109510476Y-72159833D01*
X109462857Y-72207452D01*
X109415238Y-72302690D01*
X109415238Y-72588404D01*
X109462857Y-72683642D01*
X109510476Y-72731261D01*
X109605714Y-72778880D01*
X109796190Y-72778880D01*
X109891428Y-72731261D01*
X108986666Y-72683642D02*
X108939047Y-72731261D01*
X108986666Y-72778880D01*
X109034285Y-72731261D01*
X108986666Y-72683642D01*
X108986666Y-72778880D01*
X108986666Y-72159833D02*
X108939047Y-72207452D01*
X108986666Y-72255071D01*
X109034285Y-72207452D01*
X108986666Y-72159833D01*
X108986666Y-72255071D01*
X107796190Y-71731261D02*
X108653333Y-73016976D01*
X106748571Y-71731261D02*
X107605714Y-73016976D01*
X106510476Y-72112214D02*
X106319999Y-72778880D01*
X106129523Y-72302690D01*
X105939047Y-72778880D01*
X105748571Y-72112214D01*
X105462857Y-72112214D02*
X105272380Y-72778880D01*
X105081904Y-72302690D01*
X104891428Y-72778880D01*
X104700952Y-72112214D01*
X104415238Y-72112214D02*
X104224761Y-72778880D01*
X104034285Y-72302690D01*
X103843809Y-72778880D01*
X103653333Y-72112214D01*
X103272380Y-72683642D02*
X103224761Y-72731261D01*
X103272380Y-72778880D01*
X103320000Y-72731261D01*
X103272380Y-72683642D01*
X103272380Y-72778880D01*
X102367619Y-72731261D02*
X102462857Y-72778880D01*
X102653333Y-72778880D01*
X102748571Y-72731261D01*
X102796190Y-72683642D01*
X102843809Y-72588404D01*
X102843809Y-72302690D01*
X102796190Y-72207452D01*
X102748571Y-72159833D01*
X102653333Y-72112214D01*
X102462857Y-72112214D01*
X102367619Y-72159833D01*
X101796190Y-72778880D02*
X101891428Y-72731261D01*
X101939047Y-72683642D01*
X101986666Y-72588404D01*
X101986666Y-72302690D01*
X101939047Y-72207452D01*
X101891428Y-72159833D01*
X101796190Y-72112214D01*
X101653333Y-72112214D01*
X101558095Y-72159833D01*
X101510476Y-72207452D01*
X101462857Y-72302690D01*
X101462857Y-72588404D01*
X101510476Y-72683642D01*
X101558095Y-72731261D01*
X101653333Y-72778880D01*
X101796190Y-72778880D01*
X100605714Y-72731261D02*
X100700952Y-72778880D01*
X100891428Y-72778880D01*
X100986666Y-72731261D01*
X101034285Y-72683642D01*
X101081904Y-72588404D01*
X101081904Y-72302690D01*
X101034285Y-72207452D01*
X100986666Y-72159833D01*
X100891428Y-72112214D01*
X100700952Y-72112214D01*
X100605714Y-72159833D01*
X100034285Y-72778880D02*
X100129523Y-72731261D01*
X100177142Y-72683642D01*
X100224761Y-72588404D01*
X100224761Y-72302690D01*
X100177142Y-72207452D01*
X100129523Y-72159833D01*
X100034285Y-72112214D01*
X99891428Y-72112214D01*
X99796190Y-72159833D01*
X99748571Y-72207452D01*
X99700952Y-72302690D01*
X99700952Y-72588404D01*
X99748571Y-72683642D01*
X99796190Y-72731261D01*
X99891428Y-72778880D01*
X100034285Y-72778880D01*
X99272380Y-72112214D02*
X99272380Y-73112214D01*
X99272380Y-72159833D02*
X99177142Y-72112214D01*
X98986666Y-72112214D01*
X98891428Y-72159833D01*
X98843809Y-72207452D01*
X98796190Y-72302690D01*
X98796190Y-72588404D01*
X98843809Y-72683642D01*
X98891428Y-72731261D01*
X98986666Y-72778880D01*
X99177142Y-72778880D01*
X99272380Y-72731261D01*
X97986666Y-72731261D02*
X98081904Y-72778880D01*
X98272380Y-72778880D01*
X98367619Y-72731261D01*
X98415238Y-72636023D01*
X98415238Y-72255071D01*
X98367619Y-72159833D01*
X98272380Y-72112214D01*
X98081904Y-72112214D01*
X97986666Y-72159833D01*
X97939047Y-72255071D01*
X97939047Y-72350309D01*
X98415238Y-72445547D01*
X97081904Y-72778880D02*
X97081904Y-71778880D01*
X97081904Y-72731261D02*
X97177142Y-72778880D01*
X97367619Y-72778880D01*
X97462857Y-72731261D01*
X97510476Y-72683642D01*
X97558095Y-72588404D01*
X97558095Y-72302690D01*
X97510476Y-72207452D01*
X97462857Y-72159833D01*
X97367619Y-72112214D01*
X97177142Y-72112214D01*
X97081904Y-72159833D01*
X96605714Y-72778880D02*
X96605714Y-72112214D01*
X96605714Y-71778880D02*
X96653333Y-71826500D01*
X96605714Y-71874119D01*
X96558095Y-71826500D01*
X96605714Y-71778880D01*
X96605714Y-71874119D01*
X95700952Y-72778880D02*
X95700952Y-72255071D01*
X95748571Y-72159833D01*
X95843809Y-72112214D01*
X96034285Y-72112214D01*
X96129523Y-72159833D01*
X95700952Y-72731261D02*
X95796190Y-72778880D01*
X96034285Y-72778880D01*
X96129523Y-72731261D01*
X96177142Y-72636023D01*
X96177142Y-72540785D01*
X96129523Y-72445547D01*
X96034285Y-72397928D01*
X95796190Y-72397928D01*
X95700952Y-72350309D01*
X95224761Y-72683642D02*
X95177142Y-72731261D01*
X95224761Y-72778880D01*
X95272380Y-72731261D01*
X95224761Y-72683642D01*
X95224761Y-72778880D01*
X94320000Y-72731261D02*
X94415238Y-72778880D01*
X94605714Y-72778880D01*
X94700952Y-72731261D01*
X94748571Y-72683642D01*
X94796190Y-72588404D01*
X94796190Y-72302690D01*
X94748571Y-72207452D01*
X94700952Y-72159833D01*
X94605714Y-72112214D01*
X94415238Y-72112214D01*
X94320000Y-72159833D01*
X93748571Y-72778880D02*
X93843809Y-72731261D01*
X93891428Y-72683642D01*
X93939047Y-72588404D01*
X93939047Y-72302690D01*
X93891428Y-72207452D01*
X93843809Y-72159833D01*
X93748571Y-72112214D01*
X93605714Y-72112214D01*
X93510476Y-72159833D01*
X93462857Y-72207452D01*
X93415238Y-72302690D01*
X93415238Y-72588404D01*
X93462857Y-72683642D01*
X93510476Y-72731261D01*
X93605714Y-72778880D01*
X93748571Y-72778880D01*
X92986666Y-72778880D02*
X92986666Y-72112214D01*
X92986666Y-72207452D02*
X92939047Y-72159833D01*
X92843809Y-72112214D01*
X92700952Y-72112214D01*
X92605714Y-72159833D01*
X92558095Y-72255071D01*
X92558095Y-72778880D01*
X92558095Y-72255071D02*
X92510476Y-72159833D01*
X92415238Y-72112214D01*
X92272380Y-72112214D01*
X92177142Y-72159833D01*
X92129523Y-72255071D01*
X92129523Y-72778880D01*
X90939047Y-71731261D02*
X91796190Y-73016976D01*
X90700952Y-72112214D02*
X90510476Y-72778880D01*
X90320000Y-72302690D01*
X90129523Y-72778880D01*
X89939047Y-72112214D01*
X89558095Y-72778880D02*
X89558095Y-72112214D01*
X89558095Y-71778880D02*
X89605714Y-71826500D01*
X89558095Y-71874119D01*
X89510476Y-71826500D01*
X89558095Y-71778880D01*
X89558095Y-71874119D01*
X89081904Y-72778880D02*
X89081904Y-71778880D01*
X88986666Y-72397928D02*
X88700952Y-72778880D01*
X88700952Y-72112214D02*
X89081904Y-72493166D01*
X88272380Y-72778880D02*
X88272380Y-72112214D01*
X88272380Y-71778880D02*
X88320000Y-71826500D01*
X88272380Y-71874119D01*
X88224761Y-71826500D01*
X88272380Y-71778880D01*
X88272380Y-71874119D01*
X87081904Y-71731261D02*
X87939047Y-73016976D01*
X86748571Y-72778880D02*
X86748571Y-72112214D01*
X86748571Y-71778880D02*
X86796190Y-71826500D01*
X86748571Y-71874119D01*
X86700952Y-71826500D01*
X86748571Y-71778880D01*
X86748571Y-71874119D01*
X86272380Y-72112214D02*
X86272380Y-72778880D01*
X86272380Y-72207452D02*
X86224761Y-72159833D01*
X86129523Y-72112214D01*
X85986666Y-72112214D01*
X85891428Y-72159833D01*
X85843809Y-72255071D01*
X85843809Y-72778880D01*
X84939047Y-72778880D02*
X84939047Y-71778880D01*
X84939047Y-72731261D02*
X85034285Y-72778880D01*
X85224761Y-72778880D01*
X85320000Y-72731261D01*
X85367619Y-72683642D01*
X85415238Y-72588404D01*
X85415238Y-72302690D01*
X85367619Y-72207452D01*
X85320000Y-72159833D01*
X85224761Y-72112214D01*
X85034285Y-72112214D01*
X84939047Y-72159833D01*
X84081904Y-72731261D02*
X84177142Y-72778880D01*
X84367619Y-72778880D01*
X84462857Y-72731261D01*
X84510476Y-72636023D01*
X84510476Y-72255071D01*
X84462857Y-72159833D01*
X84367619Y-72112214D01*
X84177142Y-72112214D01*
X84081904Y-72159833D01*
X84034285Y-72255071D01*
X84034285Y-72350309D01*
X84510476Y-72445547D01*
X83700952Y-72778880D02*
X83177142Y-72112214D01*
X83700952Y-72112214D02*
X83177142Y-72778880D01*
X82796190Y-72683642D02*
X82748571Y-72731261D01*
X82796190Y-72778880D01*
X82843809Y-72731261D01*
X82796190Y-72683642D01*
X82796190Y-72778880D01*
X82320000Y-72112214D02*
X82320000Y-73112214D01*
X82320000Y-72159833D02*
X82224761Y-72112214D01*
X82034285Y-72112214D01*
X81939047Y-72159833D01*
X81891428Y-72207452D01*
X81843809Y-72302690D01*
X81843809Y-72588404D01*
X81891428Y-72683642D01*
X81939047Y-72731261D01*
X82034285Y-72778880D01*
X82224761Y-72778880D01*
X82320000Y-72731261D01*
X81415238Y-72778880D02*
X81415238Y-71778880D01*
X80986666Y-72778880D02*
X80986666Y-72255071D01*
X81034285Y-72159833D01*
X81129523Y-72112214D01*
X81272380Y-72112214D01*
X81367619Y-72159833D01*
X81415238Y-72207452D01*
X80510476Y-72112214D02*
X80510476Y-73112214D01*
X80510476Y-72159833D02*
X80415238Y-72112214D01*
X80224761Y-72112214D01*
X80129523Y-72159833D01*
X80081904Y-72207452D01*
X80034285Y-72302690D01*
X80034285Y-72588404D01*
X80081904Y-72683642D01*
X80129523Y-72731261D01*
X80224761Y-72778880D01*
X80415238Y-72778880D01*
X80510476Y-72731261D01*
X78891428Y-71731261D02*
X79748571Y-73016976D01*
X78605714Y-72493166D02*
X78129523Y-72493166D01*
X78700952Y-72778880D02*
X78367619Y-71778880D01*
X78034285Y-72778880D01*
X77843809Y-72112214D02*
X77462857Y-72112214D01*
X77700952Y-71778880D02*
X77700952Y-72636023D01*
X77653333Y-72731261D01*
X77558095Y-72778880D01*
X77462857Y-72778880D01*
X76700952Y-72778880D02*
X76700952Y-72255071D01*
X76748571Y-72159833D01*
X76843809Y-72112214D01*
X77034285Y-72112214D01*
X77129523Y-72159833D01*
X76700952Y-72731261D02*
X76796190Y-72778880D01*
X77034285Y-72778880D01*
X77129523Y-72731261D01*
X77177142Y-72636023D01*
X77177142Y-72540785D01*
X77129523Y-72445547D01*
X77034285Y-72397928D01*
X76796190Y-72397928D01*
X76700952Y-72350309D01*
X76224761Y-72778880D02*
X76224761Y-72112214D01*
X76224761Y-72302690D02*
X76177142Y-72207452D01*
X76129523Y-72159833D01*
X76034285Y-72112214D01*
X75939047Y-72112214D01*
X75605714Y-72778880D02*
X75605714Y-72112214D01*
X75605714Y-71778880D02*
X75653333Y-71826500D01*
X75605714Y-71874119D01*
X75558095Y-71826500D01*
X75605714Y-71778880D01*
X75605714Y-71874119D01*
X75367619Y-72874119D02*
X74605714Y-72874119D01*
X74510476Y-72112214D02*
X74129523Y-72112214D01*
X74367619Y-71778880D02*
X74367619Y-72636023D01*
X74320000Y-72731261D01*
X74224761Y-72778880D01*
X74129523Y-72778880D01*
X73653333Y-72778880D02*
X73748571Y-72731261D01*
X73796190Y-72683642D01*
X73843809Y-72588404D01*
X73843809Y-72302690D01*
X73796190Y-72207452D01*
X73748571Y-72159833D01*
X73653333Y-72112214D01*
X73510476Y-72112214D01*
X73415238Y-72159833D01*
X73367619Y-72207452D01*
X73320000Y-72302690D01*
X73320000Y-72588404D01*
X73367619Y-72683642D01*
X73415238Y-72731261D01*
X73510476Y-72778880D01*
X73653333Y-72778880D01*
X73129523Y-72874119D02*
X72367619Y-72874119D01*
X71558095Y-72683642D02*
X71605714Y-72731261D01*
X71748571Y-72778880D01*
X71843809Y-72778880D01*
X71986666Y-72731261D01*
X72081904Y-72636023D01*
X72129523Y-72540785D01*
X72177142Y-72350309D01*
X72177142Y-72207452D01*
X72129523Y-72016976D01*
X72081904Y-71921738D01*
X71986666Y-71826500D01*
X71843809Y-71778880D01*
X71748571Y-71778880D01*
X71605714Y-71826500D01*
X71558095Y-71874119D01*
X70986666Y-72778880D02*
X71081904Y-72731261D01*
X71129523Y-72683642D01*
X71177142Y-72588404D01*
X71177142Y-72302690D01*
X71129523Y-72207452D01*
X71081904Y-72159833D01*
X70986666Y-72112214D01*
X70843809Y-72112214D01*
X70748571Y-72159833D01*
X70700952Y-72207452D01*
X70653333Y-72302690D01*
X70653333Y-72588404D01*
X70700952Y-72683642D01*
X70748571Y-72731261D01*
X70843809Y-72778880D01*
X70986666Y-72778880D01*
X69653333Y-72683642D02*
X69700952Y-72731261D01*
X69843809Y-72778880D01*
X69939047Y-72778880D01*
X70081904Y-72731261D01*
X70177142Y-72636023D01*
X70224761Y-72540785D01*
X70272380Y-72350309D01*
X70272380Y-72207452D01*
X70224761Y-72016976D01*
X70177142Y-71921738D01*
X70081904Y-71826500D01*
X69939047Y-71778880D01*
X69843809Y-71778880D01*
X69700952Y-71826500D01*
X69653333Y-71874119D01*
X69081904Y-72778880D02*
X69177142Y-72731261D01*
X69224761Y-72683642D01*
X69272380Y-72588404D01*
X69272380Y-72302690D01*
X69224761Y-72207452D01*
X69177142Y-72159833D01*
X69081904Y-72112214D01*
X68939047Y-72112214D01*
X68843809Y-72159833D01*
X68796190Y-72207452D01*
X68748571Y-72302690D01*
X68748571Y-72588404D01*
X68796190Y-72683642D01*
X68843809Y-72731261D01*
X68939047Y-72778880D01*
X69081904Y-72778880D01*
X68558095Y-72874119D02*
X67796190Y-72874119D01*
X67272380Y-71778880D02*
X67272380Y-72493166D01*
X67320000Y-72636023D01*
X67415238Y-72731261D01*
X67558095Y-72778880D01*
X67653333Y-72778880D01*
X66653333Y-72778880D02*
X66748571Y-72731261D01*
X66796190Y-72683642D01*
X66843809Y-72588404D01*
X66843809Y-72302690D01*
X66796190Y-72207452D01*
X66748571Y-72159833D01*
X66653333Y-72112214D01*
X66510476Y-72112214D01*
X66415238Y-72159833D01*
X66367619Y-72207452D01*
X66320000Y-72302690D01*
X66320000Y-72588404D01*
X66367619Y-72683642D01*
X66415238Y-72731261D01*
X66510476Y-72778880D01*
X66653333Y-72778880D01*
X65986666Y-72112214D02*
X65748571Y-72778880D01*
X65510476Y-72112214D02*
X65748571Y-72778880D01*
X65843809Y-73016976D01*
X65891428Y-73064595D01*
X65986666Y-73112214D01*
X65177142Y-72731261D02*
X65081904Y-72778880D01*
X64891428Y-72778880D01*
X64796190Y-72731261D01*
X64748571Y-72636023D01*
X64748571Y-72588404D01*
X64796190Y-72493166D01*
X64891428Y-72445547D01*
X65034285Y-72445547D01*
X65129523Y-72397928D01*
X65177142Y-72302690D01*
X65177142Y-72255071D01*
X65129523Y-72159833D01*
X65034285Y-72112214D01*
X64891428Y-72112214D01*
X64796190Y-72159833D01*
X64462857Y-72112214D02*
X64081904Y-72112214D01*
X64320000Y-71778880D02*
X64320000Y-72636023D01*
X64272380Y-72731261D01*
X64177142Y-72778880D01*
X64081904Y-72778880D01*
X63748571Y-72778880D02*
X63748571Y-72112214D01*
X63748571Y-71778880D02*
X63796190Y-71826500D01*
X63748571Y-71874119D01*
X63700952Y-71826500D01*
X63748571Y-71778880D01*
X63748571Y-71874119D01*
X62843809Y-72731261D02*
X62939047Y-72778880D01*
X63129523Y-72778880D01*
X63224761Y-72731261D01*
X63272380Y-72683642D01*
X63320000Y-72588404D01*
X63320000Y-72302690D01*
X63272380Y-72207452D01*
X63224761Y-72159833D01*
X63129523Y-72112214D01*
X62939047Y-72112214D01*
X62843809Y-72159833D01*
X62415238Y-72778880D02*
X62415238Y-71778880D01*
X62320000Y-72397928D02*
X62034285Y-72778880D01*
X62034285Y-72112214D02*
X62415238Y-72493166D01*
X61843809Y-72874119D02*
X61081904Y-72874119D01*
X60891428Y-72493166D02*
X60415238Y-72493166D01*
X60986666Y-72778880D02*
X60653333Y-71778880D01*
X60320000Y-72778880D01*
X59558095Y-72778880D02*
X59558095Y-71778880D01*
X59558095Y-72731261D02*
X59653333Y-72778880D01*
X59843809Y-72778880D01*
X59939047Y-72731261D01*
X59986666Y-72683642D01*
X60034285Y-72588404D01*
X60034285Y-72302690D01*
X59986666Y-72207452D01*
X59939047Y-72159833D01*
X59843809Y-72112214D01*
X59653333Y-72112214D01*
X59558095Y-72159833D01*
X58653333Y-72778880D02*
X58653333Y-72255071D01*
X58700952Y-72159833D01*
X58796190Y-72112214D01*
X58986666Y-72112214D01*
X59081904Y-72159833D01*
X58653333Y-72731261D02*
X58748571Y-72778880D01*
X58986666Y-72778880D01*
X59081904Y-72731261D01*
X59129523Y-72636023D01*
X59129523Y-72540785D01*
X59081904Y-72445547D01*
X58986666Y-72397928D01*
X58748571Y-72397928D01*
X58653333Y-72350309D01*
X58177142Y-72112214D02*
X58177142Y-73112214D01*
X58177142Y-72159833D02*
X58081904Y-72112214D01*
X57891428Y-72112214D01*
X57796190Y-72159833D01*
X57748571Y-72207452D01*
X57700952Y-72302690D01*
X57700952Y-72588404D01*
X57748571Y-72683642D01*
X57796190Y-72731261D01*
X57891428Y-72778880D01*
X58081904Y-72778880D01*
X58177142Y-72731261D01*
X57415238Y-72112214D02*
X57034285Y-72112214D01*
X57272380Y-71778880D02*
X57272380Y-72636023D01*
X57224761Y-72731261D01*
X57129523Y-72778880D01*
X57034285Y-72778880D01*
X56320000Y-72731261D02*
X56415238Y-72778880D01*
X56605714Y-72778880D01*
X56700952Y-72731261D01*
X56748571Y-72636023D01*
X56748571Y-72255071D01*
X56700952Y-72159833D01*
X56605714Y-72112214D01*
X56415238Y-72112214D01*
X56320000Y-72159833D01*
X56272380Y-72255071D01*
X56272380Y-72350309D01*
X56748571Y-72445547D01*
X55843809Y-72778880D02*
X55843809Y-72112214D01*
X55843809Y-72302690D02*
X55796190Y-72207452D01*
X55748571Y-72159833D01*
X55653333Y-72112214D01*
X55558095Y-72112214D01*
M02*
