G04 #@! TF.GenerationSoftware,KiCad,Pcbnew,(5.1.5-0-10_14)*
G04 #@! TF.CreationDate,2020-10-19T13:07:17+11:00*
G04 #@! TF.ProjectId,Atari-Tandy Joystick Adapter,41746172-692d-4546-916e-6479204a6f79,rev?*
G04 #@! TF.SameCoordinates,Original*
G04 #@! TF.FileFunction,Copper,L2,Bot*
G04 #@! TF.FilePolarity,Positive*
%FSLAX46Y46*%
G04 Gerber Fmt 4.6, Leading zero omitted, Abs format (unit mm)*
G04 Created by KiCad (PCBNEW (5.1.5-0-10_14)) date 2020-10-19 13:07:17*
%MOMM*%
%LPD*%
G04 APERTURE LIST*
%ADD10O,1.600000X1.600000*%
%ADD11R,1.600000X1.600000*%
%ADD12C,7.500000*%
%ADD13C,1.600000*%
%ADD14C,4.000000*%
%ADD15O,1.700000X1.700000*%
%ADD16R,1.700000X1.700000*%
%ADD17C,0.800000*%
%ADD18C,0.250000*%
%ADD19C,0.254000*%
G04 APERTURE END LIST*
D10*
X79883000Y-53721000D03*
X82423000Y-53721000D03*
X84963000Y-53721000D03*
X87503000Y-53721000D03*
D11*
X90043000Y-53721000D03*
D12*
X107442000Y-58547000D03*
X107442000Y-48768000D03*
D10*
X94488000Y-62357000D03*
D13*
X79248000Y-62357000D03*
D10*
X94488000Y-57531000D03*
D13*
X79248000Y-57531000D03*
D10*
X94424500Y-49911000D03*
D13*
X79184500Y-49911000D03*
D10*
X94424500Y-45466000D03*
D13*
X79184500Y-45466000D03*
D14*
X60152000Y-66046000D03*
X60152000Y-41046000D03*
D13*
X57612000Y-57701000D03*
X57612000Y-54931000D03*
X57612000Y-52161000D03*
X57612000Y-49391000D03*
X60452000Y-59086000D03*
X60452000Y-56316000D03*
X60452000Y-53546000D03*
X60452000Y-50776000D03*
D11*
X60452000Y-48006000D03*
D15*
X98933000Y-60071000D03*
X98933000Y-57531000D03*
X98933000Y-54991000D03*
X98933000Y-52451000D03*
X98933000Y-49911000D03*
D16*
X98933000Y-47371000D03*
D17*
X74739500Y-48060999D03*
X70421500Y-58674000D03*
X71120000Y-49212500D03*
X92011500Y-57340500D03*
X95123000Y-52324000D03*
X65532000Y-56007000D03*
X66484500Y-54038500D03*
X73596500Y-58737500D03*
X66802000Y-52514500D03*
X67564000Y-54038500D03*
X72453500Y-51498500D03*
D18*
X58411999Y-51361001D02*
X57612000Y-52161000D01*
X74173815Y-48060999D02*
X71896316Y-45783500D01*
X60007500Y-45783500D02*
X58928000Y-46863000D01*
X71896316Y-45783500D02*
X60007500Y-45783500D01*
X58928000Y-46863000D02*
X58928000Y-50845000D01*
X58928000Y-50845000D02*
X58411999Y-51361001D01*
X74739500Y-48060999D02*
X74173815Y-48060999D01*
X103759000Y-52451000D02*
X107442000Y-48768000D01*
X103692001Y-54797001D02*
X103692001Y-52701501D01*
X107442000Y-58547000D02*
X103692001Y-54797001D01*
X103505000Y-52514500D02*
X103759000Y-52451000D01*
X103692001Y-52701501D02*
X103505000Y-52514500D01*
X98933000Y-52451000D02*
X103505000Y-52514500D01*
X96964500Y-52451000D02*
X94424500Y-49911000D01*
X98933000Y-52451000D02*
X96964500Y-52451000D01*
X95287999Y-61557001D02*
X94488000Y-62357000D01*
X96710500Y-60134500D02*
X95287999Y-61557001D01*
X96710500Y-54673500D02*
X96710500Y-60134500D01*
X98933000Y-52451000D02*
X96710500Y-54673500D01*
X71564500Y-59817000D02*
X70421500Y-58674000D01*
X71691500Y-59944000D02*
X71564500Y-59817000D01*
X75501500Y-63754000D02*
X71564500Y-59817000D01*
X82423000Y-63754000D02*
X75501500Y-63754000D01*
X83820000Y-62357000D02*
X82423000Y-63754000D01*
X94488000Y-62357000D02*
X83820000Y-62357000D01*
X97807999Y-48785999D02*
X71582499Y-48785999D01*
X98933000Y-49911000D02*
X97807999Y-48785999D01*
X71546501Y-48785999D02*
X71120000Y-49212500D01*
X71582499Y-48785999D02*
X71546501Y-48785999D01*
X92011500Y-57340500D02*
X95123000Y-54229000D01*
X95123000Y-54229000D02*
X95123000Y-52324000D01*
X65532000Y-54991000D02*
X66484500Y-54038500D01*
X65532000Y-56007000D02*
X65532000Y-54991000D01*
X73596500Y-58737500D02*
X74866500Y-58737500D01*
X74866500Y-58737500D02*
X75946000Y-59817000D01*
X75946000Y-59817000D02*
X81661000Y-59817000D01*
X84963000Y-56515000D02*
X84963000Y-53721000D01*
X81661000Y-59817000D02*
X84963000Y-56515000D01*
X66802000Y-53276500D02*
X67564000Y-54038500D01*
X66802000Y-52514500D02*
X66802000Y-53276500D01*
X64994500Y-51498500D02*
X72453500Y-51498500D01*
X61502000Y-48006000D02*
X64994500Y-51498500D01*
X60452000Y-48006000D02*
X61502000Y-48006000D01*
D19*
G36*
X112243001Y-72873000D02*
G01*
X52857000Y-72873000D01*
X52857000Y-65786475D01*
X57517000Y-65786475D01*
X57517000Y-66305525D01*
X57618261Y-66814601D01*
X57816893Y-67294141D01*
X58105262Y-67725715D01*
X58472285Y-68092738D01*
X58903859Y-68381107D01*
X59383399Y-68579739D01*
X59892475Y-68681000D01*
X60411525Y-68681000D01*
X60920601Y-68579739D01*
X61400141Y-68381107D01*
X61831715Y-68092738D01*
X62198738Y-67725715D01*
X62487107Y-67294141D01*
X62685739Y-66814601D01*
X62787000Y-66305525D01*
X62787000Y-65786475D01*
X62685739Y-65277399D01*
X62487107Y-64797859D01*
X62198738Y-64366285D01*
X61831715Y-63999262D01*
X61400141Y-63710893D01*
X60920601Y-63512261D01*
X60411525Y-63411000D01*
X59892475Y-63411000D01*
X59383399Y-63512261D01*
X58903859Y-63710893D01*
X58472285Y-63999262D01*
X58105262Y-64366285D01*
X57816893Y-64797859D01*
X57618261Y-65277399D01*
X57517000Y-65786475D01*
X52857000Y-65786475D01*
X52857000Y-62215665D01*
X77813000Y-62215665D01*
X77813000Y-62498335D01*
X77868147Y-62775574D01*
X77976320Y-63036727D01*
X78133363Y-63271759D01*
X78333241Y-63471637D01*
X78568273Y-63628680D01*
X78829426Y-63736853D01*
X79106665Y-63792000D01*
X79389335Y-63792000D01*
X79666574Y-63736853D01*
X79927727Y-63628680D01*
X80162759Y-63471637D01*
X80362637Y-63271759D01*
X80519680Y-63036727D01*
X80627853Y-62775574D01*
X80641684Y-62706039D01*
X93096096Y-62706039D01*
X93136754Y-62840087D01*
X93256963Y-63094420D01*
X93424481Y-63320414D01*
X93632869Y-63509385D01*
X93874119Y-63654070D01*
X94138960Y-63748909D01*
X94361000Y-63627624D01*
X94361000Y-62484000D01*
X94615000Y-62484000D01*
X94615000Y-63627624D01*
X94837040Y-63748909D01*
X95101881Y-63654070D01*
X95343131Y-63509385D01*
X95551519Y-63320414D01*
X95719037Y-63094420D01*
X95839246Y-62840087D01*
X95879904Y-62706039D01*
X95757915Y-62484000D01*
X94615000Y-62484000D01*
X94361000Y-62484000D01*
X93218085Y-62484000D01*
X93096096Y-62706039D01*
X80641684Y-62706039D01*
X80683000Y-62498335D01*
X80683000Y-62215665D01*
X80641685Y-62007961D01*
X93096096Y-62007961D01*
X93218085Y-62230000D01*
X94361000Y-62230000D01*
X94361000Y-61086376D01*
X94615000Y-61086376D01*
X94615000Y-62230000D01*
X95757915Y-62230000D01*
X95879904Y-62007961D01*
X95839246Y-61873913D01*
X95728156Y-61638872D01*
X104529733Y-61638872D01*
X104955912Y-62184872D01*
X105713395Y-62599983D01*
X106537307Y-62859339D01*
X107395986Y-62952976D01*
X108256434Y-62877293D01*
X109085583Y-62635199D01*
X109851570Y-62235999D01*
X109928088Y-62184872D01*
X110354267Y-61638872D01*
X107442000Y-58726605D01*
X104529733Y-61638872D01*
X95728156Y-61638872D01*
X95719037Y-61619580D01*
X95551519Y-61393586D01*
X95343131Y-61204615D01*
X95101881Y-61059930D01*
X94837040Y-60965091D01*
X94615000Y-61086376D01*
X94361000Y-61086376D01*
X94138960Y-60965091D01*
X93874119Y-61059930D01*
X93632869Y-61204615D01*
X93424481Y-61393586D01*
X93256963Y-61619580D01*
X93136754Y-61873913D01*
X93096096Y-62007961D01*
X80641685Y-62007961D01*
X80627853Y-61938426D01*
X80519680Y-61677273D01*
X80362637Y-61442241D01*
X80162759Y-61242363D01*
X79927727Y-61085320D01*
X79666574Y-60977147D01*
X79389335Y-60922000D01*
X79106665Y-60922000D01*
X78829426Y-60977147D01*
X78568273Y-61085320D01*
X78333241Y-61242363D01*
X78133363Y-61442241D01*
X77976320Y-61677273D01*
X77868147Y-61938426D01*
X77813000Y-62215665D01*
X52857000Y-62215665D01*
X52857000Y-57559665D01*
X56177000Y-57559665D01*
X56177000Y-57842335D01*
X56232147Y-58119574D01*
X56340320Y-58380727D01*
X56497363Y-58615759D01*
X56697241Y-58815637D01*
X56932273Y-58972680D01*
X57193426Y-59080853D01*
X57470665Y-59136000D01*
X57753335Y-59136000D01*
X58030574Y-59080853D01*
X58291727Y-58972680D01*
X58526759Y-58815637D01*
X58726637Y-58615759D01*
X58883680Y-58380727D01*
X58991853Y-58119574D01*
X59047000Y-57842335D01*
X59047000Y-57559665D01*
X58991853Y-57282426D01*
X58883680Y-57021273D01*
X58726637Y-56786241D01*
X58526759Y-56586363D01*
X58291727Y-56429320D01*
X58030574Y-56321147D01*
X58002118Y-56315487D01*
X58228292Y-56234603D01*
X58353514Y-56167671D01*
X58425097Y-55923702D01*
X57612000Y-55110605D01*
X56798903Y-55923702D01*
X56870486Y-56167671D01*
X57125996Y-56288571D01*
X57228289Y-56314212D01*
X57193426Y-56321147D01*
X56932273Y-56429320D01*
X56697241Y-56586363D01*
X56497363Y-56786241D01*
X56340320Y-57021273D01*
X56232147Y-57282426D01*
X56177000Y-57559665D01*
X52857000Y-57559665D01*
X52857000Y-55001512D01*
X56171783Y-55001512D01*
X56213213Y-55281130D01*
X56308397Y-55547292D01*
X56375329Y-55672514D01*
X56619298Y-55744097D01*
X57432395Y-54931000D01*
X57791605Y-54931000D01*
X58604702Y-55744097D01*
X58848671Y-55672514D01*
X58969571Y-55417004D01*
X59038300Y-55142816D01*
X59052217Y-54860488D01*
X59010787Y-54580870D01*
X58915603Y-54314708D01*
X58848671Y-54189486D01*
X58604702Y-54117903D01*
X57791605Y-54931000D01*
X57432395Y-54931000D01*
X56619298Y-54117903D01*
X56375329Y-54189486D01*
X56254429Y-54444996D01*
X56185700Y-54719184D01*
X56171783Y-55001512D01*
X52857000Y-55001512D01*
X52857000Y-49249665D01*
X56177000Y-49249665D01*
X56177000Y-49532335D01*
X56232147Y-49809574D01*
X56340320Y-50070727D01*
X56497363Y-50305759D01*
X56697241Y-50505637D01*
X56932273Y-50662680D01*
X57193426Y-50770853D01*
X57219301Y-50776000D01*
X57193426Y-50781147D01*
X56932273Y-50889320D01*
X56697241Y-51046363D01*
X56497363Y-51246241D01*
X56340320Y-51481273D01*
X56232147Y-51742426D01*
X56177000Y-52019665D01*
X56177000Y-52302335D01*
X56232147Y-52579574D01*
X56340320Y-52840727D01*
X56497363Y-53075759D01*
X56697241Y-53275637D01*
X56932273Y-53432680D01*
X57193426Y-53540853D01*
X57221882Y-53546513D01*
X56995708Y-53627397D01*
X56870486Y-53694329D01*
X56798903Y-53938298D01*
X57612000Y-54751395D01*
X58425097Y-53938298D01*
X58353514Y-53694329D01*
X58098004Y-53573429D01*
X57995711Y-53547788D01*
X58030574Y-53540853D01*
X58291727Y-53432680D01*
X58526759Y-53275637D01*
X58726637Y-53075759D01*
X58883680Y-52840727D01*
X58991853Y-52579574D01*
X59047000Y-52302335D01*
X59047000Y-52019665D01*
X59010688Y-51837113D01*
X59265137Y-51582665D01*
X59337363Y-51690759D01*
X59537241Y-51890637D01*
X59772273Y-52047680D01*
X60033426Y-52155853D01*
X60059301Y-52161000D01*
X60033426Y-52166147D01*
X59772273Y-52274320D01*
X59537241Y-52431363D01*
X59337363Y-52631241D01*
X59180320Y-52866273D01*
X59072147Y-53127426D01*
X59017000Y-53404665D01*
X59017000Y-53687335D01*
X59072147Y-53964574D01*
X59180320Y-54225727D01*
X59337363Y-54460759D01*
X59537241Y-54660637D01*
X59772273Y-54817680D01*
X60033426Y-54925853D01*
X60059301Y-54931000D01*
X60033426Y-54936147D01*
X59772273Y-55044320D01*
X59537241Y-55201363D01*
X59337363Y-55401241D01*
X59180320Y-55636273D01*
X59072147Y-55897426D01*
X59017000Y-56174665D01*
X59017000Y-56457335D01*
X59072147Y-56734574D01*
X59180320Y-56995727D01*
X59337363Y-57230759D01*
X59537241Y-57430637D01*
X59772273Y-57587680D01*
X60033426Y-57695853D01*
X60059301Y-57701000D01*
X60033426Y-57706147D01*
X59772273Y-57814320D01*
X59537241Y-57971363D01*
X59337363Y-58171241D01*
X59180320Y-58406273D01*
X59072147Y-58667426D01*
X59017000Y-58944665D01*
X59017000Y-59227335D01*
X59072147Y-59504574D01*
X59180320Y-59765727D01*
X59337363Y-60000759D01*
X59537241Y-60200637D01*
X59772273Y-60357680D01*
X60033426Y-60465853D01*
X60310665Y-60521000D01*
X60593335Y-60521000D01*
X60870574Y-60465853D01*
X61131727Y-60357680D01*
X61366759Y-60200637D01*
X61566637Y-60000759D01*
X61723680Y-59765727D01*
X61831853Y-59504574D01*
X61887000Y-59227335D01*
X61887000Y-58944665D01*
X61831853Y-58667426D01*
X61818655Y-58635561D01*
X72561500Y-58635561D01*
X72561500Y-58839439D01*
X72601274Y-59039398D01*
X72679295Y-59227756D01*
X72792563Y-59397274D01*
X72936726Y-59541437D01*
X73106244Y-59654705D01*
X73294602Y-59732726D01*
X73494561Y-59772500D01*
X73698439Y-59772500D01*
X73898398Y-59732726D01*
X74086756Y-59654705D01*
X74256274Y-59541437D01*
X74300211Y-59497500D01*
X74551699Y-59497500D01*
X75382201Y-60328003D01*
X75405999Y-60357001D01*
X75434997Y-60380799D01*
X75521724Y-60451974D01*
X75653753Y-60522546D01*
X75797014Y-60566003D01*
X75946000Y-60580677D01*
X75983333Y-60577000D01*
X81623678Y-60577000D01*
X81661000Y-60580676D01*
X81698322Y-60577000D01*
X81698333Y-60577000D01*
X81809986Y-60566003D01*
X81953247Y-60522546D01*
X82085276Y-60451974D01*
X82201001Y-60357001D01*
X82224804Y-60327997D01*
X85314240Y-57238561D01*
X90976500Y-57238561D01*
X90976500Y-57442439D01*
X91016274Y-57642398D01*
X91094295Y-57830756D01*
X91207563Y-58000274D01*
X91351726Y-58144437D01*
X91521244Y-58257705D01*
X91709602Y-58335726D01*
X91909561Y-58375500D01*
X92113439Y-58375500D01*
X92313398Y-58335726D01*
X92501756Y-58257705D01*
X92671274Y-58144437D01*
X92815437Y-58000274D01*
X92928705Y-57830756D01*
X93006726Y-57642398D01*
X93046500Y-57442439D01*
X93046500Y-57380301D01*
X93056939Y-57369862D01*
X93053000Y-57389665D01*
X93053000Y-57672335D01*
X93108147Y-57949574D01*
X93216320Y-58210727D01*
X93373363Y-58445759D01*
X93573241Y-58645637D01*
X93808273Y-58802680D01*
X94069426Y-58910853D01*
X94346665Y-58966000D01*
X94629335Y-58966000D01*
X94906574Y-58910853D01*
X95167727Y-58802680D01*
X95402759Y-58645637D01*
X95602637Y-58445759D01*
X95759680Y-58210727D01*
X95867853Y-57949574D01*
X95923000Y-57672335D01*
X95923000Y-57389665D01*
X95867853Y-57112426D01*
X95759680Y-56851273D01*
X95602637Y-56616241D01*
X95402759Y-56416363D01*
X95167727Y-56259320D01*
X94906574Y-56151147D01*
X94629335Y-56096000D01*
X94346665Y-56096000D01*
X94326863Y-56099939D01*
X95582062Y-54844740D01*
X97448000Y-54844740D01*
X97448000Y-55137260D01*
X97505068Y-55424158D01*
X97617010Y-55694411D01*
X97779525Y-55937632D01*
X97986368Y-56144475D01*
X98160760Y-56261000D01*
X97986368Y-56377525D01*
X97779525Y-56584368D01*
X97617010Y-56827589D01*
X97505068Y-57097842D01*
X97448000Y-57384740D01*
X97448000Y-57677260D01*
X97505068Y-57964158D01*
X97617010Y-58234411D01*
X97779525Y-58477632D01*
X97986368Y-58684475D01*
X98160760Y-58801000D01*
X97986368Y-58917525D01*
X97779525Y-59124368D01*
X97617010Y-59367589D01*
X97505068Y-59637842D01*
X97448000Y-59924740D01*
X97448000Y-60217260D01*
X97505068Y-60504158D01*
X97617010Y-60774411D01*
X97779525Y-61017632D01*
X97986368Y-61224475D01*
X98229589Y-61386990D01*
X98499842Y-61498932D01*
X98786740Y-61556000D01*
X99079260Y-61556000D01*
X99366158Y-61498932D01*
X99636411Y-61386990D01*
X99879632Y-61224475D01*
X100086475Y-61017632D01*
X100248990Y-60774411D01*
X100360932Y-60504158D01*
X100418000Y-60217260D01*
X100418000Y-59924740D01*
X100360932Y-59637842D01*
X100248990Y-59367589D01*
X100086475Y-59124368D01*
X99879632Y-58917525D01*
X99705240Y-58801000D01*
X99879632Y-58684475D01*
X100063121Y-58500986D01*
X103036024Y-58500986D01*
X103111707Y-59361434D01*
X103353801Y-60190583D01*
X103753001Y-60956570D01*
X103804128Y-61033088D01*
X104350128Y-61459267D01*
X107262395Y-58547000D01*
X107621605Y-58547000D01*
X110533872Y-61459267D01*
X111079872Y-61033088D01*
X111494983Y-60275605D01*
X111754339Y-59451693D01*
X111847976Y-58593014D01*
X111772293Y-57732566D01*
X111530199Y-56903417D01*
X111130999Y-56137430D01*
X111079872Y-56060912D01*
X110533872Y-55634733D01*
X107621605Y-58547000D01*
X107262395Y-58547000D01*
X104350128Y-55634733D01*
X103804128Y-56060912D01*
X103389017Y-56818395D01*
X103129661Y-57642307D01*
X103036024Y-58500986D01*
X100063121Y-58500986D01*
X100086475Y-58477632D01*
X100248990Y-58234411D01*
X100360932Y-57964158D01*
X100418000Y-57677260D01*
X100418000Y-57384740D01*
X100360932Y-57097842D01*
X100248990Y-56827589D01*
X100086475Y-56584368D01*
X99879632Y-56377525D01*
X99705240Y-56261000D01*
X99879632Y-56144475D01*
X100086475Y-55937632D01*
X100248990Y-55694411D01*
X100348103Y-55455128D01*
X104529733Y-55455128D01*
X107442000Y-58367395D01*
X110354267Y-55455128D01*
X109928088Y-54909128D01*
X109170605Y-54494017D01*
X108346693Y-54234661D01*
X107488014Y-54141024D01*
X106627566Y-54216707D01*
X105798417Y-54458801D01*
X105032430Y-54858001D01*
X104955912Y-54909128D01*
X104529733Y-55455128D01*
X100348103Y-55455128D01*
X100360932Y-55424158D01*
X100418000Y-55137260D01*
X100418000Y-54844740D01*
X100360932Y-54557842D01*
X100248990Y-54287589D01*
X100086475Y-54044368D01*
X99879632Y-53837525D01*
X99697466Y-53715805D01*
X99814355Y-53646178D01*
X100030588Y-53451269D01*
X100204641Y-53217920D01*
X100329825Y-52955099D01*
X100374476Y-52807890D01*
X100253155Y-52578000D01*
X99060000Y-52578000D01*
X99060000Y-52598000D01*
X98806000Y-52598000D01*
X98806000Y-52578000D01*
X97612845Y-52578000D01*
X97491524Y-52807890D01*
X97536175Y-52955099D01*
X97661359Y-53217920D01*
X97835412Y-53451269D01*
X98051645Y-53646178D01*
X98168534Y-53715805D01*
X97986368Y-53837525D01*
X97779525Y-54044368D01*
X97617010Y-54287589D01*
X97505068Y-54557842D01*
X97448000Y-54844740D01*
X95582062Y-54844740D01*
X95634009Y-54792794D01*
X95663001Y-54769001D01*
X95686795Y-54740008D01*
X95686799Y-54740004D01*
X95757973Y-54653277D01*
X95757974Y-54653276D01*
X95828546Y-54521247D01*
X95872003Y-54377986D01*
X95883000Y-54266333D01*
X95883000Y-54266324D01*
X95886676Y-54229001D01*
X95883000Y-54191678D01*
X95883000Y-53027711D01*
X95926937Y-52983774D01*
X96040205Y-52814256D01*
X96118226Y-52625898D01*
X96158000Y-52425939D01*
X96158000Y-52222061D01*
X96118226Y-52022102D01*
X96040205Y-51833744D01*
X95926937Y-51664226D01*
X95782774Y-51520063D01*
X95613256Y-51406795D01*
X95424898Y-51328774D01*
X95224939Y-51289000D01*
X95021061Y-51289000D01*
X94821102Y-51328774D01*
X94632744Y-51406795D01*
X94463226Y-51520063D01*
X94319063Y-51664226D01*
X94205795Y-51833744D01*
X94127774Y-52022102D01*
X94088000Y-52222061D01*
X94088000Y-52425939D01*
X94127774Y-52625898D01*
X94205795Y-52814256D01*
X94319063Y-52983774D01*
X94363001Y-53027712D01*
X94363000Y-53914197D01*
X91971699Y-56305500D01*
X91909561Y-56305500D01*
X91709602Y-56345274D01*
X91521244Y-56423295D01*
X91351726Y-56536563D01*
X91207563Y-56680726D01*
X91094295Y-56850244D01*
X91016274Y-57038602D01*
X90976500Y-57238561D01*
X85314240Y-57238561D01*
X85474004Y-57078798D01*
X85503001Y-57055001D01*
X85597974Y-56939276D01*
X85668546Y-56807247D01*
X85712003Y-56663986D01*
X85723000Y-56552333D01*
X85723000Y-56552324D01*
X85726676Y-56515001D01*
X85723000Y-56477678D01*
X85723000Y-54939043D01*
X85877759Y-54835637D01*
X86077637Y-54635759D01*
X86233000Y-54403241D01*
X86388363Y-54635759D01*
X86588241Y-54835637D01*
X86823273Y-54992680D01*
X87084426Y-55100853D01*
X87361665Y-55156000D01*
X87644335Y-55156000D01*
X87921574Y-55100853D01*
X88182727Y-54992680D01*
X88417759Y-54835637D01*
X88616357Y-54637039D01*
X88617188Y-54645482D01*
X88653498Y-54765180D01*
X88712463Y-54875494D01*
X88791815Y-54972185D01*
X88888506Y-55051537D01*
X88998820Y-55110502D01*
X89118518Y-55146812D01*
X89243000Y-55159072D01*
X90843000Y-55159072D01*
X90967482Y-55146812D01*
X91087180Y-55110502D01*
X91197494Y-55051537D01*
X91294185Y-54972185D01*
X91373537Y-54875494D01*
X91432502Y-54765180D01*
X91468812Y-54645482D01*
X91481072Y-54521000D01*
X91481072Y-52921000D01*
X91468812Y-52796518D01*
X91432502Y-52676820D01*
X91373537Y-52566506D01*
X91294185Y-52469815D01*
X91197494Y-52390463D01*
X91087180Y-52331498D01*
X90967482Y-52295188D01*
X90843000Y-52282928D01*
X89243000Y-52282928D01*
X89118518Y-52295188D01*
X88998820Y-52331498D01*
X88888506Y-52390463D01*
X88791815Y-52469815D01*
X88712463Y-52566506D01*
X88653498Y-52676820D01*
X88617188Y-52796518D01*
X88616357Y-52804961D01*
X88417759Y-52606363D01*
X88182727Y-52449320D01*
X87921574Y-52341147D01*
X87644335Y-52286000D01*
X87361665Y-52286000D01*
X87084426Y-52341147D01*
X86823273Y-52449320D01*
X86588241Y-52606363D01*
X86388363Y-52806241D01*
X86233000Y-53038759D01*
X86077637Y-52806241D01*
X85877759Y-52606363D01*
X85642727Y-52449320D01*
X85381574Y-52341147D01*
X85104335Y-52286000D01*
X84821665Y-52286000D01*
X84544426Y-52341147D01*
X84283273Y-52449320D01*
X84048241Y-52606363D01*
X83848363Y-52806241D01*
X83693000Y-53038759D01*
X83537637Y-52806241D01*
X83337759Y-52606363D01*
X83102727Y-52449320D01*
X82841574Y-52341147D01*
X82564335Y-52286000D01*
X82281665Y-52286000D01*
X82004426Y-52341147D01*
X81743273Y-52449320D01*
X81508241Y-52606363D01*
X81308363Y-52806241D01*
X81153000Y-53038759D01*
X80997637Y-52806241D01*
X80797759Y-52606363D01*
X80562727Y-52449320D01*
X80301574Y-52341147D01*
X80024335Y-52286000D01*
X79741665Y-52286000D01*
X79464426Y-52341147D01*
X79203273Y-52449320D01*
X78968241Y-52606363D01*
X78768363Y-52806241D01*
X78611320Y-53041273D01*
X78503147Y-53302426D01*
X78448000Y-53579665D01*
X78448000Y-53862335D01*
X78503147Y-54139574D01*
X78611320Y-54400727D01*
X78768363Y-54635759D01*
X78968241Y-54835637D01*
X79203273Y-54992680D01*
X79464426Y-55100853D01*
X79741665Y-55156000D01*
X80024335Y-55156000D01*
X80301574Y-55100853D01*
X80562727Y-54992680D01*
X80797759Y-54835637D01*
X80997637Y-54635759D01*
X81153000Y-54403241D01*
X81308363Y-54635759D01*
X81508241Y-54835637D01*
X81743273Y-54992680D01*
X82004426Y-55100853D01*
X82281665Y-55156000D01*
X82564335Y-55156000D01*
X82841574Y-55100853D01*
X83102727Y-54992680D01*
X83337759Y-54835637D01*
X83537637Y-54635759D01*
X83693000Y-54403241D01*
X83848363Y-54635759D01*
X84048241Y-54835637D01*
X84203001Y-54939044D01*
X84203000Y-56200198D01*
X81346199Y-59057000D01*
X76260802Y-59057000D01*
X75430304Y-58226502D01*
X75406501Y-58197499D01*
X75290776Y-58102526D01*
X75158747Y-58031954D01*
X75015486Y-57988497D01*
X74903833Y-57977500D01*
X74903822Y-57977500D01*
X74866500Y-57973824D01*
X74829178Y-57977500D01*
X74300211Y-57977500D01*
X74256274Y-57933563D01*
X74086756Y-57820295D01*
X73898398Y-57742274D01*
X73698439Y-57702500D01*
X73494561Y-57702500D01*
X73294602Y-57742274D01*
X73106244Y-57820295D01*
X72936726Y-57933563D01*
X72792563Y-58077726D01*
X72679295Y-58247244D01*
X72601274Y-58435602D01*
X72561500Y-58635561D01*
X61818655Y-58635561D01*
X61723680Y-58406273D01*
X61566637Y-58171241D01*
X61366759Y-57971363D01*
X61131727Y-57814320D01*
X60870574Y-57706147D01*
X60844699Y-57701000D01*
X60870574Y-57695853D01*
X61131727Y-57587680D01*
X61366759Y-57430637D01*
X61407731Y-57389665D01*
X77813000Y-57389665D01*
X77813000Y-57672335D01*
X77868147Y-57949574D01*
X77976320Y-58210727D01*
X78133363Y-58445759D01*
X78333241Y-58645637D01*
X78568273Y-58802680D01*
X78829426Y-58910853D01*
X79106665Y-58966000D01*
X79389335Y-58966000D01*
X79666574Y-58910853D01*
X79927727Y-58802680D01*
X80162759Y-58645637D01*
X80362637Y-58445759D01*
X80519680Y-58210727D01*
X80627853Y-57949574D01*
X80683000Y-57672335D01*
X80683000Y-57389665D01*
X80627853Y-57112426D01*
X80519680Y-56851273D01*
X80362637Y-56616241D01*
X80162759Y-56416363D01*
X79927727Y-56259320D01*
X79666574Y-56151147D01*
X79389335Y-56096000D01*
X79106665Y-56096000D01*
X78829426Y-56151147D01*
X78568273Y-56259320D01*
X78333241Y-56416363D01*
X78133363Y-56616241D01*
X77976320Y-56851273D01*
X77868147Y-57112426D01*
X77813000Y-57389665D01*
X61407731Y-57389665D01*
X61566637Y-57230759D01*
X61723680Y-56995727D01*
X61831853Y-56734574D01*
X61887000Y-56457335D01*
X61887000Y-56174665D01*
X61831853Y-55897426D01*
X61723680Y-55636273D01*
X61566637Y-55401241D01*
X61366759Y-55201363D01*
X61131727Y-55044320D01*
X60870574Y-54936147D01*
X60844699Y-54931000D01*
X60870574Y-54925853D01*
X61131727Y-54817680D01*
X61366759Y-54660637D01*
X61566637Y-54460759D01*
X61723680Y-54225727D01*
X61831853Y-53964574D01*
X61887000Y-53687335D01*
X61887000Y-53404665D01*
X61831853Y-53127426D01*
X61723680Y-52866273D01*
X61566637Y-52631241D01*
X61366759Y-52431363D01*
X61131727Y-52274320D01*
X60870574Y-52166147D01*
X60844699Y-52161000D01*
X60870574Y-52155853D01*
X61131727Y-52047680D01*
X61366759Y-51890637D01*
X61566637Y-51690759D01*
X61723680Y-51455727D01*
X61831853Y-51194574D01*
X61887000Y-50917335D01*
X61887000Y-50634665D01*
X61831853Y-50357426D01*
X61723680Y-50096273D01*
X61566637Y-49861241D01*
X61366759Y-49661363D01*
X61131727Y-49504320D01*
X60986275Y-49444072D01*
X61252000Y-49444072D01*
X61376482Y-49431812D01*
X61496180Y-49395502D01*
X61606494Y-49336537D01*
X61689563Y-49268364D01*
X64430701Y-52009503D01*
X64454499Y-52038501D01*
X64570224Y-52133474D01*
X64702253Y-52204046D01*
X64845514Y-52247503D01*
X64957167Y-52258500D01*
X64957177Y-52258500D01*
X64994500Y-52262176D01*
X65031823Y-52258500D01*
X65797644Y-52258500D01*
X65767000Y-52412561D01*
X65767000Y-52616439D01*
X65806774Y-52816398D01*
X65884795Y-53004756D01*
X65972411Y-53135883D01*
X65824726Y-53234563D01*
X65680563Y-53378726D01*
X65567295Y-53548244D01*
X65489274Y-53736602D01*
X65449500Y-53936561D01*
X65449500Y-53998698D01*
X65020998Y-54427201D01*
X64992000Y-54450999D01*
X64968202Y-54479997D01*
X64968201Y-54479998D01*
X64897026Y-54566724D01*
X64826454Y-54698754D01*
X64810486Y-54751395D01*
X64782998Y-54842014D01*
X64774234Y-54931000D01*
X64768324Y-54991000D01*
X64772001Y-55028332D01*
X64772001Y-55303288D01*
X64728063Y-55347226D01*
X64614795Y-55516744D01*
X64536774Y-55705102D01*
X64497000Y-55905061D01*
X64497000Y-56108939D01*
X64536774Y-56308898D01*
X64614795Y-56497256D01*
X64728063Y-56666774D01*
X64872226Y-56810937D01*
X65041744Y-56924205D01*
X65230102Y-57002226D01*
X65430061Y-57042000D01*
X65633939Y-57042000D01*
X65833898Y-57002226D01*
X66022256Y-56924205D01*
X66191774Y-56810937D01*
X66335937Y-56666774D01*
X66449205Y-56497256D01*
X66527226Y-56308898D01*
X66567000Y-56108939D01*
X66567000Y-55905061D01*
X66527226Y-55705102D01*
X66449205Y-55516744D01*
X66335937Y-55347226D01*
X66293256Y-55304545D01*
X66524302Y-55073500D01*
X66586439Y-55073500D01*
X66786398Y-55033726D01*
X66974756Y-54955705D01*
X67024250Y-54922634D01*
X67073744Y-54955705D01*
X67262102Y-55033726D01*
X67462061Y-55073500D01*
X67665939Y-55073500D01*
X67865898Y-55033726D01*
X68054256Y-54955705D01*
X68223774Y-54842437D01*
X68367937Y-54698274D01*
X68481205Y-54528756D01*
X68559226Y-54340398D01*
X68599000Y-54140439D01*
X68599000Y-53936561D01*
X68559226Y-53736602D01*
X68481205Y-53548244D01*
X68367937Y-53378726D01*
X68223774Y-53234563D01*
X68054256Y-53121295D01*
X67865898Y-53043274D01*
X67713697Y-53013000D01*
X67719205Y-53004756D01*
X67797226Y-52816398D01*
X67837000Y-52616439D01*
X67837000Y-52412561D01*
X67806356Y-52258500D01*
X71749789Y-52258500D01*
X71793726Y-52302437D01*
X71963244Y-52415705D01*
X72151602Y-52493726D01*
X72351561Y-52533500D01*
X72555439Y-52533500D01*
X72755398Y-52493726D01*
X72943756Y-52415705D01*
X73113274Y-52302437D01*
X73257437Y-52158274D01*
X73370705Y-51988756D01*
X73448726Y-51800398D01*
X73488500Y-51600439D01*
X73488500Y-51396561D01*
X73448726Y-51196602D01*
X73370705Y-51008244D01*
X73257437Y-50838726D01*
X73113274Y-50694563D01*
X72943756Y-50581295D01*
X72755398Y-50503274D01*
X72555439Y-50463500D01*
X72351561Y-50463500D01*
X72151602Y-50503274D01*
X71963244Y-50581295D01*
X71793726Y-50694563D01*
X71749789Y-50738500D01*
X65309302Y-50738500D01*
X62065804Y-47495003D01*
X62042001Y-47465999D01*
X61926276Y-47371026D01*
X61890072Y-47351674D01*
X61890072Y-47206000D01*
X61877812Y-47081518D01*
X61841502Y-46961820D01*
X61782537Y-46851506D01*
X61703185Y-46754815D01*
X61606494Y-46675463D01*
X61496180Y-46616498D01*
X61376482Y-46580188D01*
X61252000Y-46567928D01*
X60297874Y-46567928D01*
X60322302Y-46543500D01*
X71581515Y-46543500D01*
X73064013Y-48025999D01*
X71583823Y-48025999D01*
X71546500Y-48022323D01*
X71509177Y-48025999D01*
X71509168Y-48025999D01*
X71397515Y-48036996D01*
X71254254Y-48080453D01*
X71122225Y-48151025D01*
X71089965Y-48177500D01*
X71018061Y-48177500D01*
X70818102Y-48217274D01*
X70629744Y-48295295D01*
X70460226Y-48408563D01*
X70316063Y-48552726D01*
X70202795Y-48722244D01*
X70124774Y-48910602D01*
X70085000Y-49110561D01*
X70085000Y-49314439D01*
X70124774Y-49514398D01*
X70202795Y-49702756D01*
X70316063Y-49872274D01*
X70460226Y-50016437D01*
X70629744Y-50129705D01*
X70818102Y-50207726D01*
X71018061Y-50247500D01*
X71221939Y-50247500D01*
X71421898Y-50207726D01*
X71610256Y-50129705D01*
X71779774Y-50016437D01*
X71923937Y-49872274D01*
X72037205Y-49702756D01*
X72102136Y-49545999D01*
X77793991Y-49545999D01*
X77749500Y-49769665D01*
X77749500Y-50052335D01*
X77804647Y-50329574D01*
X77912820Y-50590727D01*
X78069863Y-50825759D01*
X78269741Y-51025637D01*
X78504773Y-51182680D01*
X78765926Y-51290853D01*
X79043165Y-51346000D01*
X79325835Y-51346000D01*
X79603074Y-51290853D01*
X79864227Y-51182680D01*
X80099259Y-51025637D01*
X80299137Y-50825759D01*
X80456180Y-50590727D01*
X80564353Y-50329574D01*
X80578184Y-50260039D01*
X93032596Y-50260039D01*
X93073254Y-50394087D01*
X93193463Y-50648420D01*
X93360981Y-50874414D01*
X93569369Y-51063385D01*
X93810619Y-51208070D01*
X94075460Y-51302909D01*
X94297500Y-51181624D01*
X94297500Y-50038000D01*
X94551500Y-50038000D01*
X94551500Y-51181624D01*
X94773540Y-51302909D01*
X95038381Y-51208070D01*
X95279631Y-51063385D01*
X95488019Y-50874414D01*
X95655537Y-50648420D01*
X95775746Y-50394087D01*
X95816404Y-50260039D01*
X95694415Y-50038000D01*
X94551500Y-50038000D01*
X94297500Y-50038000D01*
X93154585Y-50038000D01*
X93032596Y-50260039D01*
X80578184Y-50260039D01*
X80619500Y-50052335D01*
X80619500Y-49769665D01*
X80575009Y-49545999D01*
X93037437Y-49545999D01*
X93032596Y-49561961D01*
X93154585Y-49784000D01*
X94297500Y-49784000D01*
X94297500Y-49764000D01*
X94551500Y-49764000D01*
X94551500Y-49784000D01*
X95694415Y-49784000D01*
X95816404Y-49561961D01*
X95811563Y-49545999D01*
X97491511Y-49545999D01*
X97448000Y-49764740D01*
X97448000Y-50057260D01*
X97505068Y-50344158D01*
X97617010Y-50614411D01*
X97779525Y-50857632D01*
X97986368Y-51064475D01*
X98168534Y-51186195D01*
X98051645Y-51255822D01*
X97835412Y-51450731D01*
X97661359Y-51684080D01*
X97536175Y-51946901D01*
X97491524Y-52094110D01*
X97612845Y-52324000D01*
X98806000Y-52324000D01*
X98806000Y-52304000D01*
X99060000Y-52304000D01*
X99060000Y-52324000D01*
X100253155Y-52324000D01*
X100374476Y-52094110D01*
X100329825Y-51946901D01*
X100288373Y-51859872D01*
X104529733Y-51859872D01*
X104955912Y-52405872D01*
X105713395Y-52820983D01*
X106537307Y-53080339D01*
X107395986Y-53173976D01*
X108256434Y-53098293D01*
X109085583Y-52856199D01*
X109851570Y-52456999D01*
X109928088Y-52405872D01*
X110354267Y-51859872D01*
X107442000Y-48947605D01*
X104529733Y-51859872D01*
X100288373Y-51859872D01*
X100204641Y-51684080D01*
X100030588Y-51450731D01*
X99814355Y-51255822D01*
X99697466Y-51186195D01*
X99879632Y-51064475D01*
X100086475Y-50857632D01*
X100248990Y-50614411D01*
X100360932Y-50344158D01*
X100418000Y-50057260D01*
X100418000Y-49764740D01*
X100360932Y-49477842D01*
X100248990Y-49207589D01*
X100086475Y-48964368D01*
X99954620Y-48832513D01*
X100027180Y-48810502D01*
X100137494Y-48751537D01*
X100173502Y-48721986D01*
X103036024Y-48721986D01*
X103111707Y-49582434D01*
X103353801Y-50411583D01*
X103753001Y-51177570D01*
X103804128Y-51254088D01*
X104350128Y-51680267D01*
X107262395Y-48768000D01*
X107621605Y-48768000D01*
X110533872Y-51680267D01*
X111079872Y-51254088D01*
X111494983Y-50496605D01*
X111754339Y-49672693D01*
X111847976Y-48814014D01*
X111772293Y-47953566D01*
X111530199Y-47124417D01*
X111130999Y-46358430D01*
X111079872Y-46281912D01*
X110533872Y-45855733D01*
X107621605Y-48768000D01*
X107262395Y-48768000D01*
X104350128Y-45855733D01*
X103804128Y-46281912D01*
X103389017Y-47039395D01*
X103129661Y-47863307D01*
X103036024Y-48721986D01*
X100173502Y-48721986D01*
X100234185Y-48672185D01*
X100313537Y-48575494D01*
X100372502Y-48465180D01*
X100408812Y-48345482D01*
X100421072Y-48221000D01*
X100421072Y-46521000D01*
X100408812Y-46396518D01*
X100372502Y-46276820D01*
X100313537Y-46166506D01*
X100234185Y-46069815D01*
X100137494Y-45990463D01*
X100027180Y-45931498D01*
X99907482Y-45895188D01*
X99783000Y-45882928D01*
X98083000Y-45882928D01*
X97958518Y-45895188D01*
X97838820Y-45931498D01*
X97728506Y-45990463D01*
X97631815Y-46069815D01*
X97552463Y-46166506D01*
X97493498Y-46276820D01*
X97457188Y-46396518D01*
X97444928Y-46521000D01*
X97444928Y-48025999D01*
X75774500Y-48025999D01*
X75774500Y-47959060D01*
X75734726Y-47759101D01*
X75656705Y-47570743D01*
X75543437Y-47401225D01*
X75399274Y-47257062D01*
X75229756Y-47143794D01*
X75041398Y-47065773D01*
X74841439Y-47025999D01*
X74637561Y-47025999D01*
X74437602Y-47065773D01*
X74307345Y-47119727D01*
X72512283Y-45324665D01*
X77749500Y-45324665D01*
X77749500Y-45607335D01*
X77804647Y-45884574D01*
X77912820Y-46145727D01*
X78069863Y-46380759D01*
X78269741Y-46580637D01*
X78504773Y-46737680D01*
X78765926Y-46845853D01*
X79043165Y-46901000D01*
X79325835Y-46901000D01*
X79603074Y-46845853D01*
X79864227Y-46737680D01*
X80099259Y-46580637D01*
X80299137Y-46380759D01*
X80456180Y-46145727D01*
X80564353Y-45884574D01*
X80619500Y-45607335D01*
X80619500Y-45324665D01*
X92989500Y-45324665D01*
X92989500Y-45607335D01*
X93044647Y-45884574D01*
X93152820Y-46145727D01*
X93309863Y-46380759D01*
X93509741Y-46580637D01*
X93744773Y-46737680D01*
X94005926Y-46845853D01*
X94283165Y-46901000D01*
X94565835Y-46901000D01*
X94843074Y-46845853D01*
X95104227Y-46737680D01*
X95339259Y-46580637D01*
X95539137Y-46380759D01*
X95696180Y-46145727D01*
X95804353Y-45884574D01*
X95845816Y-45676128D01*
X104529733Y-45676128D01*
X107442000Y-48588395D01*
X110354267Y-45676128D01*
X109928088Y-45130128D01*
X109170605Y-44715017D01*
X108346693Y-44455661D01*
X107488014Y-44362024D01*
X106627566Y-44437707D01*
X105798417Y-44679801D01*
X105032430Y-45079001D01*
X104955912Y-45130128D01*
X104529733Y-45676128D01*
X95845816Y-45676128D01*
X95859500Y-45607335D01*
X95859500Y-45324665D01*
X95804353Y-45047426D01*
X95696180Y-44786273D01*
X95539137Y-44551241D01*
X95339259Y-44351363D01*
X95104227Y-44194320D01*
X94843074Y-44086147D01*
X94565835Y-44031000D01*
X94283165Y-44031000D01*
X94005926Y-44086147D01*
X93744773Y-44194320D01*
X93509741Y-44351363D01*
X93309863Y-44551241D01*
X93152820Y-44786273D01*
X93044647Y-45047426D01*
X92989500Y-45324665D01*
X80619500Y-45324665D01*
X80564353Y-45047426D01*
X80456180Y-44786273D01*
X80299137Y-44551241D01*
X80099259Y-44351363D01*
X79864227Y-44194320D01*
X79603074Y-44086147D01*
X79325835Y-44031000D01*
X79043165Y-44031000D01*
X78765926Y-44086147D01*
X78504773Y-44194320D01*
X78269741Y-44351363D01*
X78069863Y-44551241D01*
X77912820Y-44786273D01*
X77804647Y-45047426D01*
X77749500Y-45324665D01*
X72512283Y-45324665D01*
X72460120Y-45272503D01*
X72436317Y-45243499D01*
X72320592Y-45148526D01*
X72188563Y-45077954D01*
X72045302Y-45034497D01*
X71933649Y-45023500D01*
X71933638Y-45023500D01*
X71896316Y-45019824D01*
X71858994Y-45023500D01*
X60044833Y-45023500D01*
X60007500Y-45019823D01*
X59970167Y-45023500D01*
X59858514Y-45034497D01*
X59715253Y-45077954D01*
X59583224Y-45148526D01*
X59467499Y-45243499D01*
X59443701Y-45272497D01*
X58417002Y-46299196D01*
X58387999Y-46322999D01*
X58358922Y-46358430D01*
X58293026Y-46438724D01*
X58266128Y-46489046D01*
X58222454Y-46570754D01*
X58178997Y-46714015D01*
X58168000Y-46825668D01*
X58168000Y-46825678D01*
X58164324Y-46863000D01*
X58168000Y-46900323D01*
X58168000Y-48068071D01*
X58030574Y-48011147D01*
X57753335Y-47956000D01*
X57470665Y-47956000D01*
X57193426Y-48011147D01*
X56932273Y-48119320D01*
X56697241Y-48276363D01*
X56497363Y-48476241D01*
X56340320Y-48711273D01*
X56232147Y-48972426D01*
X56177000Y-49249665D01*
X52857000Y-49249665D01*
X52857000Y-40786475D01*
X57517000Y-40786475D01*
X57517000Y-41305525D01*
X57618261Y-41814601D01*
X57816893Y-42294141D01*
X58105262Y-42725715D01*
X58472285Y-43092738D01*
X58903859Y-43381107D01*
X59383399Y-43579739D01*
X59892475Y-43681000D01*
X60411525Y-43681000D01*
X60920601Y-43579739D01*
X61400141Y-43381107D01*
X61831715Y-43092738D01*
X62198738Y-42725715D01*
X62487107Y-42294141D01*
X62685739Y-41814601D01*
X62787000Y-41305525D01*
X62787000Y-40786475D01*
X62685739Y-40277399D01*
X62487107Y-39797859D01*
X62198738Y-39366285D01*
X61831715Y-38999262D01*
X61400141Y-38710893D01*
X60920601Y-38512261D01*
X60411525Y-38411000D01*
X59892475Y-38411000D01*
X59383399Y-38512261D01*
X58903859Y-38710893D01*
X58472285Y-38999262D01*
X58105262Y-39366285D01*
X57816893Y-39797859D01*
X57618261Y-40277399D01*
X57517000Y-40786475D01*
X52857000Y-40786475D01*
X52857000Y-34569000D01*
X112243000Y-34569000D01*
X112243001Y-72873000D01*
G37*
X112243001Y-72873000D02*
X52857000Y-72873000D01*
X52857000Y-65786475D01*
X57517000Y-65786475D01*
X57517000Y-66305525D01*
X57618261Y-66814601D01*
X57816893Y-67294141D01*
X58105262Y-67725715D01*
X58472285Y-68092738D01*
X58903859Y-68381107D01*
X59383399Y-68579739D01*
X59892475Y-68681000D01*
X60411525Y-68681000D01*
X60920601Y-68579739D01*
X61400141Y-68381107D01*
X61831715Y-68092738D01*
X62198738Y-67725715D01*
X62487107Y-67294141D01*
X62685739Y-66814601D01*
X62787000Y-66305525D01*
X62787000Y-65786475D01*
X62685739Y-65277399D01*
X62487107Y-64797859D01*
X62198738Y-64366285D01*
X61831715Y-63999262D01*
X61400141Y-63710893D01*
X60920601Y-63512261D01*
X60411525Y-63411000D01*
X59892475Y-63411000D01*
X59383399Y-63512261D01*
X58903859Y-63710893D01*
X58472285Y-63999262D01*
X58105262Y-64366285D01*
X57816893Y-64797859D01*
X57618261Y-65277399D01*
X57517000Y-65786475D01*
X52857000Y-65786475D01*
X52857000Y-62215665D01*
X77813000Y-62215665D01*
X77813000Y-62498335D01*
X77868147Y-62775574D01*
X77976320Y-63036727D01*
X78133363Y-63271759D01*
X78333241Y-63471637D01*
X78568273Y-63628680D01*
X78829426Y-63736853D01*
X79106665Y-63792000D01*
X79389335Y-63792000D01*
X79666574Y-63736853D01*
X79927727Y-63628680D01*
X80162759Y-63471637D01*
X80362637Y-63271759D01*
X80519680Y-63036727D01*
X80627853Y-62775574D01*
X80641684Y-62706039D01*
X93096096Y-62706039D01*
X93136754Y-62840087D01*
X93256963Y-63094420D01*
X93424481Y-63320414D01*
X93632869Y-63509385D01*
X93874119Y-63654070D01*
X94138960Y-63748909D01*
X94361000Y-63627624D01*
X94361000Y-62484000D01*
X94615000Y-62484000D01*
X94615000Y-63627624D01*
X94837040Y-63748909D01*
X95101881Y-63654070D01*
X95343131Y-63509385D01*
X95551519Y-63320414D01*
X95719037Y-63094420D01*
X95839246Y-62840087D01*
X95879904Y-62706039D01*
X95757915Y-62484000D01*
X94615000Y-62484000D01*
X94361000Y-62484000D01*
X93218085Y-62484000D01*
X93096096Y-62706039D01*
X80641684Y-62706039D01*
X80683000Y-62498335D01*
X80683000Y-62215665D01*
X80641685Y-62007961D01*
X93096096Y-62007961D01*
X93218085Y-62230000D01*
X94361000Y-62230000D01*
X94361000Y-61086376D01*
X94615000Y-61086376D01*
X94615000Y-62230000D01*
X95757915Y-62230000D01*
X95879904Y-62007961D01*
X95839246Y-61873913D01*
X95728156Y-61638872D01*
X104529733Y-61638872D01*
X104955912Y-62184872D01*
X105713395Y-62599983D01*
X106537307Y-62859339D01*
X107395986Y-62952976D01*
X108256434Y-62877293D01*
X109085583Y-62635199D01*
X109851570Y-62235999D01*
X109928088Y-62184872D01*
X110354267Y-61638872D01*
X107442000Y-58726605D01*
X104529733Y-61638872D01*
X95728156Y-61638872D01*
X95719037Y-61619580D01*
X95551519Y-61393586D01*
X95343131Y-61204615D01*
X95101881Y-61059930D01*
X94837040Y-60965091D01*
X94615000Y-61086376D01*
X94361000Y-61086376D01*
X94138960Y-60965091D01*
X93874119Y-61059930D01*
X93632869Y-61204615D01*
X93424481Y-61393586D01*
X93256963Y-61619580D01*
X93136754Y-61873913D01*
X93096096Y-62007961D01*
X80641685Y-62007961D01*
X80627853Y-61938426D01*
X80519680Y-61677273D01*
X80362637Y-61442241D01*
X80162759Y-61242363D01*
X79927727Y-61085320D01*
X79666574Y-60977147D01*
X79389335Y-60922000D01*
X79106665Y-60922000D01*
X78829426Y-60977147D01*
X78568273Y-61085320D01*
X78333241Y-61242363D01*
X78133363Y-61442241D01*
X77976320Y-61677273D01*
X77868147Y-61938426D01*
X77813000Y-62215665D01*
X52857000Y-62215665D01*
X52857000Y-57559665D01*
X56177000Y-57559665D01*
X56177000Y-57842335D01*
X56232147Y-58119574D01*
X56340320Y-58380727D01*
X56497363Y-58615759D01*
X56697241Y-58815637D01*
X56932273Y-58972680D01*
X57193426Y-59080853D01*
X57470665Y-59136000D01*
X57753335Y-59136000D01*
X58030574Y-59080853D01*
X58291727Y-58972680D01*
X58526759Y-58815637D01*
X58726637Y-58615759D01*
X58883680Y-58380727D01*
X58991853Y-58119574D01*
X59047000Y-57842335D01*
X59047000Y-57559665D01*
X58991853Y-57282426D01*
X58883680Y-57021273D01*
X58726637Y-56786241D01*
X58526759Y-56586363D01*
X58291727Y-56429320D01*
X58030574Y-56321147D01*
X58002118Y-56315487D01*
X58228292Y-56234603D01*
X58353514Y-56167671D01*
X58425097Y-55923702D01*
X57612000Y-55110605D01*
X56798903Y-55923702D01*
X56870486Y-56167671D01*
X57125996Y-56288571D01*
X57228289Y-56314212D01*
X57193426Y-56321147D01*
X56932273Y-56429320D01*
X56697241Y-56586363D01*
X56497363Y-56786241D01*
X56340320Y-57021273D01*
X56232147Y-57282426D01*
X56177000Y-57559665D01*
X52857000Y-57559665D01*
X52857000Y-55001512D01*
X56171783Y-55001512D01*
X56213213Y-55281130D01*
X56308397Y-55547292D01*
X56375329Y-55672514D01*
X56619298Y-55744097D01*
X57432395Y-54931000D01*
X57791605Y-54931000D01*
X58604702Y-55744097D01*
X58848671Y-55672514D01*
X58969571Y-55417004D01*
X59038300Y-55142816D01*
X59052217Y-54860488D01*
X59010787Y-54580870D01*
X58915603Y-54314708D01*
X58848671Y-54189486D01*
X58604702Y-54117903D01*
X57791605Y-54931000D01*
X57432395Y-54931000D01*
X56619298Y-54117903D01*
X56375329Y-54189486D01*
X56254429Y-54444996D01*
X56185700Y-54719184D01*
X56171783Y-55001512D01*
X52857000Y-55001512D01*
X52857000Y-49249665D01*
X56177000Y-49249665D01*
X56177000Y-49532335D01*
X56232147Y-49809574D01*
X56340320Y-50070727D01*
X56497363Y-50305759D01*
X56697241Y-50505637D01*
X56932273Y-50662680D01*
X57193426Y-50770853D01*
X57219301Y-50776000D01*
X57193426Y-50781147D01*
X56932273Y-50889320D01*
X56697241Y-51046363D01*
X56497363Y-51246241D01*
X56340320Y-51481273D01*
X56232147Y-51742426D01*
X56177000Y-52019665D01*
X56177000Y-52302335D01*
X56232147Y-52579574D01*
X56340320Y-52840727D01*
X56497363Y-53075759D01*
X56697241Y-53275637D01*
X56932273Y-53432680D01*
X57193426Y-53540853D01*
X57221882Y-53546513D01*
X56995708Y-53627397D01*
X56870486Y-53694329D01*
X56798903Y-53938298D01*
X57612000Y-54751395D01*
X58425097Y-53938298D01*
X58353514Y-53694329D01*
X58098004Y-53573429D01*
X57995711Y-53547788D01*
X58030574Y-53540853D01*
X58291727Y-53432680D01*
X58526759Y-53275637D01*
X58726637Y-53075759D01*
X58883680Y-52840727D01*
X58991853Y-52579574D01*
X59047000Y-52302335D01*
X59047000Y-52019665D01*
X59010688Y-51837113D01*
X59265137Y-51582665D01*
X59337363Y-51690759D01*
X59537241Y-51890637D01*
X59772273Y-52047680D01*
X60033426Y-52155853D01*
X60059301Y-52161000D01*
X60033426Y-52166147D01*
X59772273Y-52274320D01*
X59537241Y-52431363D01*
X59337363Y-52631241D01*
X59180320Y-52866273D01*
X59072147Y-53127426D01*
X59017000Y-53404665D01*
X59017000Y-53687335D01*
X59072147Y-53964574D01*
X59180320Y-54225727D01*
X59337363Y-54460759D01*
X59537241Y-54660637D01*
X59772273Y-54817680D01*
X60033426Y-54925853D01*
X60059301Y-54931000D01*
X60033426Y-54936147D01*
X59772273Y-55044320D01*
X59537241Y-55201363D01*
X59337363Y-55401241D01*
X59180320Y-55636273D01*
X59072147Y-55897426D01*
X59017000Y-56174665D01*
X59017000Y-56457335D01*
X59072147Y-56734574D01*
X59180320Y-56995727D01*
X59337363Y-57230759D01*
X59537241Y-57430637D01*
X59772273Y-57587680D01*
X60033426Y-57695853D01*
X60059301Y-57701000D01*
X60033426Y-57706147D01*
X59772273Y-57814320D01*
X59537241Y-57971363D01*
X59337363Y-58171241D01*
X59180320Y-58406273D01*
X59072147Y-58667426D01*
X59017000Y-58944665D01*
X59017000Y-59227335D01*
X59072147Y-59504574D01*
X59180320Y-59765727D01*
X59337363Y-60000759D01*
X59537241Y-60200637D01*
X59772273Y-60357680D01*
X60033426Y-60465853D01*
X60310665Y-60521000D01*
X60593335Y-60521000D01*
X60870574Y-60465853D01*
X61131727Y-60357680D01*
X61366759Y-60200637D01*
X61566637Y-60000759D01*
X61723680Y-59765727D01*
X61831853Y-59504574D01*
X61887000Y-59227335D01*
X61887000Y-58944665D01*
X61831853Y-58667426D01*
X61818655Y-58635561D01*
X72561500Y-58635561D01*
X72561500Y-58839439D01*
X72601274Y-59039398D01*
X72679295Y-59227756D01*
X72792563Y-59397274D01*
X72936726Y-59541437D01*
X73106244Y-59654705D01*
X73294602Y-59732726D01*
X73494561Y-59772500D01*
X73698439Y-59772500D01*
X73898398Y-59732726D01*
X74086756Y-59654705D01*
X74256274Y-59541437D01*
X74300211Y-59497500D01*
X74551699Y-59497500D01*
X75382201Y-60328003D01*
X75405999Y-60357001D01*
X75434997Y-60380799D01*
X75521724Y-60451974D01*
X75653753Y-60522546D01*
X75797014Y-60566003D01*
X75946000Y-60580677D01*
X75983333Y-60577000D01*
X81623678Y-60577000D01*
X81661000Y-60580676D01*
X81698322Y-60577000D01*
X81698333Y-60577000D01*
X81809986Y-60566003D01*
X81953247Y-60522546D01*
X82085276Y-60451974D01*
X82201001Y-60357001D01*
X82224804Y-60327997D01*
X85314240Y-57238561D01*
X90976500Y-57238561D01*
X90976500Y-57442439D01*
X91016274Y-57642398D01*
X91094295Y-57830756D01*
X91207563Y-58000274D01*
X91351726Y-58144437D01*
X91521244Y-58257705D01*
X91709602Y-58335726D01*
X91909561Y-58375500D01*
X92113439Y-58375500D01*
X92313398Y-58335726D01*
X92501756Y-58257705D01*
X92671274Y-58144437D01*
X92815437Y-58000274D01*
X92928705Y-57830756D01*
X93006726Y-57642398D01*
X93046500Y-57442439D01*
X93046500Y-57380301D01*
X93056939Y-57369862D01*
X93053000Y-57389665D01*
X93053000Y-57672335D01*
X93108147Y-57949574D01*
X93216320Y-58210727D01*
X93373363Y-58445759D01*
X93573241Y-58645637D01*
X93808273Y-58802680D01*
X94069426Y-58910853D01*
X94346665Y-58966000D01*
X94629335Y-58966000D01*
X94906574Y-58910853D01*
X95167727Y-58802680D01*
X95402759Y-58645637D01*
X95602637Y-58445759D01*
X95759680Y-58210727D01*
X95867853Y-57949574D01*
X95923000Y-57672335D01*
X95923000Y-57389665D01*
X95867853Y-57112426D01*
X95759680Y-56851273D01*
X95602637Y-56616241D01*
X95402759Y-56416363D01*
X95167727Y-56259320D01*
X94906574Y-56151147D01*
X94629335Y-56096000D01*
X94346665Y-56096000D01*
X94326863Y-56099939D01*
X95582062Y-54844740D01*
X97448000Y-54844740D01*
X97448000Y-55137260D01*
X97505068Y-55424158D01*
X97617010Y-55694411D01*
X97779525Y-55937632D01*
X97986368Y-56144475D01*
X98160760Y-56261000D01*
X97986368Y-56377525D01*
X97779525Y-56584368D01*
X97617010Y-56827589D01*
X97505068Y-57097842D01*
X97448000Y-57384740D01*
X97448000Y-57677260D01*
X97505068Y-57964158D01*
X97617010Y-58234411D01*
X97779525Y-58477632D01*
X97986368Y-58684475D01*
X98160760Y-58801000D01*
X97986368Y-58917525D01*
X97779525Y-59124368D01*
X97617010Y-59367589D01*
X97505068Y-59637842D01*
X97448000Y-59924740D01*
X97448000Y-60217260D01*
X97505068Y-60504158D01*
X97617010Y-60774411D01*
X97779525Y-61017632D01*
X97986368Y-61224475D01*
X98229589Y-61386990D01*
X98499842Y-61498932D01*
X98786740Y-61556000D01*
X99079260Y-61556000D01*
X99366158Y-61498932D01*
X99636411Y-61386990D01*
X99879632Y-61224475D01*
X100086475Y-61017632D01*
X100248990Y-60774411D01*
X100360932Y-60504158D01*
X100418000Y-60217260D01*
X100418000Y-59924740D01*
X100360932Y-59637842D01*
X100248990Y-59367589D01*
X100086475Y-59124368D01*
X99879632Y-58917525D01*
X99705240Y-58801000D01*
X99879632Y-58684475D01*
X100063121Y-58500986D01*
X103036024Y-58500986D01*
X103111707Y-59361434D01*
X103353801Y-60190583D01*
X103753001Y-60956570D01*
X103804128Y-61033088D01*
X104350128Y-61459267D01*
X107262395Y-58547000D01*
X107621605Y-58547000D01*
X110533872Y-61459267D01*
X111079872Y-61033088D01*
X111494983Y-60275605D01*
X111754339Y-59451693D01*
X111847976Y-58593014D01*
X111772293Y-57732566D01*
X111530199Y-56903417D01*
X111130999Y-56137430D01*
X111079872Y-56060912D01*
X110533872Y-55634733D01*
X107621605Y-58547000D01*
X107262395Y-58547000D01*
X104350128Y-55634733D01*
X103804128Y-56060912D01*
X103389017Y-56818395D01*
X103129661Y-57642307D01*
X103036024Y-58500986D01*
X100063121Y-58500986D01*
X100086475Y-58477632D01*
X100248990Y-58234411D01*
X100360932Y-57964158D01*
X100418000Y-57677260D01*
X100418000Y-57384740D01*
X100360932Y-57097842D01*
X100248990Y-56827589D01*
X100086475Y-56584368D01*
X99879632Y-56377525D01*
X99705240Y-56261000D01*
X99879632Y-56144475D01*
X100086475Y-55937632D01*
X100248990Y-55694411D01*
X100348103Y-55455128D01*
X104529733Y-55455128D01*
X107442000Y-58367395D01*
X110354267Y-55455128D01*
X109928088Y-54909128D01*
X109170605Y-54494017D01*
X108346693Y-54234661D01*
X107488014Y-54141024D01*
X106627566Y-54216707D01*
X105798417Y-54458801D01*
X105032430Y-54858001D01*
X104955912Y-54909128D01*
X104529733Y-55455128D01*
X100348103Y-55455128D01*
X100360932Y-55424158D01*
X100418000Y-55137260D01*
X100418000Y-54844740D01*
X100360932Y-54557842D01*
X100248990Y-54287589D01*
X100086475Y-54044368D01*
X99879632Y-53837525D01*
X99697466Y-53715805D01*
X99814355Y-53646178D01*
X100030588Y-53451269D01*
X100204641Y-53217920D01*
X100329825Y-52955099D01*
X100374476Y-52807890D01*
X100253155Y-52578000D01*
X99060000Y-52578000D01*
X99060000Y-52598000D01*
X98806000Y-52598000D01*
X98806000Y-52578000D01*
X97612845Y-52578000D01*
X97491524Y-52807890D01*
X97536175Y-52955099D01*
X97661359Y-53217920D01*
X97835412Y-53451269D01*
X98051645Y-53646178D01*
X98168534Y-53715805D01*
X97986368Y-53837525D01*
X97779525Y-54044368D01*
X97617010Y-54287589D01*
X97505068Y-54557842D01*
X97448000Y-54844740D01*
X95582062Y-54844740D01*
X95634009Y-54792794D01*
X95663001Y-54769001D01*
X95686795Y-54740008D01*
X95686799Y-54740004D01*
X95757973Y-54653277D01*
X95757974Y-54653276D01*
X95828546Y-54521247D01*
X95872003Y-54377986D01*
X95883000Y-54266333D01*
X95883000Y-54266324D01*
X95886676Y-54229001D01*
X95883000Y-54191678D01*
X95883000Y-53027711D01*
X95926937Y-52983774D01*
X96040205Y-52814256D01*
X96118226Y-52625898D01*
X96158000Y-52425939D01*
X96158000Y-52222061D01*
X96118226Y-52022102D01*
X96040205Y-51833744D01*
X95926937Y-51664226D01*
X95782774Y-51520063D01*
X95613256Y-51406795D01*
X95424898Y-51328774D01*
X95224939Y-51289000D01*
X95021061Y-51289000D01*
X94821102Y-51328774D01*
X94632744Y-51406795D01*
X94463226Y-51520063D01*
X94319063Y-51664226D01*
X94205795Y-51833744D01*
X94127774Y-52022102D01*
X94088000Y-52222061D01*
X94088000Y-52425939D01*
X94127774Y-52625898D01*
X94205795Y-52814256D01*
X94319063Y-52983774D01*
X94363001Y-53027712D01*
X94363000Y-53914197D01*
X91971699Y-56305500D01*
X91909561Y-56305500D01*
X91709602Y-56345274D01*
X91521244Y-56423295D01*
X91351726Y-56536563D01*
X91207563Y-56680726D01*
X91094295Y-56850244D01*
X91016274Y-57038602D01*
X90976500Y-57238561D01*
X85314240Y-57238561D01*
X85474004Y-57078798D01*
X85503001Y-57055001D01*
X85597974Y-56939276D01*
X85668546Y-56807247D01*
X85712003Y-56663986D01*
X85723000Y-56552333D01*
X85723000Y-56552324D01*
X85726676Y-56515001D01*
X85723000Y-56477678D01*
X85723000Y-54939043D01*
X85877759Y-54835637D01*
X86077637Y-54635759D01*
X86233000Y-54403241D01*
X86388363Y-54635759D01*
X86588241Y-54835637D01*
X86823273Y-54992680D01*
X87084426Y-55100853D01*
X87361665Y-55156000D01*
X87644335Y-55156000D01*
X87921574Y-55100853D01*
X88182727Y-54992680D01*
X88417759Y-54835637D01*
X88616357Y-54637039D01*
X88617188Y-54645482D01*
X88653498Y-54765180D01*
X88712463Y-54875494D01*
X88791815Y-54972185D01*
X88888506Y-55051537D01*
X88998820Y-55110502D01*
X89118518Y-55146812D01*
X89243000Y-55159072D01*
X90843000Y-55159072D01*
X90967482Y-55146812D01*
X91087180Y-55110502D01*
X91197494Y-55051537D01*
X91294185Y-54972185D01*
X91373537Y-54875494D01*
X91432502Y-54765180D01*
X91468812Y-54645482D01*
X91481072Y-54521000D01*
X91481072Y-52921000D01*
X91468812Y-52796518D01*
X91432502Y-52676820D01*
X91373537Y-52566506D01*
X91294185Y-52469815D01*
X91197494Y-52390463D01*
X91087180Y-52331498D01*
X90967482Y-52295188D01*
X90843000Y-52282928D01*
X89243000Y-52282928D01*
X89118518Y-52295188D01*
X88998820Y-52331498D01*
X88888506Y-52390463D01*
X88791815Y-52469815D01*
X88712463Y-52566506D01*
X88653498Y-52676820D01*
X88617188Y-52796518D01*
X88616357Y-52804961D01*
X88417759Y-52606363D01*
X88182727Y-52449320D01*
X87921574Y-52341147D01*
X87644335Y-52286000D01*
X87361665Y-52286000D01*
X87084426Y-52341147D01*
X86823273Y-52449320D01*
X86588241Y-52606363D01*
X86388363Y-52806241D01*
X86233000Y-53038759D01*
X86077637Y-52806241D01*
X85877759Y-52606363D01*
X85642727Y-52449320D01*
X85381574Y-52341147D01*
X85104335Y-52286000D01*
X84821665Y-52286000D01*
X84544426Y-52341147D01*
X84283273Y-52449320D01*
X84048241Y-52606363D01*
X83848363Y-52806241D01*
X83693000Y-53038759D01*
X83537637Y-52806241D01*
X83337759Y-52606363D01*
X83102727Y-52449320D01*
X82841574Y-52341147D01*
X82564335Y-52286000D01*
X82281665Y-52286000D01*
X82004426Y-52341147D01*
X81743273Y-52449320D01*
X81508241Y-52606363D01*
X81308363Y-52806241D01*
X81153000Y-53038759D01*
X80997637Y-52806241D01*
X80797759Y-52606363D01*
X80562727Y-52449320D01*
X80301574Y-52341147D01*
X80024335Y-52286000D01*
X79741665Y-52286000D01*
X79464426Y-52341147D01*
X79203273Y-52449320D01*
X78968241Y-52606363D01*
X78768363Y-52806241D01*
X78611320Y-53041273D01*
X78503147Y-53302426D01*
X78448000Y-53579665D01*
X78448000Y-53862335D01*
X78503147Y-54139574D01*
X78611320Y-54400727D01*
X78768363Y-54635759D01*
X78968241Y-54835637D01*
X79203273Y-54992680D01*
X79464426Y-55100853D01*
X79741665Y-55156000D01*
X80024335Y-55156000D01*
X80301574Y-55100853D01*
X80562727Y-54992680D01*
X80797759Y-54835637D01*
X80997637Y-54635759D01*
X81153000Y-54403241D01*
X81308363Y-54635759D01*
X81508241Y-54835637D01*
X81743273Y-54992680D01*
X82004426Y-55100853D01*
X82281665Y-55156000D01*
X82564335Y-55156000D01*
X82841574Y-55100853D01*
X83102727Y-54992680D01*
X83337759Y-54835637D01*
X83537637Y-54635759D01*
X83693000Y-54403241D01*
X83848363Y-54635759D01*
X84048241Y-54835637D01*
X84203001Y-54939044D01*
X84203000Y-56200198D01*
X81346199Y-59057000D01*
X76260802Y-59057000D01*
X75430304Y-58226502D01*
X75406501Y-58197499D01*
X75290776Y-58102526D01*
X75158747Y-58031954D01*
X75015486Y-57988497D01*
X74903833Y-57977500D01*
X74903822Y-57977500D01*
X74866500Y-57973824D01*
X74829178Y-57977500D01*
X74300211Y-57977500D01*
X74256274Y-57933563D01*
X74086756Y-57820295D01*
X73898398Y-57742274D01*
X73698439Y-57702500D01*
X73494561Y-57702500D01*
X73294602Y-57742274D01*
X73106244Y-57820295D01*
X72936726Y-57933563D01*
X72792563Y-58077726D01*
X72679295Y-58247244D01*
X72601274Y-58435602D01*
X72561500Y-58635561D01*
X61818655Y-58635561D01*
X61723680Y-58406273D01*
X61566637Y-58171241D01*
X61366759Y-57971363D01*
X61131727Y-57814320D01*
X60870574Y-57706147D01*
X60844699Y-57701000D01*
X60870574Y-57695853D01*
X61131727Y-57587680D01*
X61366759Y-57430637D01*
X61407731Y-57389665D01*
X77813000Y-57389665D01*
X77813000Y-57672335D01*
X77868147Y-57949574D01*
X77976320Y-58210727D01*
X78133363Y-58445759D01*
X78333241Y-58645637D01*
X78568273Y-58802680D01*
X78829426Y-58910853D01*
X79106665Y-58966000D01*
X79389335Y-58966000D01*
X79666574Y-58910853D01*
X79927727Y-58802680D01*
X80162759Y-58645637D01*
X80362637Y-58445759D01*
X80519680Y-58210727D01*
X80627853Y-57949574D01*
X80683000Y-57672335D01*
X80683000Y-57389665D01*
X80627853Y-57112426D01*
X80519680Y-56851273D01*
X80362637Y-56616241D01*
X80162759Y-56416363D01*
X79927727Y-56259320D01*
X79666574Y-56151147D01*
X79389335Y-56096000D01*
X79106665Y-56096000D01*
X78829426Y-56151147D01*
X78568273Y-56259320D01*
X78333241Y-56416363D01*
X78133363Y-56616241D01*
X77976320Y-56851273D01*
X77868147Y-57112426D01*
X77813000Y-57389665D01*
X61407731Y-57389665D01*
X61566637Y-57230759D01*
X61723680Y-56995727D01*
X61831853Y-56734574D01*
X61887000Y-56457335D01*
X61887000Y-56174665D01*
X61831853Y-55897426D01*
X61723680Y-55636273D01*
X61566637Y-55401241D01*
X61366759Y-55201363D01*
X61131727Y-55044320D01*
X60870574Y-54936147D01*
X60844699Y-54931000D01*
X60870574Y-54925853D01*
X61131727Y-54817680D01*
X61366759Y-54660637D01*
X61566637Y-54460759D01*
X61723680Y-54225727D01*
X61831853Y-53964574D01*
X61887000Y-53687335D01*
X61887000Y-53404665D01*
X61831853Y-53127426D01*
X61723680Y-52866273D01*
X61566637Y-52631241D01*
X61366759Y-52431363D01*
X61131727Y-52274320D01*
X60870574Y-52166147D01*
X60844699Y-52161000D01*
X60870574Y-52155853D01*
X61131727Y-52047680D01*
X61366759Y-51890637D01*
X61566637Y-51690759D01*
X61723680Y-51455727D01*
X61831853Y-51194574D01*
X61887000Y-50917335D01*
X61887000Y-50634665D01*
X61831853Y-50357426D01*
X61723680Y-50096273D01*
X61566637Y-49861241D01*
X61366759Y-49661363D01*
X61131727Y-49504320D01*
X60986275Y-49444072D01*
X61252000Y-49444072D01*
X61376482Y-49431812D01*
X61496180Y-49395502D01*
X61606494Y-49336537D01*
X61689563Y-49268364D01*
X64430701Y-52009503D01*
X64454499Y-52038501D01*
X64570224Y-52133474D01*
X64702253Y-52204046D01*
X64845514Y-52247503D01*
X64957167Y-52258500D01*
X64957177Y-52258500D01*
X64994500Y-52262176D01*
X65031823Y-52258500D01*
X65797644Y-52258500D01*
X65767000Y-52412561D01*
X65767000Y-52616439D01*
X65806774Y-52816398D01*
X65884795Y-53004756D01*
X65972411Y-53135883D01*
X65824726Y-53234563D01*
X65680563Y-53378726D01*
X65567295Y-53548244D01*
X65489274Y-53736602D01*
X65449500Y-53936561D01*
X65449500Y-53998698D01*
X65020998Y-54427201D01*
X64992000Y-54450999D01*
X64968202Y-54479997D01*
X64968201Y-54479998D01*
X64897026Y-54566724D01*
X64826454Y-54698754D01*
X64810486Y-54751395D01*
X64782998Y-54842014D01*
X64774234Y-54931000D01*
X64768324Y-54991000D01*
X64772001Y-55028332D01*
X64772001Y-55303288D01*
X64728063Y-55347226D01*
X64614795Y-55516744D01*
X64536774Y-55705102D01*
X64497000Y-55905061D01*
X64497000Y-56108939D01*
X64536774Y-56308898D01*
X64614795Y-56497256D01*
X64728063Y-56666774D01*
X64872226Y-56810937D01*
X65041744Y-56924205D01*
X65230102Y-57002226D01*
X65430061Y-57042000D01*
X65633939Y-57042000D01*
X65833898Y-57002226D01*
X66022256Y-56924205D01*
X66191774Y-56810937D01*
X66335937Y-56666774D01*
X66449205Y-56497256D01*
X66527226Y-56308898D01*
X66567000Y-56108939D01*
X66567000Y-55905061D01*
X66527226Y-55705102D01*
X66449205Y-55516744D01*
X66335937Y-55347226D01*
X66293256Y-55304545D01*
X66524302Y-55073500D01*
X66586439Y-55073500D01*
X66786398Y-55033726D01*
X66974756Y-54955705D01*
X67024250Y-54922634D01*
X67073744Y-54955705D01*
X67262102Y-55033726D01*
X67462061Y-55073500D01*
X67665939Y-55073500D01*
X67865898Y-55033726D01*
X68054256Y-54955705D01*
X68223774Y-54842437D01*
X68367937Y-54698274D01*
X68481205Y-54528756D01*
X68559226Y-54340398D01*
X68599000Y-54140439D01*
X68599000Y-53936561D01*
X68559226Y-53736602D01*
X68481205Y-53548244D01*
X68367937Y-53378726D01*
X68223774Y-53234563D01*
X68054256Y-53121295D01*
X67865898Y-53043274D01*
X67713697Y-53013000D01*
X67719205Y-53004756D01*
X67797226Y-52816398D01*
X67837000Y-52616439D01*
X67837000Y-52412561D01*
X67806356Y-52258500D01*
X71749789Y-52258500D01*
X71793726Y-52302437D01*
X71963244Y-52415705D01*
X72151602Y-52493726D01*
X72351561Y-52533500D01*
X72555439Y-52533500D01*
X72755398Y-52493726D01*
X72943756Y-52415705D01*
X73113274Y-52302437D01*
X73257437Y-52158274D01*
X73370705Y-51988756D01*
X73448726Y-51800398D01*
X73488500Y-51600439D01*
X73488500Y-51396561D01*
X73448726Y-51196602D01*
X73370705Y-51008244D01*
X73257437Y-50838726D01*
X73113274Y-50694563D01*
X72943756Y-50581295D01*
X72755398Y-50503274D01*
X72555439Y-50463500D01*
X72351561Y-50463500D01*
X72151602Y-50503274D01*
X71963244Y-50581295D01*
X71793726Y-50694563D01*
X71749789Y-50738500D01*
X65309302Y-50738500D01*
X62065804Y-47495003D01*
X62042001Y-47465999D01*
X61926276Y-47371026D01*
X61890072Y-47351674D01*
X61890072Y-47206000D01*
X61877812Y-47081518D01*
X61841502Y-46961820D01*
X61782537Y-46851506D01*
X61703185Y-46754815D01*
X61606494Y-46675463D01*
X61496180Y-46616498D01*
X61376482Y-46580188D01*
X61252000Y-46567928D01*
X60297874Y-46567928D01*
X60322302Y-46543500D01*
X71581515Y-46543500D01*
X73064013Y-48025999D01*
X71583823Y-48025999D01*
X71546500Y-48022323D01*
X71509177Y-48025999D01*
X71509168Y-48025999D01*
X71397515Y-48036996D01*
X71254254Y-48080453D01*
X71122225Y-48151025D01*
X71089965Y-48177500D01*
X71018061Y-48177500D01*
X70818102Y-48217274D01*
X70629744Y-48295295D01*
X70460226Y-48408563D01*
X70316063Y-48552726D01*
X70202795Y-48722244D01*
X70124774Y-48910602D01*
X70085000Y-49110561D01*
X70085000Y-49314439D01*
X70124774Y-49514398D01*
X70202795Y-49702756D01*
X70316063Y-49872274D01*
X70460226Y-50016437D01*
X70629744Y-50129705D01*
X70818102Y-50207726D01*
X71018061Y-50247500D01*
X71221939Y-50247500D01*
X71421898Y-50207726D01*
X71610256Y-50129705D01*
X71779774Y-50016437D01*
X71923937Y-49872274D01*
X72037205Y-49702756D01*
X72102136Y-49545999D01*
X77793991Y-49545999D01*
X77749500Y-49769665D01*
X77749500Y-50052335D01*
X77804647Y-50329574D01*
X77912820Y-50590727D01*
X78069863Y-50825759D01*
X78269741Y-51025637D01*
X78504773Y-51182680D01*
X78765926Y-51290853D01*
X79043165Y-51346000D01*
X79325835Y-51346000D01*
X79603074Y-51290853D01*
X79864227Y-51182680D01*
X80099259Y-51025637D01*
X80299137Y-50825759D01*
X80456180Y-50590727D01*
X80564353Y-50329574D01*
X80578184Y-50260039D01*
X93032596Y-50260039D01*
X93073254Y-50394087D01*
X93193463Y-50648420D01*
X93360981Y-50874414D01*
X93569369Y-51063385D01*
X93810619Y-51208070D01*
X94075460Y-51302909D01*
X94297500Y-51181624D01*
X94297500Y-50038000D01*
X94551500Y-50038000D01*
X94551500Y-51181624D01*
X94773540Y-51302909D01*
X95038381Y-51208070D01*
X95279631Y-51063385D01*
X95488019Y-50874414D01*
X95655537Y-50648420D01*
X95775746Y-50394087D01*
X95816404Y-50260039D01*
X95694415Y-50038000D01*
X94551500Y-50038000D01*
X94297500Y-50038000D01*
X93154585Y-50038000D01*
X93032596Y-50260039D01*
X80578184Y-50260039D01*
X80619500Y-50052335D01*
X80619500Y-49769665D01*
X80575009Y-49545999D01*
X93037437Y-49545999D01*
X93032596Y-49561961D01*
X93154585Y-49784000D01*
X94297500Y-49784000D01*
X94297500Y-49764000D01*
X94551500Y-49764000D01*
X94551500Y-49784000D01*
X95694415Y-49784000D01*
X95816404Y-49561961D01*
X95811563Y-49545999D01*
X97491511Y-49545999D01*
X97448000Y-49764740D01*
X97448000Y-50057260D01*
X97505068Y-50344158D01*
X97617010Y-50614411D01*
X97779525Y-50857632D01*
X97986368Y-51064475D01*
X98168534Y-51186195D01*
X98051645Y-51255822D01*
X97835412Y-51450731D01*
X97661359Y-51684080D01*
X97536175Y-51946901D01*
X97491524Y-52094110D01*
X97612845Y-52324000D01*
X98806000Y-52324000D01*
X98806000Y-52304000D01*
X99060000Y-52304000D01*
X99060000Y-52324000D01*
X100253155Y-52324000D01*
X100374476Y-52094110D01*
X100329825Y-51946901D01*
X100288373Y-51859872D01*
X104529733Y-51859872D01*
X104955912Y-52405872D01*
X105713395Y-52820983D01*
X106537307Y-53080339D01*
X107395986Y-53173976D01*
X108256434Y-53098293D01*
X109085583Y-52856199D01*
X109851570Y-52456999D01*
X109928088Y-52405872D01*
X110354267Y-51859872D01*
X107442000Y-48947605D01*
X104529733Y-51859872D01*
X100288373Y-51859872D01*
X100204641Y-51684080D01*
X100030588Y-51450731D01*
X99814355Y-51255822D01*
X99697466Y-51186195D01*
X99879632Y-51064475D01*
X100086475Y-50857632D01*
X100248990Y-50614411D01*
X100360932Y-50344158D01*
X100418000Y-50057260D01*
X100418000Y-49764740D01*
X100360932Y-49477842D01*
X100248990Y-49207589D01*
X100086475Y-48964368D01*
X99954620Y-48832513D01*
X100027180Y-48810502D01*
X100137494Y-48751537D01*
X100173502Y-48721986D01*
X103036024Y-48721986D01*
X103111707Y-49582434D01*
X103353801Y-50411583D01*
X103753001Y-51177570D01*
X103804128Y-51254088D01*
X104350128Y-51680267D01*
X107262395Y-48768000D01*
X107621605Y-48768000D01*
X110533872Y-51680267D01*
X111079872Y-51254088D01*
X111494983Y-50496605D01*
X111754339Y-49672693D01*
X111847976Y-48814014D01*
X111772293Y-47953566D01*
X111530199Y-47124417D01*
X111130999Y-46358430D01*
X111079872Y-46281912D01*
X110533872Y-45855733D01*
X107621605Y-48768000D01*
X107262395Y-48768000D01*
X104350128Y-45855733D01*
X103804128Y-46281912D01*
X103389017Y-47039395D01*
X103129661Y-47863307D01*
X103036024Y-48721986D01*
X100173502Y-48721986D01*
X100234185Y-48672185D01*
X100313537Y-48575494D01*
X100372502Y-48465180D01*
X100408812Y-48345482D01*
X100421072Y-48221000D01*
X100421072Y-46521000D01*
X100408812Y-46396518D01*
X100372502Y-46276820D01*
X100313537Y-46166506D01*
X100234185Y-46069815D01*
X100137494Y-45990463D01*
X100027180Y-45931498D01*
X99907482Y-45895188D01*
X99783000Y-45882928D01*
X98083000Y-45882928D01*
X97958518Y-45895188D01*
X97838820Y-45931498D01*
X97728506Y-45990463D01*
X97631815Y-46069815D01*
X97552463Y-46166506D01*
X97493498Y-46276820D01*
X97457188Y-46396518D01*
X97444928Y-46521000D01*
X97444928Y-48025999D01*
X75774500Y-48025999D01*
X75774500Y-47959060D01*
X75734726Y-47759101D01*
X75656705Y-47570743D01*
X75543437Y-47401225D01*
X75399274Y-47257062D01*
X75229756Y-47143794D01*
X75041398Y-47065773D01*
X74841439Y-47025999D01*
X74637561Y-47025999D01*
X74437602Y-47065773D01*
X74307345Y-47119727D01*
X72512283Y-45324665D01*
X77749500Y-45324665D01*
X77749500Y-45607335D01*
X77804647Y-45884574D01*
X77912820Y-46145727D01*
X78069863Y-46380759D01*
X78269741Y-46580637D01*
X78504773Y-46737680D01*
X78765926Y-46845853D01*
X79043165Y-46901000D01*
X79325835Y-46901000D01*
X79603074Y-46845853D01*
X79864227Y-46737680D01*
X80099259Y-46580637D01*
X80299137Y-46380759D01*
X80456180Y-46145727D01*
X80564353Y-45884574D01*
X80619500Y-45607335D01*
X80619500Y-45324665D01*
X92989500Y-45324665D01*
X92989500Y-45607335D01*
X93044647Y-45884574D01*
X93152820Y-46145727D01*
X93309863Y-46380759D01*
X93509741Y-46580637D01*
X93744773Y-46737680D01*
X94005926Y-46845853D01*
X94283165Y-46901000D01*
X94565835Y-46901000D01*
X94843074Y-46845853D01*
X95104227Y-46737680D01*
X95339259Y-46580637D01*
X95539137Y-46380759D01*
X95696180Y-46145727D01*
X95804353Y-45884574D01*
X95845816Y-45676128D01*
X104529733Y-45676128D01*
X107442000Y-48588395D01*
X110354267Y-45676128D01*
X109928088Y-45130128D01*
X109170605Y-44715017D01*
X108346693Y-44455661D01*
X107488014Y-44362024D01*
X106627566Y-44437707D01*
X105798417Y-44679801D01*
X105032430Y-45079001D01*
X104955912Y-45130128D01*
X104529733Y-45676128D01*
X95845816Y-45676128D01*
X95859500Y-45607335D01*
X95859500Y-45324665D01*
X95804353Y-45047426D01*
X95696180Y-44786273D01*
X95539137Y-44551241D01*
X95339259Y-44351363D01*
X95104227Y-44194320D01*
X94843074Y-44086147D01*
X94565835Y-44031000D01*
X94283165Y-44031000D01*
X94005926Y-44086147D01*
X93744773Y-44194320D01*
X93509741Y-44351363D01*
X93309863Y-44551241D01*
X93152820Y-44786273D01*
X93044647Y-45047426D01*
X92989500Y-45324665D01*
X80619500Y-45324665D01*
X80564353Y-45047426D01*
X80456180Y-44786273D01*
X80299137Y-44551241D01*
X80099259Y-44351363D01*
X79864227Y-44194320D01*
X79603074Y-44086147D01*
X79325835Y-44031000D01*
X79043165Y-44031000D01*
X78765926Y-44086147D01*
X78504773Y-44194320D01*
X78269741Y-44351363D01*
X78069863Y-44551241D01*
X77912820Y-44786273D01*
X77804647Y-45047426D01*
X77749500Y-45324665D01*
X72512283Y-45324665D01*
X72460120Y-45272503D01*
X72436317Y-45243499D01*
X72320592Y-45148526D01*
X72188563Y-45077954D01*
X72045302Y-45034497D01*
X71933649Y-45023500D01*
X71933638Y-45023500D01*
X71896316Y-45019824D01*
X71858994Y-45023500D01*
X60044833Y-45023500D01*
X60007500Y-45019823D01*
X59970167Y-45023500D01*
X59858514Y-45034497D01*
X59715253Y-45077954D01*
X59583224Y-45148526D01*
X59467499Y-45243499D01*
X59443701Y-45272497D01*
X58417002Y-46299196D01*
X58387999Y-46322999D01*
X58358922Y-46358430D01*
X58293026Y-46438724D01*
X58266128Y-46489046D01*
X58222454Y-46570754D01*
X58178997Y-46714015D01*
X58168000Y-46825668D01*
X58168000Y-46825678D01*
X58164324Y-46863000D01*
X58168000Y-46900323D01*
X58168000Y-48068071D01*
X58030574Y-48011147D01*
X57753335Y-47956000D01*
X57470665Y-47956000D01*
X57193426Y-48011147D01*
X56932273Y-48119320D01*
X56697241Y-48276363D01*
X56497363Y-48476241D01*
X56340320Y-48711273D01*
X56232147Y-48972426D01*
X56177000Y-49249665D01*
X52857000Y-49249665D01*
X52857000Y-40786475D01*
X57517000Y-40786475D01*
X57517000Y-41305525D01*
X57618261Y-41814601D01*
X57816893Y-42294141D01*
X58105262Y-42725715D01*
X58472285Y-43092738D01*
X58903859Y-43381107D01*
X59383399Y-43579739D01*
X59892475Y-43681000D01*
X60411525Y-43681000D01*
X60920601Y-43579739D01*
X61400141Y-43381107D01*
X61831715Y-43092738D01*
X62198738Y-42725715D01*
X62487107Y-42294141D01*
X62685739Y-41814601D01*
X62787000Y-41305525D01*
X62787000Y-40786475D01*
X62685739Y-40277399D01*
X62487107Y-39797859D01*
X62198738Y-39366285D01*
X61831715Y-38999262D01*
X61400141Y-38710893D01*
X60920601Y-38512261D01*
X60411525Y-38411000D01*
X59892475Y-38411000D01*
X59383399Y-38512261D01*
X58903859Y-38710893D01*
X58472285Y-38999262D01*
X58105262Y-39366285D01*
X57816893Y-39797859D01*
X57618261Y-40277399D01*
X57517000Y-40786475D01*
X52857000Y-40786475D01*
X52857000Y-34569000D01*
X112243000Y-34569000D01*
X112243001Y-72873000D01*
M02*
