G04 #@! TF.GenerationSoftware,KiCad,Pcbnew,(5.1.5-0-10_14)*
G04 #@! TF.CreationDate,2020-10-19T13:07:17+11:00*
G04 #@! TF.ProjectId,Atari-Tandy Joystick Adapter,41746172-692d-4546-916e-6479204a6f79,rev?*
G04 #@! TF.SameCoordinates,Original*
G04 #@! TF.FileFunction,Soldermask,Bot*
G04 #@! TF.FilePolarity,Negative*
%FSLAX46Y46*%
G04 Gerber Fmt 4.6, Leading zero omitted, Abs format (unit mm)*
G04 Created by KiCad (PCBNEW (5.1.5-0-10_14)) date 2020-10-19 13:07:17*
%MOMM*%
%LPD*%
G04 APERTURE LIST*
%ADD10C,0.100000*%
G04 APERTURE END LIST*
D10*
G36*
X60750254Y-64073818D02*
G01*
X61123511Y-64228426D01*
X61123513Y-64228427D01*
X61459436Y-64452884D01*
X61745116Y-64738564D01*
X61969574Y-65074489D01*
X62124182Y-65447746D01*
X62203000Y-65843993D01*
X62203000Y-66248007D01*
X62124182Y-66644254D01*
X61969574Y-67017511D01*
X61969573Y-67017513D01*
X61745116Y-67353436D01*
X61459436Y-67639116D01*
X61123513Y-67863573D01*
X61123512Y-67863574D01*
X61123511Y-67863574D01*
X60750254Y-68018182D01*
X60354007Y-68097000D01*
X59949993Y-68097000D01*
X59553746Y-68018182D01*
X59180489Y-67863574D01*
X59180488Y-67863574D01*
X59180487Y-67863573D01*
X58844564Y-67639116D01*
X58558884Y-67353436D01*
X58334427Y-67017513D01*
X58334426Y-67017511D01*
X58179818Y-66644254D01*
X58101000Y-66248007D01*
X58101000Y-65843993D01*
X58179818Y-65447746D01*
X58334426Y-65074489D01*
X58558884Y-64738564D01*
X58844564Y-64452884D01*
X59180487Y-64228427D01*
X59180489Y-64228426D01*
X59553746Y-64073818D01*
X59949993Y-63995000D01*
X60354007Y-63995000D01*
X60750254Y-64073818D01*
G37*
G36*
X94736228Y-61538703D02*
G01*
X94891100Y-61602853D01*
X95030481Y-61695985D01*
X95149015Y-61814519D01*
X95242147Y-61953900D01*
X95306297Y-62108772D01*
X95339000Y-62273184D01*
X95339000Y-62440816D01*
X95306297Y-62605228D01*
X95242147Y-62760100D01*
X95149015Y-62899481D01*
X95030481Y-63018015D01*
X94891100Y-63111147D01*
X94736228Y-63175297D01*
X94571816Y-63208000D01*
X94404184Y-63208000D01*
X94239772Y-63175297D01*
X94084900Y-63111147D01*
X93945519Y-63018015D01*
X93826985Y-62899481D01*
X93733853Y-62760100D01*
X93669703Y-62605228D01*
X93637000Y-62440816D01*
X93637000Y-62273184D01*
X93669703Y-62108772D01*
X93733853Y-61953900D01*
X93826985Y-61814519D01*
X93945519Y-61695985D01*
X94084900Y-61602853D01*
X94239772Y-61538703D01*
X94404184Y-61506000D01*
X94571816Y-61506000D01*
X94736228Y-61538703D01*
G37*
G36*
X79496228Y-61538703D02*
G01*
X79651100Y-61602853D01*
X79790481Y-61695985D01*
X79909015Y-61814519D01*
X80002147Y-61953900D01*
X80066297Y-62108772D01*
X80099000Y-62273184D01*
X80099000Y-62440816D01*
X80066297Y-62605228D01*
X80002147Y-62760100D01*
X79909015Y-62899481D01*
X79790481Y-63018015D01*
X79651100Y-63111147D01*
X79496228Y-63175297D01*
X79331816Y-63208000D01*
X79164184Y-63208000D01*
X78999772Y-63175297D01*
X78844900Y-63111147D01*
X78705519Y-63018015D01*
X78586985Y-62899481D01*
X78493853Y-62760100D01*
X78429703Y-62605228D01*
X78397000Y-62440816D01*
X78397000Y-62273184D01*
X78429703Y-62108772D01*
X78493853Y-61953900D01*
X78586985Y-61814519D01*
X78705519Y-61695985D01*
X78844900Y-61602853D01*
X78999772Y-61538703D01*
X79164184Y-61506000D01*
X79331816Y-61506000D01*
X79496228Y-61538703D01*
G37*
G36*
X108550710Y-54892070D02*
G01*
X109242447Y-55178597D01*
X109355014Y-55253812D01*
X109864996Y-55594571D01*
X110394429Y-56124004D01*
X110672374Y-56539978D01*
X110810403Y-56746553D01*
X111096930Y-57438290D01*
X111243000Y-58172633D01*
X111243000Y-58921367D01*
X111096930Y-59655710D01*
X110810403Y-60347447D01*
X110810402Y-60347448D01*
X110394429Y-60969996D01*
X109864996Y-61499429D01*
X109570829Y-61695985D01*
X109242447Y-61915403D01*
X108550710Y-62201930D01*
X107816367Y-62348000D01*
X107067633Y-62348000D01*
X106333290Y-62201930D01*
X105641553Y-61915403D01*
X105313171Y-61695985D01*
X105019004Y-61499429D01*
X104489571Y-60969996D01*
X104073598Y-60347448D01*
X104073597Y-60347447D01*
X103787070Y-59655710D01*
X103641000Y-58921367D01*
X103641000Y-58172633D01*
X103787070Y-57438290D01*
X104073597Y-56746553D01*
X104211626Y-56539978D01*
X104489571Y-56124004D01*
X105019004Y-55594571D01*
X105528986Y-55253812D01*
X105641553Y-55178597D01*
X106333290Y-54892070D01*
X107067633Y-54746000D01*
X107816367Y-54746000D01*
X108550710Y-54892070D01*
G37*
G36*
X99046512Y-59174927D02*
G01*
X99195812Y-59204624D01*
X99359784Y-59272544D01*
X99507354Y-59371147D01*
X99632853Y-59496646D01*
X99731456Y-59644216D01*
X99799376Y-59808188D01*
X99834000Y-59982259D01*
X99834000Y-60159741D01*
X99799376Y-60333812D01*
X99731456Y-60497784D01*
X99632853Y-60645354D01*
X99507354Y-60770853D01*
X99359784Y-60869456D01*
X99195812Y-60937376D01*
X99046512Y-60967073D01*
X99021742Y-60972000D01*
X98844258Y-60972000D01*
X98819488Y-60967073D01*
X98670188Y-60937376D01*
X98506216Y-60869456D01*
X98358646Y-60770853D01*
X98233147Y-60645354D01*
X98134544Y-60497784D01*
X98066624Y-60333812D01*
X98032000Y-60159741D01*
X98032000Y-59982259D01*
X98066624Y-59808188D01*
X98134544Y-59644216D01*
X98233147Y-59496646D01*
X98358646Y-59371147D01*
X98506216Y-59272544D01*
X98670188Y-59204624D01*
X98819488Y-59174927D01*
X98844258Y-59170000D01*
X99021742Y-59170000D01*
X99046512Y-59174927D01*
G37*
G36*
X60700228Y-58267703D02*
G01*
X60855100Y-58331853D01*
X60994481Y-58424985D01*
X61113015Y-58543519D01*
X61206147Y-58682900D01*
X61270297Y-58837772D01*
X61303000Y-59002184D01*
X61303000Y-59169816D01*
X61270297Y-59334228D01*
X61206147Y-59489100D01*
X61113015Y-59628481D01*
X60994481Y-59747015D01*
X60855100Y-59840147D01*
X60700228Y-59904297D01*
X60535816Y-59937000D01*
X60368184Y-59937000D01*
X60203772Y-59904297D01*
X60048900Y-59840147D01*
X59909519Y-59747015D01*
X59790985Y-59628481D01*
X59697853Y-59489100D01*
X59633703Y-59334228D01*
X59601000Y-59169816D01*
X59601000Y-59002184D01*
X59633703Y-58837772D01*
X59697853Y-58682900D01*
X59790985Y-58543519D01*
X59909519Y-58424985D01*
X60048900Y-58331853D01*
X60203772Y-58267703D01*
X60368184Y-58235000D01*
X60535816Y-58235000D01*
X60700228Y-58267703D01*
G37*
G36*
X57860228Y-56882703D02*
G01*
X58015100Y-56946853D01*
X58154481Y-57039985D01*
X58273015Y-57158519D01*
X58366147Y-57297900D01*
X58430297Y-57452772D01*
X58463000Y-57617184D01*
X58463000Y-57784816D01*
X58430297Y-57949228D01*
X58366147Y-58104100D01*
X58273015Y-58243481D01*
X58154481Y-58362015D01*
X58015100Y-58455147D01*
X57860228Y-58519297D01*
X57695816Y-58552000D01*
X57528184Y-58552000D01*
X57363772Y-58519297D01*
X57208900Y-58455147D01*
X57069519Y-58362015D01*
X56950985Y-58243481D01*
X56857853Y-58104100D01*
X56793703Y-57949228D01*
X56761000Y-57784816D01*
X56761000Y-57617184D01*
X56793703Y-57452772D01*
X56857853Y-57297900D01*
X56950985Y-57158519D01*
X57069519Y-57039985D01*
X57208900Y-56946853D01*
X57363772Y-56882703D01*
X57528184Y-56850000D01*
X57695816Y-56850000D01*
X57860228Y-56882703D01*
G37*
G36*
X99046512Y-56634927D02*
G01*
X99195812Y-56664624D01*
X99359784Y-56732544D01*
X99507354Y-56831147D01*
X99632853Y-56956646D01*
X99731456Y-57104216D01*
X99799376Y-57268188D01*
X99829073Y-57417488D01*
X99833211Y-57438289D01*
X99834000Y-57442259D01*
X99834000Y-57619741D01*
X99799376Y-57793812D01*
X99731456Y-57957784D01*
X99632853Y-58105354D01*
X99507354Y-58230853D01*
X99359784Y-58329456D01*
X99195812Y-58397376D01*
X99046512Y-58427073D01*
X99021742Y-58432000D01*
X98844258Y-58432000D01*
X98819488Y-58427073D01*
X98670188Y-58397376D01*
X98506216Y-58329456D01*
X98358646Y-58230853D01*
X98233147Y-58105354D01*
X98134544Y-57957784D01*
X98066624Y-57793812D01*
X98032000Y-57619741D01*
X98032000Y-57442259D01*
X98032790Y-57438289D01*
X98036927Y-57417488D01*
X98066624Y-57268188D01*
X98134544Y-57104216D01*
X98233147Y-56956646D01*
X98358646Y-56831147D01*
X98506216Y-56732544D01*
X98670188Y-56664624D01*
X98819488Y-56634927D01*
X98844258Y-56630000D01*
X99021742Y-56630000D01*
X99046512Y-56634927D01*
G37*
G36*
X94736228Y-56712703D02*
G01*
X94891100Y-56776853D01*
X95030481Y-56869985D01*
X95149015Y-56988519D01*
X95242147Y-57127900D01*
X95306297Y-57282772D01*
X95339000Y-57447184D01*
X95339000Y-57614816D01*
X95306297Y-57779228D01*
X95242147Y-57934100D01*
X95149015Y-58073481D01*
X95030481Y-58192015D01*
X94891100Y-58285147D01*
X94736228Y-58349297D01*
X94571816Y-58382000D01*
X94404184Y-58382000D01*
X94239772Y-58349297D01*
X94084900Y-58285147D01*
X93945519Y-58192015D01*
X93826985Y-58073481D01*
X93733853Y-57934100D01*
X93669703Y-57779228D01*
X93637000Y-57614816D01*
X93637000Y-57447184D01*
X93669703Y-57282772D01*
X93733853Y-57127900D01*
X93826985Y-56988519D01*
X93945519Y-56869985D01*
X94084900Y-56776853D01*
X94239772Y-56712703D01*
X94404184Y-56680000D01*
X94571816Y-56680000D01*
X94736228Y-56712703D01*
G37*
G36*
X79496228Y-56712703D02*
G01*
X79651100Y-56776853D01*
X79790481Y-56869985D01*
X79909015Y-56988519D01*
X80002147Y-57127900D01*
X80066297Y-57282772D01*
X80099000Y-57447184D01*
X80099000Y-57614816D01*
X80066297Y-57779228D01*
X80002147Y-57934100D01*
X79909015Y-58073481D01*
X79790481Y-58192015D01*
X79651100Y-58285147D01*
X79496228Y-58349297D01*
X79331816Y-58382000D01*
X79164184Y-58382000D01*
X78999772Y-58349297D01*
X78844900Y-58285147D01*
X78705519Y-58192015D01*
X78586985Y-58073481D01*
X78493853Y-57934100D01*
X78429703Y-57779228D01*
X78397000Y-57614816D01*
X78397000Y-57447184D01*
X78429703Y-57282772D01*
X78493853Y-57127900D01*
X78586985Y-56988519D01*
X78705519Y-56869985D01*
X78844900Y-56776853D01*
X78999772Y-56712703D01*
X79164184Y-56680000D01*
X79331816Y-56680000D01*
X79496228Y-56712703D01*
G37*
G36*
X60700228Y-55497703D02*
G01*
X60855100Y-55561853D01*
X60994481Y-55654985D01*
X61113015Y-55773519D01*
X61206147Y-55912900D01*
X61270297Y-56067772D01*
X61303000Y-56232184D01*
X61303000Y-56399816D01*
X61270297Y-56564228D01*
X61206147Y-56719100D01*
X61113015Y-56858481D01*
X60994481Y-56977015D01*
X60855100Y-57070147D01*
X60700228Y-57134297D01*
X60535816Y-57167000D01*
X60368184Y-57167000D01*
X60203772Y-57134297D01*
X60048900Y-57070147D01*
X59909519Y-56977015D01*
X59790985Y-56858481D01*
X59697853Y-56719100D01*
X59633703Y-56564228D01*
X59601000Y-56399816D01*
X59601000Y-56232184D01*
X59633703Y-56067772D01*
X59697853Y-55912900D01*
X59790985Y-55773519D01*
X59909519Y-55654985D01*
X60048900Y-55561853D01*
X60203772Y-55497703D01*
X60368184Y-55465000D01*
X60535816Y-55465000D01*
X60700228Y-55497703D01*
G37*
G36*
X99046512Y-54094927D02*
G01*
X99195812Y-54124624D01*
X99359784Y-54192544D01*
X99507354Y-54291147D01*
X99632853Y-54416646D01*
X99731456Y-54564216D01*
X99799376Y-54728188D01*
X99834000Y-54902259D01*
X99834000Y-55079741D01*
X99799376Y-55253812D01*
X99731456Y-55417784D01*
X99632853Y-55565354D01*
X99507354Y-55690853D01*
X99359784Y-55789456D01*
X99195812Y-55857376D01*
X99046512Y-55887073D01*
X99021742Y-55892000D01*
X98844258Y-55892000D01*
X98819488Y-55887073D01*
X98670188Y-55857376D01*
X98506216Y-55789456D01*
X98358646Y-55690853D01*
X98233147Y-55565354D01*
X98134544Y-55417784D01*
X98066624Y-55253812D01*
X98032000Y-55079741D01*
X98032000Y-54902259D01*
X98066624Y-54728188D01*
X98134544Y-54564216D01*
X98233147Y-54416646D01*
X98358646Y-54291147D01*
X98506216Y-54192544D01*
X98670188Y-54124624D01*
X98819488Y-54094927D01*
X98844258Y-54090000D01*
X99021742Y-54090000D01*
X99046512Y-54094927D01*
G37*
G36*
X57860228Y-54112703D02*
G01*
X58015100Y-54176853D01*
X58154481Y-54269985D01*
X58273015Y-54388519D01*
X58366147Y-54527900D01*
X58430297Y-54682772D01*
X58463000Y-54847184D01*
X58463000Y-55014816D01*
X58430297Y-55179228D01*
X58366147Y-55334100D01*
X58273015Y-55473481D01*
X58154481Y-55592015D01*
X58015100Y-55685147D01*
X57860228Y-55749297D01*
X57695816Y-55782000D01*
X57528184Y-55782000D01*
X57363772Y-55749297D01*
X57208900Y-55685147D01*
X57069519Y-55592015D01*
X56950985Y-55473481D01*
X56857853Y-55334100D01*
X56793703Y-55179228D01*
X56761000Y-55014816D01*
X56761000Y-54847184D01*
X56793703Y-54682772D01*
X56857853Y-54527900D01*
X56950985Y-54388519D01*
X57069519Y-54269985D01*
X57208900Y-54176853D01*
X57363772Y-54112703D01*
X57528184Y-54080000D01*
X57695816Y-54080000D01*
X57860228Y-54112703D01*
G37*
G36*
X80131228Y-52902703D02*
G01*
X80286100Y-52966853D01*
X80425481Y-53059985D01*
X80544015Y-53178519D01*
X80637147Y-53317900D01*
X80701297Y-53472772D01*
X80734000Y-53637184D01*
X80734000Y-53804816D01*
X80701297Y-53969228D01*
X80637147Y-54124100D01*
X80544015Y-54263481D01*
X80425481Y-54382015D01*
X80286100Y-54475147D01*
X80131228Y-54539297D01*
X79966816Y-54572000D01*
X79799184Y-54572000D01*
X79634772Y-54539297D01*
X79479900Y-54475147D01*
X79340519Y-54382015D01*
X79221985Y-54263481D01*
X79128853Y-54124100D01*
X79064703Y-53969228D01*
X79032000Y-53804816D01*
X79032000Y-53637184D01*
X79064703Y-53472772D01*
X79128853Y-53317900D01*
X79221985Y-53178519D01*
X79340519Y-53059985D01*
X79479900Y-52966853D01*
X79634772Y-52902703D01*
X79799184Y-52870000D01*
X79966816Y-52870000D01*
X80131228Y-52902703D01*
G37*
G36*
X90894000Y-54572000D02*
G01*
X89192000Y-54572000D01*
X89192000Y-52870000D01*
X90894000Y-52870000D01*
X90894000Y-54572000D01*
G37*
G36*
X87751228Y-52902703D02*
G01*
X87906100Y-52966853D01*
X88045481Y-53059985D01*
X88164015Y-53178519D01*
X88257147Y-53317900D01*
X88321297Y-53472772D01*
X88354000Y-53637184D01*
X88354000Y-53804816D01*
X88321297Y-53969228D01*
X88257147Y-54124100D01*
X88164015Y-54263481D01*
X88045481Y-54382015D01*
X87906100Y-54475147D01*
X87751228Y-54539297D01*
X87586816Y-54572000D01*
X87419184Y-54572000D01*
X87254772Y-54539297D01*
X87099900Y-54475147D01*
X86960519Y-54382015D01*
X86841985Y-54263481D01*
X86748853Y-54124100D01*
X86684703Y-53969228D01*
X86652000Y-53804816D01*
X86652000Y-53637184D01*
X86684703Y-53472772D01*
X86748853Y-53317900D01*
X86841985Y-53178519D01*
X86960519Y-53059985D01*
X87099900Y-52966853D01*
X87254772Y-52902703D01*
X87419184Y-52870000D01*
X87586816Y-52870000D01*
X87751228Y-52902703D01*
G37*
G36*
X82671228Y-52902703D02*
G01*
X82826100Y-52966853D01*
X82965481Y-53059985D01*
X83084015Y-53178519D01*
X83177147Y-53317900D01*
X83241297Y-53472772D01*
X83274000Y-53637184D01*
X83274000Y-53804816D01*
X83241297Y-53969228D01*
X83177147Y-54124100D01*
X83084015Y-54263481D01*
X82965481Y-54382015D01*
X82826100Y-54475147D01*
X82671228Y-54539297D01*
X82506816Y-54572000D01*
X82339184Y-54572000D01*
X82174772Y-54539297D01*
X82019900Y-54475147D01*
X81880519Y-54382015D01*
X81761985Y-54263481D01*
X81668853Y-54124100D01*
X81604703Y-53969228D01*
X81572000Y-53804816D01*
X81572000Y-53637184D01*
X81604703Y-53472772D01*
X81668853Y-53317900D01*
X81761985Y-53178519D01*
X81880519Y-53059985D01*
X82019900Y-52966853D01*
X82174772Y-52902703D01*
X82339184Y-52870000D01*
X82506816Y-52870000D01*
X82671228Y-52902703D01*
G37*
G36*
X85211228Y-52902703D02*
G01*
X85366100Y-52966853D01*
X85505481Y-53059985D01*
X85624015Y-53178519D01*
X85717147Y-53317900D01*
X85781297Y-53472772D01*
X85814000Y-53637184D01*
X85814000Y-53804816D01*
X85781297Y-53969228D01*
X85717147Y-54124100D01*
X85624015Y-54263481D01*
X85505481Y-54382015D01*
X85366100Y-54475147D01*
X85211228Y-54539297D01*
X85046816Y-54572000D01*
X84879184Y-54572000D01*
X84714772Y-54539297D01*
X84559900Y-54475147D01*
X84420519Y-54382015D01*
X84301985Y-54263481D01*
X84208853Y-54124100D01*
X84144703Y-53969228D01*
X84112000Y-53804816D01*
X84112000Y-53637184D01*
X84144703Y-53472772D01*
X84208853Y-53317900D01*
X84301985Y-53178519D01*
X84420519Y-53059985D01*
X84559900Y-52966853D01*
X84714772Y-52902703D01*
X84879184Y-52870000D01*
X85046816Y-52870000D01*
X85211228Y-52902703D01*
G37*
G36*
X60700228Y-52727703D02*
G01*
X60855100Y-52791853D01*
X60994481Y-52884985D01*
X61113015Y-53003519D01*
X61206147Y-53142900D01*
X61270297Y-53297772D01*
X61303000Y-53462184D01*
X61303000Y-53629816D01*
X61270297Y-53794228D01*
X61206147Y-53949100D01*
X61113015Y-54088481D01*
X60994481Y-54207015D01*
X60855100Y-54300147D01*
X60700228Y-54364297D01*
X60535816Y-54397000D01*
X60368184Y-54397000D01*
X60203772Y-54364297D01*
X60048900Y-54300147D01*
X59909519Y-54207015D01*
X59790985Y-54088481D01*
X59697853Y-53949100D01*
X59633703Y-53794228D01*
X59601000Y-53629816D01*
X59601000Y-53462184D01*
X59633703Y-53297772D01*
X59697853Y-53142900D01*
X59790985Y-53003519D01*
X59909519Y-52884985D01*
X60048900Y-52791853D01*
X60203772Y-52727703D01*
X60368184Y-52695000D01*
X60535816Y-52695000D01*
X60700228Y-52727703D01*
G37*
G36*
X99046512Y-51554927D02*
G01*
X99195812Y-51584624D01*
X99359784Y-51652544D01*
X99507354Y-51751147D01*
X99632853Y-51876646D01*
X99731456Y-52024216D01*
X99799376Y-52188188D01*
X99834000Y-52362259D01*
X99834000Y-52539741D01*
X99799376Y-52713812D01*
X99731456Y-52877784D01*
X99632853Y-53025354D01*
X99507354Y-53150853D01*
X99359784Y-53249456D01*
X99195812Y-53317376D01*
X99046512Y-53347073D01*
X99021742Y-53352000D01*
X98844258Y-53352000D01*
X98819488Y-53347073D01*
X98670188Y-53317376D01*
X98506216Y-53249456D01*
X98358646Y-53150853D01*
X98233147Y-53025354D01*
X98134544Y-52877784D01*
X98066624Y-52713812D01*
X98032000Y-52539741D01*
X98032000Y-52362259D01*
X98066624Y-52188188D01*
X98134544Y-52024216D01*
X98233147Y-51876646D01*
X98358646Y-51751147D01*
X98506216Y-51652544D01*
X98670188Y-51584624D01*
X98819488Y-51554927D01*
X98844258Y-51550000D01*
X99021742Y-51550000D01*
X99046512Y-51554927D01*
G37*
G36*
X57860228Y-51342703D02*
G01*
X58015100Y-51406853D01*
X58154481Y-51499985D01*
X58273015Y-51618519D01*
X58366147Y-51757900D01*
X58430297Y-51912772D01*
X58463000Y-52077184D01*
X58463000Y-52244816D01*
X58430297Y-52409228D01*
X58366147Y-52564100D01*
X58273015Y-52703481D01*
X58154481Y-52822015D01*
X58015100Y-52915147D01*
X57860228Y-52979297D01*
X57695816Y-53012000D01*
X57528184Y-53012000D01*
X57363772Y-52979297D01*
X57208900Y-52915147D01*
X57069519Y-52822015D01*
X56950985Y-52703481D01*
X56857853Y-52564100D01*
X56793703Y-52409228D01*
X56761000Y-52244816D01*
X56761000Y-52077184D01*
X56793703Y-51912772D01*
X56857853Y-51757900D01*
X56950985Y-51618519D01*
X57069519Y-51499985D01*
X57208900Y-51406853D01*
X57363772Y-51342703D01*
X57528184Y-51310000D01*
X57695816Y-51310000D01*
X57860228Y-51342703D01*
G37*
G36*
X108550710Y-45113070D02*
G01*
X109242447Y-45399597D01*
X109242448Y-45399598D01*
X109864996Y-45815571D01*
X110394429Y-46345004D01*
X110672374Y-46760978D01*
X110810403Y-46967553D01*
X111096930Y-47659290D01*
X111243000Y-48393633D01*
X111243000Y-49142367D01*
X111096930Y-49876710D01*
X110810403Y-50568447D01*
X110810402Y-50568448D01*
X110394429Y-51190996D01*
X109864996Y-51720429D01*
X109577134Y-51912772D01*
X109242447Y-52136403D01*
X108550710Y-52422930D01*
X107816367Y-52569000D01*
X107067633Y-52569000D01*
X106333290Y-52422930D01*
X105641553Y-52136403D01*
X105306866Y-51912772D01*
X105019004Y-51720429D01*
X104489571Y-51190996D01*
X104073598Y-50568448D01*
X104073597Y-50568447D01*
X103787070Y-49876710D01*
X103641000Y-49142367D01*
X103641000Y-48393633D01*
X103787070Y-47659290D01*
X104073597Y-46967553D01*
X104211626Y-46760978D01*
X104489571Y-46345004D01*
X105019004Y-45815571D01*
X105641552Y-45399598D01*
X105641553Y-45399597D01*
X106333290Y-45113070D01*
X107067633Y-44967000D01*
X107816367Y-44967000D01*
X108550710Y-45113070D01*
G37*
G36*
X60700228Y-49957703D02*
G01*
X60855100Y-50021853D01*
X60994481Y-50114985D01*
X61113015Y-50233519D01*
X61206147Y-50372900D01*
X61270297Y-50527772D01*
X61303000Y-50692184D01*
X61303000Y-50859816D01*
X61270297Y-51024228D01*
X61206147Y-51179100D01*
X61113015Y-51318481D01*
X60994481Y-51437015D01*
X60855100Y-51530147D01*
X60700228Y-51594297D01*
X60535816Y-51627000D01*
X60368184Y-51627000D01*
X60203772Y-51594297D01*
X60048900Y-51530147D01*
X59909519Y-51437015D01*
X59790985Y-51318481D01*
X59697853Y-51179100D01*
X59633703Y-51024228D01*
X59601000Y-50859816D01*
X59601000Y-50692184D01*
X59633703Y-50527772D01*
X59697853Y-50372900D01*
X59790985Y-50233519D01*
X59909519Y-50114985D01*
X60048900Y-50021853D01*
X60203772Y-49957703D01*
X60368184Y-49925000D01*
X60535816Y-49925000D01*
X60700228Y-49957703D01*
G37*
G36*
X99046512Y-49014927D02*
G01*
X99195812Y-49044624D01*
X99359784Y-49112544D01*
X99507354Y-49211147D01*
X99632853Y-49336646D01*
X99731456Y-49484216D01*
X99799376Y-49648188D01*
X99834000Y-49822259D01*
X99834000Y-49999741D01*
X99799376Y-50173812D01*
X99731456Y-50337784D01*
X99632853Y-50485354D01*
X99507354Y-50610853D01*
X99359784Y-50709456D01*
X99195812Y-50777376D01*
X99046512Y-50807073D01*
X99021742Y-50812000D01*
X98844258Y-50812000D01*
X98819488Y-50807073D01*
X98670188Y-50777376D01*
X98506216Y-50709456D01*
X98358646Y-50610853D01*
X98233147Y-50485354D01*
X98134544Y-50337784D01*
X98066624Y-50173812D01*
X98032000Y-49999741D01*
X98032000Y-49822259D01*
X98066624Y-49648188D01*
X98134544Y-49484216D01*
X98233147Y-49336646D01*
X98358646Y-49211147D01*
X98506216Y-49112544D01*
X98670188Y-49044624D01*
X98819488Y-49014927D01*
X98844258Y-49010000D01*
X99021742Y-49010000D01*
X99046512Y-49014927D01*
G37*
G36*
X79432728Y-49092703D02*
G01*
X79587600Y-49156853D01*
X79726981Y-49249985D01*
X79845515Y-49368519D01*
X79938647Y-49507900D01*
X80002797Y-49662772D01*
X80035500Y-49827184D01*
X80035500Y-49994816D01*
X80002797Y-50159228D01*
X79938647Y-50314100D01*
X79845515Y-50453481D01*
X79726981Y-50572015D01*
X79587600Y-50665147D01*
X79432728Y-50729297D01*
X79268316Y-50762000D01*
X79100684Y-50762000D01*
X78936272Y-50729297D01*
X78781400Y-50665147D01*
X78642019Y-50572015D01*
X78523485Y-50453481D01*
X78430353Y-50314100D01*
X78366203Y-50159228D01*
X78333500Y-49994816D01*
X78333500Y-49827184D01*
X78366203Y-49662772D01*
X78430353Y-49507900D01*
X78523485Y-49368519D01*
X78642019Y-49249985D01*
X78781400Y-49156853D01*
X78936272Y-49092703D01*
X79100684Y-49060000D01*
X79268316Y-49060000D01*
X79432728Y-49092703D01*
G37*
G36*
X94672728Y-49092703D02*
G01*
X94827600Y-49156853D01*
X94966981Y-49249985D01*
X95085515Y-49368519D01*
X95178647Y-49507900D01*
X95242797Y-49662772D01*
X95275500Y-49827184D01*
X95275500Y-49994816D01*
X95242797Y-50159228D01*
X95178647Y-50314100D01*
X95085515Y-50453481D01*
X94966981Y-50572015D01*
X94827600Y-50665147D01*
X94672728Y-50729297D01*
X94508316Y-50762000D01*
X94340684Y-50762000D01*
X94176272Y-50729297D01*
X94021400Y-50665147D01*
X93882019Y-50572015D01*
X93763485Y-50453481D01*
X93670353Y-50314100D01*
X93606203Y-50159228D01*
X93573500Y-49994816D01*
X93573500Y-49827184D01*
X93606203Y-49662772D01*
X93670353Y-49507900D01*
X93763485Y-49368519D01*
X93882019Y-49249985D01*
X94021400Y-49156853D01*
X94176272Y-49092703D01*
X94340684Y-49060000D01*
X94508316Y-49060000D01*
X94672728Y-49092703D01*
G37*
G36*
X57860228Y-48572703D02*
G01*
X58015100Y-48636853D01*
X58154481Y-48729985D01*
X58273015Y-48848519D01*
X58366147Y-48987900D01*
X58430297Y-49142772D01*
X58463000Y-49307184D01*
X58463000Y-49474816D01*
X58430297Y-49639228D01*
X58366147Y-49794100D01*
X58273015Y-49933481D01*
X58154481Y-50052015D01*
X58015100Y-50145147D01*
X57860228Y-50209297D01*
X57695816Y-50242000D01*
X57528184Y-50242000D01*
X57363772Y-50209297D01*
X57208900Y-50145147D01*
X57069519Y-50052015D01*
X56950985Y-49933481D01*
X56857853Y-49794100D01*
X56793703Y-49639228D01*
X56761000Y-49474816D01*
X56761000Y-49307184D01*
X56793703Y-49142772D01*
X56857853Y-48987900D01*
X56950985Y-48848519D01*
X57069519Y-48729985D01*
X57208900Y-48636853D01*
X57363772Y-48572703D01*
X57528184Y-48540000D01*
X57695816Y-48540000D01*
X57860228Y-48572703D01*
G37*
G36*
X61303000Y-48857000D02*
G01*
X59601000Y-48857000D01*
X59601000Y-47155000D01*
X61303000Y-47155000D01*
X61303000Y-48857000D01*
G37*
G36*
X99834000Y-48272000D02*
G01*
X98032000Y-48272000D01*
X98032000Y-46470000D01*
X99834000Y-46470000D01*
X99834000Y-48272000D01*
G37*
G36*
X79432728Y-44647703D02*
G01*
X79587600Y-44711853D01*
X79726981Y-44804985D01*
X79845515Y-44923519D01*
X79938647Y-45062900D01*
X80002797Y-45217772D01*
X80035500Y-45382184D01*
X80035500Y-45549816D01*
X80002797Y-45714228D01*
X79938647Y-45869100D01*
X79845515Y-46008481D01*
X79726981Y-46127015D01*
X79587600Y-46220147D01*
X79432728Y-46284297D01*
X79268316Y-46317000D01*
X79100684Y-46317000D01*
X78936272Y-46284297D01*
X78781400Y-46220147D01*
X78642019Y-46127015D01*
X78523485Y-46008481D01*
X78430353Y-45869100D01*
X78366203Y-45714228D01*
X78333500Y-45549816D01*
X78333500Y-45382184D01*
X78366203Y-45217772D01*
X78430353Y-45062900D01*
X78523485Y-44923519D01*
X78642019Y-44804985D01*
X78781400Y-44711853D01*
X78936272Y-44647703D01*
X79100684Y-44615000D01*
X79268316Y-44615000D01*
X79432728Y-44647703D01*
G37*
G36*
X94672728Y-44647703D02*
G01*
X94827600Y-44711853D01*
X94966981Y-44804985D01*
X95085515Y-44923519D01*
X95178647Y-45062900D01*
X95242797Y-45217772D01*
X95275500Y-45382184D01*
X95275500Y-45549816D01*
X95242797Y-45714228D01*
X95178647Y-45869100D01*
X95085515Y-46008481D01*
X94966981Y-46127015D01*
X94827600Y-46220147D01*
X94672728Y-46284297D01*
X94508316Y-46317000D01*
X94340684Y-46317000D01*
X94176272Y-46284297D01*
X94021400Y-46220147D01*
X93882019Y-46127015D01*
X93763485Y-46008481D01*
X93670353Y-45869100D01*
X93606203Y-45714228D01*
X93573500Y-45549816D01*
X93573500Y-45382184D01*
X93606203Y-45217772D01*
X93670353Y-45062900D01*
X93763485Y-44923519D01*
X93882019Y-44804985D01*
X94021400Y-44711853D01*
X94176272Y-44647703D01*
X94340684Y-44615000D01*
X94508316Y-44615000D01*
X94672728Y-44647703D01*
G37*
G36*
X60750254Y-39073818D02*
G01*
X61123511Y-39228426D01*
X61123513Y-39228427D01*
X61459436Y-39452884D01*
X61745116Y-39738564D01*
X61969574Y-40074489D01*
X62124182Y-40447746D01*
X62203000Y-40843993D01*
X62203000Y-41248007D01*
X62124182Y-41644254D01*
X61969574Y-42017511D01*
X61969573Y-42017513D01*
X61745116Y-42353436D01*
X61459436Y-42639116D01*
X61123513Y-42863573D01*
X61123512Y-42863574D01*
X61123511Y-42863574D01*
X60750254Y-43018182D01*
X60354007Y-43097000D01*
X59949993Y-43097000D01*
X59553746Y-43018182D01*
X59180489Y-42863574D01*
X59180488Y-42863574D01*
X59180487Y-42863573D01*
X58844564Y-42639116D01*
X58558884Y-42353436D01*
X58334427Y-42017513D01*
X58334426Y-42017511D01*
X58179818Y-41644254D01*
X58101000Y-41248007D01*
X58101000Y-40843993D01*
X58179818Y-40447746D01*
X58334426Y-40074489D01*
X58558884Y-39738564D01*
X58844564Y-39452884D01*
X59180487Y-39228427D01*
X59180489Y-39228426D01*
X59553746Y-39073818D01*
X59949993Y-38995000D01*
X60354007Y-38995000D01*
X60750254Y-39073818D01*
G37*
M02*
